<svg width="250" height="160" viewBox="0 0 250 160" fill="none" xmlns="http://www.w3.org/2000/svg">
<path d="M124.986 0L100.849 13.9475L116.898 23.212L124.993 18.5358L133.089 23.212L149.144 13.9475L124.986 0Z" fill="#FF8820"/>
<path d="M133.089 23.212L133.082 51.107L157.24 65.0409L173.296 55.7696L149.138 41.8357L149.145 13.9475L133.089 23.212Z" fill="#FF8820"/>
<path d="M157.24 65.0409V74.3933L149.145 79.0627V97.5985L173.296 83.6578V55.7697L157.24 65.0409Z" fill="#FF4B0F"/>
<path d="M149.144 79.0627L124.986 65.1219L100.849 79.0627V97.5985L124.986 83.6578L149.144 97.5985V79.0627Z" fill="#FF4B0F"/>
<path d="M100.849 79.0627L92.7464 74.3865V65.0409L76.6838 55.7764L76.6974 83.6578L100.849 97.5985V79.0627Z" fill="#D72339"/>
<path d="M76.6838 55.7764L92.7464 65.0409L116.891 51.107L116.898 23.212L100.849 13.9475L100.835 41.8357L76.6838 55.7764Z" fill="#D72339"/>
<path d="M100.835 41.8357L116.891 51.107L92.7464 65.0409L76.6838 55.7764L100.835 41.8357Z" fill="#FF8820"/>
<path d="M133.089 23.212L149.145 13.9475L149.138 41.8357L133.082 51.107L133.089 23.212Z" fill="#FF4B0F"/>
<path d="M124.987 65.1219V83.6578L149.145 97.5985V79.0627L124.987 65.1219Z" fill="#D72339"/>
<path d="M11.3863 124.612V132.447H7.62057V124.562L0.897949 115.034H5.29546L9.49078 121.554L13.7366 115.034H18.1342L11.3863 124.612Z" fill="#D72339"/>
<path d="M36.0357 123.778C36.0357 122.312 35.5303 121.074 34.5194 120.038C33.5337 119.002 32.3206 118.496 30.88 118.496C29.4395 118.496 28.2264 119.002 27.2407 120.038C26.2551 121.074 25.7496 122.312 25.7496 123.778C25.7496 125.244 26.2551 126.482 27.2407 127.519C28.2264 128.53 29.4395 129.035 30.88 129.035C32.3206 129.035 33.5337 128.53 34.5194 127.493C35.5303 126.457 36.0357 125.219 36.0357 123.778ZM22.0598 123.778C22.0598 121.301 22.919 119.204 24.6123 117.46C26.3309 115.716 28.4286 114.832 30.88 114.832C33.3568 114.832 35.4545 115.716 37.1478 117.46C38.8663 119.204 39.7256 121.301 39.7256 123.778C39.7256 126.23 38.8663 128.353 37.1478 130.096C35.4292 131.84 33.3315 132.7 30.88 132.7C28.4286 132.7 26.3309 131.84 24.6123 130.096C22.919 128.353 22.0598 126.23 22.0598 123.778Z" fill="#D72339"/>
<path d="M56.7154 126.23V115.034H60.4305V126.23C60.4305 128.15 59.7734 129.717 58.4592 130.905C57.145 132.093 55.5528 132.7 53.7079 132.7C51.863 132.7 50.2708 132.093 48.9313 130.905C47.5918 129.717 46.9347 128.15 46.9347 126.23V115.034H50.7004V126.23C50.7004 127.114 51.0037 127.822 51.585 128.378C52.1915 128.934 52.8992 129.212 53.7079 129.212C54.5166 129.212 55.2243 128.934 55.8056 128.378C56.4121 127.797 56.7154 127.089 56.7154 126.23Z" fill="#D72339"/>
<path d="M75.5853 118.294H72.3503V123.197H75.4842C76.8236 123.197 77.6829 121.984 77.6829 120.745C77.6829 119.532 76.8742 118.294 75.5853 118.294ZM77.2027 126.28L81.5244 132.447H77.0764L73.1843 126.432H72.3503V132.447H68.6352V115.034H75.7622C77.6071 115.034 79.0477 115.59 80.0333 116.727C81.0442 117.839 81.5497 119.179 81.5497 120.745C81.5497 123.399 80.0333 125.674 77.2027 126.28Z" fill="#D72339"/>
<path d="M111.57 126.811L114.553 128.883C113.011 131.234 110.332 132.7 107.224 132.7C104.747 132.7 102.674 131.84 100.981 130.096C99.3131 128.353 98.4791 126.255 98.4791 123.778C98.4791 121.276 99.3131 119.179 100.981 117.435C102.674 115.691 104.747 114.832 107.224 114.832C110.256 114.832 112.935 116.272 114.477 118.521L111.469 120.594C110.433 119.077 109.018 118.319 107.224 118.319C105.783 118.319 104.595 118.85 103.635 119.911C102.674 120.948 102.194 122.237 102.194 123.778C102.194 125.295 102.674 126.583 103.635 127.645C104.595 128.681 105.783 129.212 107.224 129.212C109.018 129.212 110.585 128.252 111.57 126.811Z" fill="#D72339"/>
<path d="M134.423 123.778C134.423 122.312 133.917 121.074 132.906 120.038C131.921 119.002 130.708 118.496 129.267 118.496C127.827 118.496 126.613 119.002 125.628 120.038C124.642 121.074 124.137 122.312 124.137 123.778C124.137 125.244 124.642 126.482 125.628 127.519C126.613 128.53 127.827 129.035 129.267 129.035C130.708 129.035 131.921 128.53 132.906 127.493C133.917 126.457 134.423 125.219 134.423 123.778ZM120.447 123.778C120.447 121.301 121.306 119.204 122.999 117.46C124.718 115.716 126.816 114.832 129.267 114.832C131.744 114.832 133.842 115.716 135.535 117.46C137.253 119.204 138.113 121.301 138.113 123.778C138.113 126.23 137.253 128.353 135.535 130.096C133.816 131.84 131.719 132.7 129.267 132.7C126.816 132.7 124.718 131.84 122.999 130.096C121.306 128.353 120.447 126.23 120.447 123.778Z" fill="#D72339"/>
<path d="M149.745 115.034L155.001 126.255L160.208 115.034H163.316L165.439 132.447H161.724L160.511 122.009L156.442 130.45H153.586L149.492 122.009L148.253 132.447H144.538L146.687 115.034H149.745Z" fill="#D72339"/>
<path d="M179.948 118.294H176.587V123.197H179.847C181.186 123.197 182.046 121.984 182.046 120.745C182.046 119.532 181.237 118.294 179.948 118.294ZM176.587 132.447H172.872V115.034H180.024C181.894 115.034 183.309 115.59 184.295 116.727C185.281 117.839 185.761 119.179 185.761 120.745C185.761 122.312 185.281 123.652 184.295 124.764C183.309 125.876 181.894 126.432 180.024 126.432H176.587V132.447Z" fill="#D72339"/>
<path d="M198.17 119.052L196.401 125.118H200.015L198.17 119.052ZM202.745 132.447L201.203 128.327H195.188L193.646 132.447H189.704L196.174 115.034H200.192L206.637 132.447H202.745Z" fill="#D72339"/>
<path d="M222.209 115.034H225.924V132.447H222.614L216.548 121.908V132.447H212.858V115.034H216.245L222.209 125.446V115.034Z" fill="#D72339"/>
<path d="M242.37 124.612V132.447H238.604V124.562L231.882 115.034H236.279L240.474 121.554L244.72 115.034H249.118L242.37 124.612Z" fill="#D72339"/>
<path d="M74.4018 156.774H73.4131L72.7159 154.932H69.6356L68.9383 156.774H67.9497L70.6762 149.604H71.6752L74.4018 156.774ZM71.1757 150.842L69.9478 154.099H72.4037L71.1757 150.842Z" fill="#FF8820"/>
<path d="M78.1377 149.604V155.9H81.0724V156.774H77.1907V149.604H78.1377Z" fill="#FF8820"/>
<path d="M88.7409 155.255L90.5621 149.604H91.5715L89.1468 156.774H88.3247L87.0342 152.247L85.7542 156.774H84.9321L82.5074 149.604H83.5168L85.3484 155.275L86.6804 150.582H87.3985L88.7409 155.255Z" fill="#FF8820"/>
<path d="M99.6482 156.774H98.6596L97.9623 154.932H94.882L94.1848 156.774H93.1961L95.9226 149.604H96.9217L99.6482 156.774ZM96.4222 150.842L95.1942 154.099H97.6501L96.4222 150.842Z" fill="#FF8820"/>
<path d="M104.045 152.538L106.136 149.604H107.271L104.513 153.465V156.774H103.566V153.465L100.839 149.604H101.963L104.045 152.538Z" fill="#FF8820"/>
<path d="M111.948 156.899C110.439 156.899 109.429 155.858 109.419 154.745H110.355C110.387 155.379 110.99 156.025 111.948 156.025C112.874 156.025 113.394 155.421 113.394 154.786C113.394 154.089 112.759 153.777 112.156 153.621L111.23 153.392C109.71 153.028 109.471 152.133 109.471 151.55C109.471 150.311 110.584 149.479 111.833 149.479C113.092 149.479 114.102 150.28 114.102 151.56H113.165C113.165 150.842 112.572 150.353 111.802 150.353C111.084 150.353 110.418 150.832 110.418 151.539C110.418 151.789 110.501 152.289 111.459 152.538L112.395 152.788C113.613 153.111 114.341 153.735 114.341 154.755C114.341 155.868 113.436 156.899 111.948 156.899Z" fill="#FF8820"/>
<path d="M125.104 156.899C123.065 156.899 121.483 155.234 121.483 153.204C121.483 151.165 123.065 149.479 125.104 149.479C127.154 149.479 128.747 151.165 128.747 153.204C128.747 155.234 127.154 156.899 125.104 156.899ZM125.104 156.025C126.634 156.025 127.8 154.734 127.8 153.204C127.8 151.664 126.634 150.353 125.104 150.353C123.595 150.353 122.43 151.664 122.43 153.204C122.43 154.734 123.595 156.025 125.104 156.025Z" fill="#FF8820"/>
<path d="M136.249 155.046V149.604H137.196V156.774H136.28L132.971 151.31V156.774H132.024V149.604H132.96L136.249 155.046Z" fill="#FF8820"/>
<path d="M144.212 149.604H149.53V150.478H147.345V156.774H146.398V150.478H144.212V149.604Z" fill="#FF8820"/>
<path d="M157.395 156.774H156.261L154.377 154.068H153.451V156.774H152.504V149.604H155.199C156.76 149.604 157.364 150.728 157.364 151.841C157.364 152.882 156.771 153.985 155.491 154.079L157.395 156.774ZM155.22 150.478H153.451V153.204H154.95C156.001 153.204 156.417 152.653 156.417 151.841C156.417 151.04 155.949 150.478 155.22 150.478Z" fill="#FF8820"/>
<path d="M166.19 156.774H165.202L164.504 154.932H161.424L160.727 156.774H159.738L162.465 149.604H163.464L166.19 156.774ZM162.964 150.842L161.736 154.099H164.192L162.964 150.842Z" fill="#FF8820"/>
<path d="M172.01 156.899C169.981 156.899 168.368 155.234 168.368 153.204C168.368 151.175 169.981 149.479 172.01 149.479C173.113 149.479 174.071 149.947 174.706 150.696L174.019 151.279C173.54 150.717 172.812 150.353 172.01 150.353C170.501 150.353 169.315 151.664 169.315 153.204C169.315 154.734 170.501 156.025 172.01 156.025C172.812 156.025 173.54 155.66 174.019 155.098L174.706 155.681C174.071 156.43 173.113 156.899 172.01 156.899Z" fill="#FF8820"/>
<path d="M179.539 153.194L182.879 156.774H181.62L178.748 153.704V156.774H177.811V149.604H178.748V152.736L181.152 149.604H182.307L179.539 153.194Z" fill="#FF8820"/>
</svg>
