<svg width="936" height="295" viewBox="0 0 936 295" fill="none" xmlns="http://www.w3.org/2000/svg">
<path d="M49.3453 245.1C49.1186 245.1 48.9053 245.07 48.7053 245.01C48.5053 244.957 48.3186 244.877 48.1453 244.77C47.972 244.657 47.8153 244.52 47.6753 244.36C47.5353 244.2 47.412 244.023 47.3053 243.83L47.8253 243.29C47.9453 243.49 48.0653 243.657 48.1853 243.79C48.312 243.923 48.4353 244.03 48.5553 244.11C48.682 244.19 48.8086 244.247 48.9353 244.28C49.0686 244.313 49.2053 244.33 49.3453 244.33C49.6186 244.33 49.8586 244.267 50.0653 244.14C50.2786 244.007 50.442 243.827 50.5553 243.6C50.6753 243.367 50.7353 243.103 50.7353 242.81V238.74H49.4653V238H52.5653V238.74H51.5353V242.87C51.5353 243.19 51.482 243.487 51.3753 243.76C51.2686 244.033 51.1186 244.27 50.9253 244.47C50.732 244.67 50.502 244.827 50.2353 244.94C49.9686 245.047 49.672 245.1 49.3453 245.1ZM55.3056 245.1C54.8523 245.1 54.4423 244.983 54.0756 244.75C53.7089 244.51 53.4189 244.187 53.2056 243.78C52.9923 243.367 52.8856 242.9 52.8856 242.38C52.8856 241.853 52.9956 241.387 53.2156 240.98C53.4356 240.573 53.7289 240.253 54.0956 240.02C54.4689 239.787 54.8856 239.67 55.3456 239.67C55.6189 239.67 55.8723 239.71 56.1056 239.79C56.3389 239.87 56.5456 239.983 56.7256 240.13C56.9123 240.27 57.0656 240.437 57.1856 240.63C57.3123 240.817 57.3989 241.02 57.4456 241.24L57.2256 241.13L57.2556 239.78H58.0056V245H57.2456V243.72L57.4456 243.59C57.3989 243.79 57.3089 243.983 57.1756 244.17C57.0423 244.35 56.8789 244.51 56.6856 244.65C56.4989 244.79 56.2856 244.9 56.0456 244.98C55.8123 245.06 55.5656 245.1 55.3056 245.1ZM55.4756 244.38C55.8223 244.38 56.1323 244.297 56.4056 244.13C56.6789 243.957 56.8923 243.72 57.0456 243.42C57.2056 243.113 57.2856 242.767 57.2856 242.38C57.2856 241.993 57.2056 241.65 57.0456 241.35C56.8923 241.05 56.6789 240.813 56.4056 240.64C56.1323 240.467 55.8223 240.38 55.4756 240.38C55.1223 240.38 54.8089 240.467 54.5356 240.64C54.2689 240.813 54.0556 241.05 53.8956 241.35C53.7423 241.65 53.6656 241.993 53.6656 242.38C53.6656 242.76 53.7423 243.103 53.8956 243.41C54.0489 243.71 54.2623 243.947 54.5356 244.12C54.8089 244.293 55.1223 244.38 55.4756 244.38ZM59.4668 245V239.78H60.2068L60.2368 240.87L60.1168 240.92C60.1834 240.693 60.3134 240.487 60.5068 240.3C60.7001 240.113 60.9301 239.963 61.1968 239.85C61.4701 239.73 61.7501 239.67 62.0368 239.67C62.4234 239.67 62.7468 239.747 63.0068 239.9C63.2668 240.053 63.4634 240.29 63.5968 240.61C63.7301 240.93 63.7968 241.337 63.7968 241.83V245H63.0368V241.87C63.0368 241.523 62.9901 241.24 62.8968 241.02C62.8101 240.793 62.6734 240.627 62.4868 240.52C62.3001 240.413 62.0701 240.363 61.7968 240.37C61.5701 240.37 61.3601 240.41 61.1668 240.49C60.9734 240.563 60.8068 240.667 60.6668 240.8C60.5268 240.933 60.4168 241.087 60.3368 241.26C60.2568 241.433 60.2168 241.62 60.2168 241.82V245H59.8468C59.8001 245 59.7468 245 59.6868 245C59.6268 245 59.5534 245 59.4668 245Z" fill="#9D9D9D"/>
<path d="M130.819 245V238H131.599V245H130.819ZM131.209 241.88V241.11H134.749V241.88H131.209ZM131.209 238.76V238H135.219V238.76H131.209ZM138.6 245.1C138.08 245.1 137.617 244.987 137.21 244.76C136.81 244.533 136.497 244.217 136.27 243.81C136.044 243.403 135.93 242.937 135.93 242.41C135.93 242.003 135.994 241.637 136.12 241.31C136.247 240.977 136.424 240.687 136.65 240.44C136.884 240.193 137.16 240.003 137.48 239.87C137.8 239.73 138.147 239.66 138.52 239.66C138.874 239.66 139.194 239.723 139.48 239.85C139.774 239.977 140.024 240.153 140.23 240.38C140.444 240.6 140.604 240.863 140.71 241.17C140.817 241.477 140.864 241.813 140.85 242.18L140.84 242.53H136.49L136.38 241.9H140.27L140.09 242.07V241.83C140.077 241.59 140.007 241.36 139.88 241.14C139.754 240.913 139.574 240.73 139.34 240.59C139.114 240.45 138.84 240.38 138.52 240.38C138.147 240.38 137.824 240.457 137.55 240.61C137.277 240.757 137.067 240.977 136.92 241.27C136.774 241.563 136.7 241.927 136.7 242.36C136.7 242.773 136.78 243.133 136.94 243.44C137.1 243.74 137.327 243.973 137.62 244.14C137.92 244.307 138.28 244.39 138.7 244.39C138.947 244.39 139.19 244.35 139.43 244.27C139.677 244.183 139.947 244.017 140.24 243.77L140.63 244.31C140.477 244.463 140.294 244.6 140.08 244.72C139.867 244.833 139.634 244.927 139.38 245C139.127 245.067 138.867 245.1 138.6 245.1ZM144.566 245.1C144.319 245.1 144.079 245.063 143.846 244.99C143.612 244.91 143.399 244.803 143.206 244.67C143.019 244.537 142.859 244.383 142.726 244.21C142.599 244.037 142.512 243.857 142.466 243.67L142.686 243.68L142.656 244.99H141.916V237.6H142.666V241.03L142.516 241.07C142.562 240.883 142.646 240.707 142.766 240.54C142.892 240.367 143.049 240.217 143.236 240.09C143.422 239.957 143.626 239.853 143.846 239.78C144.072 239.707 144.306 239.67 144.546 239.67C145.012 239.67 145.429 239.787 145.796 240.02C146.169 240.253 146.466 240.573 146.686 240.98C146.906 241.387 147.016 241.853 147.016 242.38C147.016 242.907 146.909 243.377 146.696 243.79C146.482 244.197 146.189 244.517 145.816 244.75C145.449 244.983 145.032 245.1 144.566 245.1ZM144.446 244.39C144.799 244.39 145.112 244.303 145.386 244.13C145.659 243.95 145.872 243.71 146.026 243.41C146.186 243.103 146.266 242.76 146.266 242.38C146.266 241.993 146.186 241.65 146.026 241.35C145.872 241.05 145.659 240.813 145.386 240.64C145.112 240.467 144.799 240.38 144.446 240.38C144.092 240.38 143.779 240.467 143.506 240.64C143.232 240.813 143.016 241.05 142.856 241.35C142.702 241.65 142.626 241.993 142.626 242.38C142.626 242.767 142.702 243.113 142.856 243.42C143.016 243.72 143.232 243.957 143.506 244.13C143.779 244.303 144.092 244.39 144.446 244.39Z" fill="#9D9D9D"/>
<path d="M214.06 245V238H214.82L217.51 242.37L217.15 242.36L219.87 238H220.58V245H219.8V241.8C219.8 241.2 219.81 240.66 219.83 240.18C219.85 239.7 219.886 239.223 219.94 238.75L220.08 239.03L217.57 242.97H217.03L214.59 239.08L214.7 238.75C214.753 239.197 214.79 239.657 214.81 240.13C214.83 240.597 214.84 241.153 214.84 241.8V245H214.06ZM224.384 245.1C223.93 245.1 223.52 244.983 223.154 244.75C222.787 244.51 222.497 244.187 222.284 243.78C222.07 243.367 221.964 242.9 221.964 242.38C221.964 241.853 222.074 241.387 222.294 240.98C222.514 240.573 222.807 240.253 223.174 240.02C223.547 239.787 223.964 239.67 224.424 239.67C224.697 239.67 224.95 239.71 225.184 239.79C225.417 239.87 225.624 239.983 225.804 240.13C225.99 240.27 226.144 240.437 226.264 240.63C226.39 240.817 226.477 241.02 226.524 241.24L226.304 241.13L226.334 239.78H227.084V245H226.324V243.72L226.524 243.59C226.477 243.79 226.387 243.983 226.254 244.17C226.12 244.35 225.957 244.51 225.764 244.65C225.577 244.79 225.364 244.9 225.124 244.98C224.89 245.06 224.644 245.1 224.384 245.1ZM224.554 244.38C224.9 244.38 225.21 244.297 225.484 244.13C225.757 243.957 225.97 243.72 226.124 243.42C226.284 243.113 226.364 242.767 226.364 242.38C226.364 241.993 226.284 241.65 226.124 241.35C225.97 241.05 225.757 240.813 225.484 240.64C225.21 240.467 224.9 240.38 224.554 240.38C224.2 240.38 223.887 240.467 223.614 240.64C223.347 240.813 223.134 241.05 222.974 241.35C222.82 241.65 222.744 241.993 222.744 242.38C222.744 242.76 222.82 243.103 222.974 243.41C223.127 243.71 223.34 243.947 223.614 244.12C223.887 244.293 224.2 244.38 224.554 244.38ZM228.545 245V239.78H229.295L229.315 241.17L229.235 240.98C229.308 240.747 229.425 240.53 229.585 240.33C229.752 240.13 229.948 239.97 230.175 239.85C230.402 239.73 230.652 239.67 230.925 239.67C231.038 239.67 231.145 239.68 231.245 239.7C231.345 239.713 231.428 239.733 231.495 239.76L231.285 240.6C231.198 240.56 231.108 240.533 231.015 240.52C230.928 240.5 230.845 240.49 230.765 240.49C230.538 240.49 230.335 240.53 230.155 240.61C229.975 240.69 229.822 240.803 229.695 240.95C229.568 241.09 229.472 241.253 229.405 241.44C229.338 241.627 229.305 241.827 229.305 242.04V245H228.545Z" fill="#9D9D9D"/>
<path d="M297.174 245L299.854 238H300.744L303.404 245H302.554L300.844 240.46C300.797 240.333 300.744 240.187 300.684 240.02C300.631 239.847 300.571 239.67 300.504 239.49C300.444 239.303 300.384 239.123 300.324 238.95C300.271 238.777 300.221 238.623 300.174 238.49H300.374C300.321 238.657 300.264 238.827 300.204 239C300.151 239.167 300.094 239.337 300.034 239.51C299.974 239.677 299.914 239.843 299.854 240.01C299.794 240.177 299.734 240.343 299.674 240.51L297.974 245H297.174ZM298.314 243.07L298.604 242.31H301.914L302.234 243.07H298.314ZM304.383 247.2V239.78H305.133L305.153 241.05L305.013 241.07C305.073 240.817 305.203 240.587 305.403 240.38C305.603 240.167 305.846 239.997 306.133 239.87C306.419 239.743 306.723 239.68 307.043 239.68C307.509 239.68 307.926 239.797 308.293 240.03C308.666 240.263 308.963 240.583 309.183 240.99C309.403 241.397 309.513 241.863 309.513 242.39C309.513 242.91 309.406 243.373 309.193 243.78C308.979 244.187 308.686 244.51 308.313 244.75C307.939 244.983 307.519 245.1 307.053 245.1C306.726 245.1 306.416 245.033 306.123 244.9C305.829 244.767 305.579 244.593 305.373 244.38C305.166 244.16 305.029 243.923 304.963 243.67H305.143V247.2H304.383ZM306.933 244.38C307.286 244.38 307.599 244.293 307.873 244.12C308.146 243.947 308.363 243.71 308.523 243.41C308.683 243.11 308.763 242.77 308.763 242.39C308.763 242.003 308.683 241.66 308.523 241.36C308.363 241.06 308.146 240.823 307.873 240.65C307.599 240.477 307.286 240.39 306.933 240.39C306.579 240.39 306.263 240.477 305.983 240.65C305.709 240.817 305.493 241.05 305.333 241.35C305.173 241.65 305.093 241.993 305.093 242.38C305.093 242.767 305.173 243.11 305.333 243.41C305.493 243.71 305.709 243.947 305.983 244.12C306.263 244.293 306.579 244.38 306.933 244.38ZM310.603 245V239.78H311.353L311.373 241.17L311.293 240.98C311.367 240.747 311.483 240.53 311.643 240.33C311.81 240.13 312.007 239.97 312.233 239.85C312.46 239.73 312.71 239.67 312.983 239.67C313.097 239.67 313.203 239.68 313.303 239.7C313.403 239.713 313.487 239.733 313.553 239.76L313.343 240.6C313.257 240.56 313.167 240.533 313.073 240.52C312.987 240.5 312.903 240.49 312.823 240.49C312.597 240.49 312.393 240.53 312.213 240.61C312.033 240.69 311.88 240.803 311.753 240.95C311.627 241.09 311.53 241.253 311.463 241.44C311.397 241.627 311.363 241.827 311.363 242.04V245H310.603Z" fill="#9D9D9D"/>
<path d="M379.42 245V238H380.18L382.87 242.37L382.51 242.36L385.23 238H385.94V245H385.16V241.8C385.16 241.2 385.17 240.66 385.19 240.18C385.21 239.7 385.247 239.223 385.3 238.75L385.44 239.03L382.93 242.97H382.39L379.95 239.08L380.06 238.75C380.114 239.197 380.15 239.657 380.17 240.13C380.19 240.597 380.2 241.153 380.2 241.8V245H379.42ZM390.004 245.1C389.484 245.1 389.021 244.987 388.614 244.76C388.214 244.533 387.901 244.217 387.674 243.81C387.448 243.403 387.334 242.937 387.334 242.41C387.334 242.003 387.398 241.637 387.524 241.31C387.651 240.977 387.828 240.687 388.054 240.44C388.288 240.193 388.564 240.003 388.884 239.87C389.204 239.73 389.551 239.66 389.924 239.66C390.278 239.66 390.598 239.723 390.884 239.85C391.178 239.977 391.428 240.153 391.634 240.38C391.848 240.6 392.008 240.863 392.114 241.17C392.221 241.477 392.268 241.813 392.254 242.18L392.244 242.53H387.894L387.784 241.9H391.674L391.494 242.07V241.83C391.481 241.59 391.411 241.36 391.284 241.14C391.158 240.913 390.978 240.73 390.744 240.59C390.518 240.45 390.244 240.38 389.924 240.38C389.551 240.38 389.228 240.457 388.954 240.61C388.681 240.757 388.471 240.977 388.324 241.27C388.178 241.563 388.104 241.927 388.104 242.36C388.104 242.773 388.184 243.133 388.344 243.44C388.504 243.74 388.731 243.973 389.024 244.14C389.324 244.307 389.684 244.39 390.104 244.39C390.351 244.39 390.594 244.35 390.834 244.27C391.081 244.183 391.351 244.017 391.644 243.77L392.034 244.31C391.881 244.463 391.698 244.6 391.484 244.72C391.271 244.833 391.038 244.927 390.784 245C390.531 245.067 390.271 245.1 390.004 245.1ZM393.52 245V239.78H394.27V245H393.52ZM393.89 238.65C393.703 238.65 393.56 238.603 393.46 238.51C393.366 238.41 393.32 238.277 393.32 238.11C393.32 237.943 393.37 237.81 393.47 237.71C393.57 237.61 393.71 237.56 393.89 237.56C394.07 237.56 394.21 237.61 394.31 237.71C394.41 237.803 394.46 237.937 394.46 238.11C394.46 238.27 394.41 238.4 394.31 238.5C394.21 238.6 394.07 238.65 393.89 238.65Z" fill="#9D9D9D"/>
<path d="M458.854 245.1C458.627 245.1 458.414 245.07 458.214 245.01C458.014 244.957 457.827 244.877 457.654 244.77C457.481 244.657 457.324 244.52 457.184 244.36C457.044 244.2 456.921 244.023 456.814 243.83L457.334 243.29C457.454 243.49 457.574 243.657 457.694 243.79C457.821 243.923 457.944 244.03 458.064 244.11C458.191 244.19 458.317 244.247 458.444 244.28C458.577 244.313 458.714 244.33 458.854 244.33C459.127 244.33 459.367 244.267 459.574 244.14C459.787 244.007 459.951 243.827 460.064 243.6C460.184 243.367 460.244 243.103 460.244 242.81V238.74H458.974V238H462.074V238.74H461.044V242.87C461.044 243.19 460.991 243.487 460.884 243.76C460.777 244.033 460.627 244.27 460.434 244.47C460.241 244.67 460.011 244.827 459.744 244.94C459.477 245.047 459.181 245.1 458.854 245.1ZM464.624 245.1C464.224 245.1 463.884 245.02 463.604 244.86C463.331 244.693 463.121 244.453 462.974 244.14C462.834 243.827 462.764 243.437 462.764 242.97V239.78H463.524V242.82C463.524 243.173 463.571 243.47 463.664 243.71C463.764 243.943 463.911 244.12 464.104 244.24C464.304 244.36 464.548 244.42 464.834 244.42C465.054 244.42 465.258 244.383 465.444 244.31C465.631 244.23 465.794 244.123 465.934 243.99C466.074 243.857 466.184 243.7 466.264 243.52C466.344 243.34 466.384 243.15 466.384 242.95V239.78H467.134V245H466.394L466.364 243.9L466.484 243.84C466.404 244.073 466.271 244.287 466.084 244.48C465.898 244.667 465.674 244.817 465.414 244.93C465.161 245.043 464.898 245.1 464.624 245.1ZM468.595 245V239.78H469.335L469.365 240.87L469.245 240.92C469.311 240.693 469.441 240.487 469.635 240.3C469.828 240.113 470.058 239.963 470.325 239.85C470.598 239.73 470.878 239.67 471.165 239.67C471.551 239.67 471.875 239.747 472.135 239.9C472.395 240.053 472.591 240.29 472.725 240.61C472.858 240.93 472.925 241.337 472.925 241.83V245H472.165V241.87C472.165 241.523 472.118 241.24 472.025 241.02C471.938 240.793 471.801 240.627 471.615 240.52C471.428 240.413 471.198 240.363 470.925 240.37C470.698 240.37 470.488 240.41 470.295 240.49C470.101 240.563 469.935 240.667 469.795 240.8C469.655 240.933 469.545 241.087 469.465 241.26C469.385 241.433 469.345 241.62 469.345 241.82V245H468.975C468.928 245 468.875 245 468.815 245C468.755 245 468.681 245 468.595 245Z" fill="#9D9D9D"/>
<path d="M534.473 246.96L534.173 246.36C534.446 246.36 534.666 246.313 534.833 246.22C535.006 246.133 535.129 245.997 535.203 245.81C535.283 245.63 535.323 245.407 535.323 245.14V239.78H536.083V245.36C536.083 245.68 536.016 245.96 535.883 246.2C535.749 246.44 535.563 246.627 535.323 246.76C535.083 246.893 534.799 246.96 534.473 246.96ZM535.713 238.65C535.533 238.65 535.393 238.603 535.293 238.51C535.193 238.41 535.143 238.277 535.143 238.11C535.143 237.943 535.193 237.81 535.293 237.71C535.393 237.61 535.533 237.56 535.713 237.56C535.893 237.56 536.033 237.61 536.133 237.71C536.233 237.803 536.283 237.937 536.283 238.11C536.283 238.27 536.233 238.4 536.133 238.5C536.033 238.6 535.893 238.65 535.713 238.65ZM539.416 245.1C539.016 245.1 538.676 245.02 538.396 244.86C538.123 244.693 537.913 244.453 537.766 244.14C537.626 243.827 537.556 243.437 537.556 242.97V239.78H538.316V242.82C538.316 243.173 538.363 243.47 538.456 243.71C538.556 243.943 538.703 244.12 538.896 244.24C539.096 244.36 539.339 244.42 539.626 244.42C539.846 244.42 540.049 244.383 540.236 244.31C540.423 244.23 540.586 244.123 540.726 243.99C540.866 243.857 540.976 243.7 541.056 243.52C541.136 243.34 541.176 243.15 541.176 242.95V239.78H541.926V245H541.186L541.156 243.9L541.276 243.84C541.196 244.073 541.063 244.287 540.876 244.48C540.689 244.667 540.466 244.817 540.206 244.93C539.953 245.043 539.689 245.1 539.416 245.1ZM543.406 245V237.6H544.156V245H543.406Z" fill="#9D9D9D"/>
<path d="M608.162 245.1C607.709 245.1 607.299 244.983 606.932 244.75C606.566 244.51 606.276 244.187 606.062 243.78C605.849 243.367 605.742 242.9 605.742 242.38C605.742 241.853 605.852 241.387 606.072 240.98C606.292 240.573 606.586 240.253 606.952 240.02C607.326 239.787 607.742 239.67 608.202 239.67C608.476 239.67 608.729 239.71 608.962 239.79C609.196 239.87 609.402 239.983 609.582 240.13C609.769 240.27 609.922 240.437 610.042 240.63C610.169 240.817 610.256 241.02 610.302 241.24L610.082 241.13L610.112 239.78H610.862V245H610.102V243.72L610.302 243.59C610.256 243.79 610.166 243.983 610.032 244.17C609.899 244.35 609.736 244.51 609.542 244.65C609.356 244.79 609.142 244.9 608.902 244.98C608.669 245.06 608.422 245.1 608.162 245.1ZM608.332 244.38C608.679 244.38 608.989 244.297 609.262 244.13C609.536 243.957 609.749 243.72 609.902 243.42C610.062 243.113 610.142 242.767 610.142 242.38C610.142 241.993 610.062 241.65 609.902 241.35C609.749 241.05 609.536 240.813 609.262 240.64C608.989 240.467 608.679 240.38 608.332 240.38C607.979 240.38 607.666 240.467 607.392 240.64C607.126 240.813 606.912 241.05 606.752 241.35C606.599 241.65 606.522 241.993 606.522 242.38C606.522 242.76 606.599 243.103 606.752 243.41C606.906 243.71 607.119 243.947 607.392 244.12C607.666 244.293 607.979 244.38 608.332 244.38ZM614.076 245.1C613.676 245.1 613.336 245.02 613.056 244.86C612.783 244.693 612.573 244.453 612.426 244.14C612.286 243.827 612.216 243.437 612.216 242.97V239.78H612.976V242.82C612.976 243.173 613.023 243.47 613.116 243.71C613.216 243.943 613.363 244.12 613.556 244.24C613.756 244.36 613.999 244.42 614.286 244.42C614.506 244.42 614.709 244.383 614.896 244.31C615.083 244.23 615.246 244.123 615.386 243.99C615.526 243.857 615.636 243.7 615.716 243.52C615.796 243.34 615.836 243.15 615.836 242.95V239.78H616.586V245H615.846L615.816 243.9L615.936 243.84C615.856 244.073 615.723 244.287 615.536 244.48C615.349 244.667 615.126 244.817 614.866 244.93C614.613 245.043 614.349 245.1 614.076 245.1ZM620.199 247.3C619.812 247.3 619.445 247.24 619.099 247.12C618.752 247 618.465 246.85 618.239 246.67L618.539 246.04C618.672 246.147 618.825 246.24 618.999 246.32C619.179 246.407 619.372 246.473 619.579 246.52C619.785 246.573 619.995 246.6 620.209 246.6C620.595 246.6 620.922 246.527 621.189 246.38C621.462 246.24 621.669 246.03 621.809 245.75C621.955 245.47 622.029 245.123 622.029 244.71V243.71L622.149 243.68C622.089 243.933 621.959 244.17 621.759 244.39C621.559 244.603 621.315 244.777 621.029 244.91C620.742 245.037 620.439 245.1 620.119 245.1C619.632 245.1 619.195 244.983 618.809 244.75C618.429 244.517 618.129 244.197 617.909 243.79C617.689 243.377 617.579 242.91 617.579 242.39C617.579 241.863 617.689 241.397 617.909 240.99C618.135 240.577 618.439 240.253 618.819 240.02C619.199 239.787 619.625 239.67 620.099 239.67C620.305 239.67 620.505 239.697 620.699 239.75C620.892 239.797 621.069 239.867 621.229 239.96C621.395 240.053 621.545 240.16 621.679 240.28C621.812 240.4 621.922 240.53 622.009 240.67C622.102 240.81 622.169 240.953 622.209 241.1L621.999 241.07L622.029 239.78H622.779V244.68C622.779 245.1 622.719 245.47 622.599 245.79C622.479 246.117 622.302 246.39 622.069 246.61C621.842 246.837 621.569 247.007 621.249 247.12C620.935 247.24 620.585 247.3 620.199 247.3ZM620.209 244.38C620.562 244.38 620.875 244.297 621.149 244.13C621.429 243.957 621.649 243.72 621.809 243.42C621.969 243.12 622.049 242.773 622.049 242.38C622.049 241.993 621.969 241.65 621.809 241.35C621.655 241.05 621.439 240.813 621.159 240.64C620.879 240.467 620.562 240.38 620.209 240.38C619.849 240.38 619.529 240.467 619.249 240.64C618.975 240.813 618.759 241.05 618.599 241.35C618.439 241.65 618.359 241.993 618.359 242.38C618.359 242.76 618.435 243.103 618.589 243.41C618.749 243.71 618.965 243.947 619.239 244.12C619.519 244.293 619.842 244.38 620.209 244.38Z" fill="#9D9D9D"/>
<path d="M683.342 245.1C682.895 245.1 682.495 245.017 682.142 244.85C681.789 244.683 681.509 244.463 681.302 244.19L681.832 243.73C682.025 243.963 682.252 244.14 682.512 244.26C682.779 244.38 683.075 244.44 683.402 244.44C683.569 244.44 683.719 244.423 683.852 244.39C683.985 244.35 684.102 244.293 684.202 244.22C684.302 244.147 684.379 244.06 684.432 243.96C684.485 243.86 684.512 243.75 684.512 243.63C684.512 243.41 684.415 243.227 684.222 243.08C684.135 243.02 684.012 242.96 683.852 242.9C683.692 242.833 683.499 242.77 683.272 242.71C682.899 242.603 682.589 242.497 682.342 242.39C682.095 242.277 681.902 242.147 681.762 242C681.662 241.88 681.585 241.75 681.532 241.61C681.485 241.47 681.462 241.317 681.462 241.15C681.462 240.937 681.505 240.74 681.592 240.56C681.685 240.38 681.812 240.223 681.972 240.09C682.139 239.95 682.332 239.847 682.552 239.78C682.779 239.707 683.022 239.67 683.282 239.67C683.529 239.67 683.772 239.703 684.012 239.77C684.252 239.837 684.475 239.933 684.682 240.06C684.889 240.187 685.065 240.337 685.212 240.51L684.752 241.01C684.625 240.877 684.485 240.757 684.332 240.65C684.179 240.543 684.015 240.46 683.842 240.4C683.675 240.34 683.502 240.31 683.322 240.31C683.162 240.31 683.012 240.33 682.872 240.37C682.739 240.41 682.622 240.467 682.522 240.54C682.429 240.607 682.355 240.69 682.302 240.79C682.255 240.89 682.232 241 682.232 241.12C682.232 241.22 682.252 241.31 682.292 241.39C682.332 241.47 682.389 241.54 682.462 241.6C682.555 241.673 682.685 241.743 682.852 241.81C683.025 241.87 683.239 241.933 683.492 242C683.785 242.08 684.032 242.163 684.232 242.25C684.439 242.33 684.609 242.427 684.742 242.54C684.922 242.673 685.049 242.827 685.122 243C685.202 243.173 685.242 243.37 685.242 243.59C685.242 243.883 685.159 244.143 684.992 244.37C684.832 244.597 684.609 244.777 684.322 244.91C684.035 245.037 683.709 245.1 683.342 245.1ZM688.717 245.1C688.197 245.1 687.734 244.987 687.327 244.76C686.927 244.533 686.614 244.217 686.387 243.81C686.16 243.403 686.047 242.937 686.047 242.41C686.047 242.003 686.11 241.637 686.237 241.31C686.364 240.977 686.54 240.687 686.767 240.44C687 240.193 687.277 240.003 687.597 239.87C687.917 239.73 688.264 239.66 688.637 239.66C688.99 239.66 689.31 239.723 689.597 239.85C689.89 239.977 690.14 240.153 690.347 240.38C690.56 240.6 690.72 240.863 690.827 241.17C690.934 241.477 690.98 241.813 690.967 242.18L690.957 242.53H686.607L686.497 241.9H690.387L690.207 242.07V241.83C690.194 241.59 690.124 241.36 689.997 241.14C689.87 240.913 689.69 240.73 689.457 240.59C689.23 240.45 688.957 240.38 688.637 240.38C688.264 240.38 687.94 240.457 687.667 240.61C687.394 240.757 687.184 240.977 687.037 241.27C686.89 241.563 686.817 241.927 686.817 242.36C686.817 242.773 686.897 243.133 687.057 243.44C687.217 243.74 687.444 243.973 687.737 244.14C688.037 244.307 688.397 244.39 688.817 244.39C689.064 244.39 689.307 244.35 689.547 244.27C689.794 244.183 690.064 244.017 690.357 243.77L690.747 244.31C690.594 244.463 690.41 244.6 690.197 244.72C689.984 244.833 689.75 244.927 689.497 245C689.244 245.067 688.984 245.1 688.717 245.1ZM692.032 247.2V239.78H692.782L692.802 241.05L692.662 241.07C692.722 240.817 692.852 240.587 693.052 240.38C693.252 240.167 693.496 239.997 693.782 239.87C694.069 239.743 694.372 239.68 694.692 239.68C695.159 239.68 695.576 239.797 695.942 240.03C696.316 240.263 696.612 240.583 696.832 240.99C697.052 241.397 697.162 241.863 697.162 242.39C697.162 242.91 697.056 243.373 696.842 243.78C696.629 244.187 696.336 244.51 695.962 244.75C695.589 244.983 695.169 245.1 694.702 245.1C694.376 245.1 694.066 245.033 693.772 244.9C693.479 244.767 693.229 244.593 693.022 244.38C692.816 244.16 692.679 243.923 692.612 243.67H692.792V247.2H692.032ZM694.582 244.38C694.936 244.38 695.249 244.293 695.522 244.12C695.796 243.947 696.012 243.71 696.172 243.41C696.332 243.11 696.412 242.77 696.412 242.39C696.412 242.003 696.332 241.66 696.172 241.36C696.012 241.06 695.796 240.823 695.522 240.65C695.249 240.477 694.936 240.39 694.582 240.39C694.229 240.39 693.912 240.477 693.632 240.65C693.359 240.817 693.142 241.05 692.982 241.35C692.822 241.65 692.742 241.993 692.742 242.38C692.742 242.767 692.822 243.11 692.982 243.41C693.142 243.71 693.359 243.947 693.632 244.12C693.912 244.293 694.229 244.38 694.582 244.38Z" fill="#9D9D9D"/>
<path d="M759.432 245.1C758.912 245.1 758.449 244.983 758.042 244.75C757.642 244.517 757.325 244.193 757.092 243.78C756.865 243.367 756.752 242.897 756.752 242.37C756.752 241.85 756.865 241.387 757.092 240.98C757.325 240.573 757.642 240.253 758.042 240.02C758.449 239.787 758.912 239.67 759.432 239.67C759.945 239.67 760.402 239.787 760.802 240.02C761.209 240.253 761.525 240.573 761.752 240.98C761.985 241.387 762.102 241.85 762.102 242.37C762.102 242.897 761.985 243.367 761.752 243.78C761.525 244.193 761.209 244.517 760.802 244.75C760.402 244.983 759.945 245.1 759.432 245.1ZM759.432 244.39C759.799 244.39 760.125 244.303 760.412 244.13C760.699 243.95 760.922 243.71 761.082 243.41C761.242 243.103 761.322 242.757 761.322 242.37C761.322 241.983 761.242 241.64 761.082 241.34C760.922 241.04 760.699 240.807 760.412 240.64C760.125 240.467 759.799 240.38 759.432 240.38C759.065 240.38 758.735 240.467 758.442 240.64C758.155 240.807 757.929 241.043 757.762 241.35C757.602 241.65 757.525 241.99 757.532 242.37C757.525 242.757 757.602 243.103 757.762 243.41C757.929 243.71 758.155 243.95 758.442 244.13C758.735 244.303 759.065 244.39 759.432 244.39ZM763.866 243.32L763.836 242.45L766.566 239.78H767.576L763.866 243.32ZM763.196 245V237.6H763.946V245H763.196ZM766.776 245L764.576 242.45L765.106 241.93L767.756 245H766.776ZM769.297 245V238.41H770.047V245H769.297ZM768.117 240.5V239.78H771.367V240.5H768.117Z" fill="#9D9D9D"/>
<path d="M830.932 245V239.78H831.672L831.702 240.87L831.582 240.92C831.649 240.693 831.779 240.487 831.972 240.3C832.166 240.113 832.396 239.963 832.662 239.85C832.936 239.73 833.216 239.67 833.502 239.67C833.889 239.67 834.212 239.747 834.472 239.9C834.732 240.053 834.929 240.29 835.062 240.61C835.196 240.93 835.262 241.337 835.262 241.83V245H834.502V241.87C834.502 241.523 834.456 241.24 834.362 241.02C834.276 240.793 834.139 240.627 833.952 240.52C833.766 240.413 833.536 240.363 833.262 240.37C833.036 240.37 832.826 240.41 832.632 240.49C832.439 240.563 832.272 240.667 832.132 240.8C831.992 240.933 831.882 241.087 831.802 241.26C831.722 241.433 831.682 241.62 831.682 241.82V245H831.312C831.266 245 831.212 245 831.152 245C831.092 245 831.019 245 830.932 245ZM839.004 245.1C838.484 245.1 838.021 244.983 837.614 244.75C837.214 244.517 836.897 244.193 836.664 243.78C836.437 243.367 836.324 242.897 836.324 242.37C836.324 241.85 836.437 241.387 836.664 240.98C836.897 240.573 837.214 240.253 837.614 240.02C838.021 239.787 838.484 239.67 839.004 239.67C839.517 239.67 839.974 239.787 840.374 240.02C840.781 240.253 841.097 240.573 841.324 240.98C841.557 241.387 841.674 241.85 841.674 242.37C841.674 242.897 841.557 243.367 841.324 243.78C841.097 244.193 840.781 244.517 840.374 244.75C839.974 244.983 839.517 245.1 839.004 245.1ZM839.004 244.39C839.371 244.39 839.697 244.303 839.984 244.13C840.271 243.95 840.494 243.71 840.654 243.41C840.814 243.103 840.894 242.757 840.894 242.37C840.894 241.983 840.814 241.64 840.654 241.34C840.494 241.04 840.271 240.807 839.984 240.64C839.697 240.467 839.371 240.38 839.004 240.38C838.637 240.38 838.307 240.467 838.014 240.64C837.727 240.807 837.501 241.043 837.334 241.35C837.174 241.65 837.097 241.99 837.104 242.37C837.097 242.757 837.174 243.103 837.334 243.41C837.501 243.71 837.727 243.95 838.014 244.13C838.307 244.303 838.637 244.39 839.004 244.39ZM844.242 245L842.042 239.78H842.872L844.612 244.05L844.412 244.16L846.322 239.78H847.122L844.782 245H844.242Z" fill="#9D9D9D"/>
<path d="M907.805 245.1C907.332 245.1 906.905 244.983 906.525 244.75C906.152 244.517 905.855 244.197 905.635 243.79C905.422 243.377 905.315 242.91 905.315 242.39C905.315 241.863 905.425 241.397 905.645 240.99C905.865 240.577 906.162 240.253 906.535 240.02C906.908 239.787 907.328 239.67 907.795 239.67C908.055 239.67 908.305 239.71 908.545 239.79C908.792 239.87 909.012 239.983 909.205 240.13C909.398 240.27 909.558 240.433 909.685 240.62C909.812 240.8 909.888 240.99 909.915 241.19L909.685 241.11V237.6H910.435V245H909.695L909.675 243.7L909.865 243.63C909.838 243.817 909.762 244 909.635 244.18C909.515 244.353 909.362 244.51 909.175 244.65C908.988 244.79 908.775 244.9 908.535 244.98C908.302 245.06 908.058 245.1 907.805 245.1ZM907.915 244.41C908.262 244.41 908.572 244.323 908.845 244.15C909.118 243.977 909.332 243.737 909.485 243.43C909.645 243.123 909.725 242.773 909.725 242.38C909.725 241.987 909.645 241.64 909.485 241.34C909.332 241.033 909.118 240.793 908.845 240.62C908.572 240.44 908.262 240.35 907.915 240.35C907.555 240.35 907.238 240.44 906.965 240.62C906.698 240.793 906.485 241.033 906.325 241.34C906.172 241.64 906.095 241.987 906.095 242.38C906.095 242.767 906.172 243.113 906.325 243.42C906.478 243.727 906.692 243.97 906.965 244.15C907.238 244.323 907.555 244.41 907.915 244.41ZM914.196 245.1C913.676 245.1 913.213 244.987 912.806 244.76C912.406 244.533 912.093 244.217 911.866 243.81C911.639 243.403 911.526 242.937 911.526 242.41C911.526 242.003 911.589 241.637 911.716 241.31C911.843 240.977 912.019 240.687 912.246 240.44C912.479 240.193 912.756 240.003 913.076 239.87C913.396 239.73 913.743 239.66 914.116 239.66C914.469 239.66 914.789 239.723 915.076 239.85C915.369 239.977 915.619 240.153 915.826 240.38C916.039 240.6 916.199 240.863 916.306 241.17C916.413 241.477 916.459 241.813 916.446 242.18L916.436 242.53H912.086L911.976 241.9H915.866L915.686 242.07V241.83C915.673 241.59 915.603 241.36 915.476 241.14C915.349 240.913 915.169 240.73 914.936 240.59C914.709 240.45 914.436 240.38 914.116 240.38C913.743 240.38 913.419 240.457 913.146 240.61C912.873 240.757 912.663 240.977 912.516 241.27C912.369 241.563 912.296 241.927 912.296 242.36C912.296 242.773 912.376 243.133 912.536 243.44C912.696 243.74 912.923 243.973 913.216 244.14C913.516 244.307 913.876 244.39 914.296 244.39C914.543 244.39 914.786 244.35 915.026 244.27C915.273 244.183 915.543 244.017 915.836 243.77L916.226 244.31C916.073 244.463 915.889 244.6 915.676 244.72C915.463 244.833 915.229 244.927 914.976 245C914.723 245.067 914.463 245.1 914.196 245.1ZM919.711 245.1C919.218 245.1 918.778 244.983 918.391 244.75C918.004 244.51 917.698 244.187 917.471 243.78C917.251 243.367 917.141 242.9 917.141 242.38C917.141 241.86 917.251 241.397 917.471 240.99C917.698 240.577 918.004 240.253 918.391 240.02C918.778 239.787 919.221 239.67 919.721 239.67C920.168 239.67 920.574 239.76 920.941 239.94C921.308 240.113 921.601 240.357 921.821 240.67L921.381 241.21C921.254 241.043 921.101 240.897 920.921 240.77C920.748 240.643 920.558 240.547 920.351 240.48C920.151 240.407 919.951 240.37 919.751 240.37C919.398 240.37 919.081 240.46 918.801 240.64C918.521 240.813 918.298 241.05 918.131 241.35C917.971 241.65 917.891 241.993 917.891 242.38C917.891 242.767 917.971 243.113 918.131 243.42C918.298 243.72 918.521 243.957 918.801 244.13C919.081 244.303 919.394 244.39 919.741 244.39C919.941 244.39 920.138 244.36 920.331 244.3C920.524 244.233 920.708 244.14 920.881 244.02C921.054 243.9 921.214 243.75 921.361 243.57L921.801 244.11C921.574 244.41 921.271 244.65 920.891 244.83C920.511 245.01 920.118 245.1 919.711 245.1Z" fill="#9D9D9D"/>
<path d="M5.97266 220.889C5.42599 220.889 4.95933 220.745 4.57266 220.459C4.19266 220.172 3.89933 219.762 3.69266 219.229C3.49266 218.689 3.39266 218.042 3.39266 217.289C3.39266 216.535 3.49266 215.892 3.69266 215.359C3.89933 214.819 4.19266 214.405 4.57266 214.119C4.95933 213.832 5.42599 213.689 5.97266 213.689C6.51266 213.689 6.97599 213.832 7.36266 214.119C7.74933 214.405 8.04266 214.819 8.24266 215.359C8.44933 215.892 8.55266 216.535 8.55266 217.289C8.55266 218.042 8.44933 218.689 8.24266 219.229C8.04266 219.762 7.74933 220.172 7.36266 220.459C6.97599 220.745 6.51266 220.889 5.97266 220.889ZM5.97266 220.159C6.54599 220.159 6.98599 219.909 7.29266 219.409C7.60599 218.909 7.76266 218.202 7.76266 217.289C7.76266 216.375 7.60599 215.669 7.29266 215.169C6.98599 214.669 6.54599 214.419 5.97266 214.419C5.39266 214.419 4.94599 214.669 4.63266 215.169C4.32599 215.669 4.17266 216.375 4.17266 217.289C4.17266 218.202 4.32599 218.909 4.63266 219.409C4.94599 219.909 5.39266 220.159 5.97266 220.159Z" fill="#9D9D9D"/>
<path d="M3.84266 188.75L3.60266 188.17L5.96266 185.52C6.07599 185.393 6.19266 185.25 6.31266 185.09C6.43933 184.93 6.55599 184.763 6.66266 184.59C6.77599 184.41 6.86599 184.233 6.93266 184.06C6.99933 183.886 7.03266 183.716 7.03266 183.55C7.03266 183.303 6.97933 183.096 6.87266 182.93C6.76599 182.756 6.61266 182.623 6.41266 182.53C6.21933 182.436 5.99266 182.39 5.73266 182.39C5.50599 182.39 5.28266 182.443 5.06266 182.55C4.84266 182.656 4.64266 182.82 4.46266 183.04C4.28266 183.26 4.14266 183.54 4.04266 183.88L3.42266 183.51C3.54266 183.103 3.71933 182.763 3.95266 182.49C4.18599 182.21 4.46266 182 4.78266 181.86C5.10266 181.72 5.44599 181.65 5.81266 181.65C6.19933 181.65 6.54599 181.73 6.85266 181.89C7.15933 182.043 7.40266 182.263 7.58266 182.55C7.76266 182.83 7.85266 183.153 7.85266 183.52C7.85266 183.68 7.83266 183.84 7.79266 184C7.75933 184.16 7.70599 184.32 7.63266 184.48C7.55933 184.64 7.46933 184.803 7.36266 184.97C7.26266 185.136 7.14266 185.306 7.00266 185.48C6.86933 185.653 6.71933 185.833 6.55266 186.02L4.54266 188.26L4.42266 188H8.07266V188.75H3.84266Z" fill="#9D9D9D"/>
<path d="M6.71266 153.798V147.728L6.93266 147.798L4.03266 151.338L3.95266 151.158H8.69266V151.898H3.66266L3.29266 151.158L6.86266 146.798H7.47266V153.798H6.71266Z" fill="#9D9D9D"/>
<path d="M5.83266 118.896C5.48599 118.896 5.16266 118.836 4.86266 118.716C4.56933 118.596 4.31266 118.426 4.09266 118.206C3.87933 117.979 3.71266 117.716 3.59266 117.416C3.47266 117.109 3.41266 116.776 3.41266 116.416C3.41266 116.243 3.43599 116.053 3.48266 115.846C3.52933 115.633 3.59933 115.403 3.69266 115.156C3.78599 114.903 3.89933 114.639 4.03266 114.366C4.16599 114.093 4.31933 113.809 4.49266 113.516L5.51266 111.786H6.27266L6.31266 111.886L5.18266 113.786C5.02266 114.053 4.87599 114.316 4.74266 114.576C4.61599 114.836 4.49599 115.099 4.38266 115.366C4.26933 115.626 4.15933 115.893 4.05266 116.166L3.91266 115.446C4.03933 115.233 4.17599 115.046 4.32266 114.886C4.47599 114.726 4.63933 114.589 4.81266 114.476C4.98599 114.356 5.16933 114.269 5.36266 114.216C5.56266 114.156 5.76599 114.126 5.97266 114.126C6.37933 114.126 6.74599 114.233 7.07266 114.446C7.40599 114.653 7.67266 114.929 7.87266 115.276C8.07266 115.623 8.17266 116.009 8.17266 116.436C8.17266 116.903 8.06933 117.323 7.86266 117.696C7.65599 118.069 7.37266 118.363 7.01266 118.576C6.65933 118.789 6.26599 118.896 5.83266 118.896ZM5.80266 118.166C6.10266 118.166 6.37266 118.093 6.61266 117.946C6.85266 117.799 7.04266 117.603 7.18266 117.356C7.32266 117.103 7.39266 116.819 7.39266 116.506C7.39266 116.213 7.32266 115.943 7.18266 115.696C7.04266 115.443 6.85266 115.243 6.61266 115.096C6.37266 114.943 6.10599 114.866 5.81266 114.866C5.49933 114.866 5.21933 114.939 4.97266 115.086C4.73266 115.233 4.54266 115.429 4.40266 115.676C4.26266 115.923 4.19266 116.196 4.19266 116.496C4.19266 116.809 4.26266 117.093 4.40266 117.346C4.54266 117.593 4.73266 117.793 4.97266 117.946C5.21933 118.093 5.49599 118.166 5.80266 118.166Z" fill="#9D9D9D"/>
<path d="M5.81266 83.9243C5.37933 83.9243 4.98266 83.8343 4.62266 83.6543C4.26933 83.4676 3.98599 83.221 3.77266 82.9143C3.55933 82.601 3.45266 82.2576 3.45266 81.8843C3.45266 81.6776 3.48266 81.4843 3.54266 81.3043C3.60933 81.1176 3.70266 80.9476 3.82266 80.7943C3.94933 80.6343 4.10266 80.491 4.28266 80.3643C4.46266 80.231 4.66933 80.1176 4.90266 80.0243L4.84266 80.2343C4.66266 80.181 4.49933 80.1043 4.35266 80.0043C4.20599 79.9043 4.08266 79.791 3.98266 79.6643C3.88266 79.531 3.80599 79.3876 3.75266 79.2343C3.69933 79.0743 3.67266 78.911 3.67266 78.7443C3.67266 78.4043 3.76599 78.0943 3.95266 77.8143C4.14599 77.5343 4.40266 77.311 4.72266 77.1443C5.04933 76.9776 5.41266 76.8943 5.81266 76.8943C6.20599 76.8943 6.56266 76.9776 6.88266 77.1443C7.20933 77.311 7.46599 77.5343 7.65266 77.8143C7.84599 78.0943 7.94266 78.4043 7.94266 78.7443C7.94266 78.911 7.91599 79.071 7.86266 79.2243C7.81599 79.3776 7.74266 79.521 7.64266 79.6543C7.54266 79.781 7.41599 79.8943 7.26266 79.9943C7.11599 80.0943 6.94933 80.1743 6.76266 80.2343L6.73266 80.0643C6.94599 80.1376 7.13933 80.241 7.31266 80.3743C7.49266 80.501 7.64599 80.6443 7.77266 80.8043C7.89933 80.9643 7.99599 81.1376 8.06266 81.3243C8.13599 81.5043 8.17266 81.691 8.17266 81.8843C8.17266 82.2643 8.06599 82.611 7.85266 82.9243C7.64599 83.231 7.36266 83.4743 7.00266 83.6543C6.64933 83.8343 6.25266 83.9243 5.81266 83.9243ZM5.81266 83.1843C6.11266 83.1843 6.37933 83.1276 6.61266 83.0143C6.85266 82.8943 7.03933 82.7343 7.17266 82.5343C7.31266 82.3343 7.38266 82.111 7.38266 81.8643C7.38266 81.611 7.31266 81.3876 7.17266 81.1943C7.03933 80.9943 6.85266 80.8376 6.61266 80.7243C6.37933 80.6043 6.11266 80.5443 5.81266 80.5443C5.51266 80.5443 5.24266 80.6043 5.00266 80.7243C4.76933 80.8376 4.58266 80.9943 4.44266 81.1943C4.30933 81.3876 4.24266 81.611 4.24266 81.8643C4.24266 82.111 4.30933 82.3343 4.44266 82.5343C4.58266 82.7276 4.76933 82.8843 5.00266 83.0043C5.24266 83.1243 5.51266 83.1843 5.81266 83.1843ZM5.81266 79.8743C6.06599 79.8743 6.29266 79.8276 6.49266 79.7343C6.69933 79.641 6.85933 79.511 6.97266 79.3443C7.09266 79.1776 7.15266 78.9843 7.15266 78.7643C7.15266 78.551 7.09266 78.361 6.97266 78.1943C6.85933 78.021 6.69933 77.8843 6.49266 77.7843C6.29266 77.6843 6.06599 77.6343 5.81266 77.6343C5.55266 77.6343 5.31933 77.6843 5.11266 77.7843C4.91266 77.8843 4.75266 78.021 4.63266 78.1943C4.51933 78.361 4.46266 78.551 4.46266 78.7643C4.46266 78.9776 4.51933 79.171 4.63266 79.3443C4.75266 79.511 4.91266 79.641 5.11266 79.7343C5.31933 79.8276 5.55266 79.8743 5.81266 79.8743Z" fill="#9D9D9D"/>
<path d="M2.07 45.6899V39.6499L2.36 39.8699L1.06 40.6499L0.83 39.9499L2.56 38.9299H2.86V45.6899H2.07ZM1.04 46.0299V45.2699H3.91V46.0299H1.04ZM7.64008 46.1299C7.09341 46.1299 6.62674 45.9866 6.24008 45.6999C5.86008 45.4132 5.56674 45.0032 5.36008 44.4699C5.16008 43.9299 5.06008 43.2832 5.06008 42.5299C5.06008 41.7766 5.16008 41.1332 5.36008 40.5999C5.56674 40.0599 5.86008 39.6466 6.24008 39.3599C6.62674 39.0732 7.09341 38.9299 7.64008 38.9299C8.18008 38.9299 8.64341 39.0732 9.03008 39.3599C9.41675 39.6466 9.71008 40.0599 9.91008 40.5999C10.1167 41.1332 10.2201 41.7766 10.2201 42.5299C10.2201 43.2832 10.1167 43.9299 9.91008 44.4699C9.71008 45.0032 9.41675 45.4132 9.03008 45.6999C8.64341 45.9866 8.18008 46.1299 7.64008 46.1299ZM7.64008 45.3999C8.21341 45.3999 8.65341 45.1499 8.96008 44.6499C9.27341 44.1499 9.43008 43.4432 9.43008 42.5299C9.43008 41.6166 9.27341 40.9099 8.96008 40.4099C8.65341 39.9099 8.21341 39.6599 7.64008 39.6599C7.06008 39.6599 6.61341 39.9099 6.30008 40.4099C5.99341 40.9099 5.84008 41.6166 5.84008 42.5299C5.84008 43.4432 5.99341 44.1499 6.30008 44.6499C6.61341 45.1499 7.06008 45.3999 7.64008 45.3999Z" fill="#9D9D9D"/>
<path d="M2.07 13.6508V7.61084L2.36 7.83084L1.06 8.61084L0.83 7.91084L2.56 6.89084H2.86V13.6508H2.07ZM1.04 13.9908V13.2308H3.91V13.9908H1.04ZM5.51008 13.9908L5.27008 13.4108L7.63008 10.7608C7.74341 10.6342 7.86008 10.4908 7.98008 10.3308C8.10674 10.1708 8.22341 10.0042 8.33008 9.83084C8.44341 9.65084 8.53341 9.47418 8.60008 9.30084C8.66675 9.12751 8.70008 8.95751 8.70008 8.79084C8.70008 8.54418 8.64675 8.33751 8.54008 8.17084C8.43341 7.99751 8.28008 7.86418 8.08008 7.77084C7.88674 7.67751 7.66008 7.63084 7.40008 7.63084C7.17341 7.63084 6.95008 7.68418 6.73008 7.79084C6.51008 7.89751 6.31008 8.06084 6.13008 8.28084C5.95008 8.50084 5.81008 8.78084 5.71008 9.12084L5.09008 8.75084C5.21008 8.34418 5.38674 8.00418 5.62008 7.73084C5.85341 7.45084 6.13008 7.24084 6.45008 7.10084C6.77008 6.96084 7.11341 6.89084 7.48008 6.89084C7.86674 6.89084 8.21341 6.97084 8.52008 7.13084C8.82675 7.28418 9.07008 7.50418 9.25008 7.79084C9.43008 8.07084 9.52008 8.39418 9.52008 8.76084C9.52008 8.92084 9.50008 9.08084 9.46008 9.24084C9.42674 9.40084 9.37341 9.56084 9.30008 9.72084C9.22675 9.88084 9.13675 10.0442 9.03008 10.2108C8.93008 10.3775 8.81008 10.5475 8.67008 10.7208C8.53675 10.8942 8.38675 11.0742 8.22008 11.2608L6.21008 13.5008L6.09008 13.2408H9.74008V13.9908H5.51008Z" fill="#9D9D9D"/>
<path d="M845.651 283.605C845.651 278.634 849.68 274.605 854.651 274.605V274.605C859.621 274.605 863.651 278.634 863.651 283.605V283.605C863.651 288.575 859.621 292.605 854.651 292.605V292.605C849.68 292.605 845.651 288.575 845.651 283.605V283.605Z" fill="#FF8820"/>
<path d="M33 22.368C33 10.0145 43.0145 0 55.368 0V0C67.7215 0 77.736 10.0145 77.736 22.368V193.168C77.736 205.521 67.7215 215.536 55.368 215.536V215.536C43.0145 215.536 33 205.521 33 193.168V22.368Z" fill="white"/>
<path d="M110.761 22.8153C110.761 10.2148 120.976 0 133.576 0V0C146.177 0 156.392 10.2148 156.392 22.8153V192.72C156.392 205.321 146.177 215.536 133.576 215.536V215.536C120.976 215.536 110.761 205.321 110.761 192.72V22.8153Z" fill="white"/>
<path d="M189.416 22.368C189.416 10.0145 199.431 0 211.784 0V0C224.138 0 234.152 10.0145 234.152 22.368V193.168C234.152 205.521 224.138 215.536 211.784 215.536V215.536C199.431 215.536 189.416 205.521 189.416 193.168V22.368Z" fill="white"/>
<path d="M267.177 22.368C267.177 10.0145 277.192 0 289.545 0V0C301.899 0 311.913 10.0145 311.913 22.368V193.168C311.913 205.521 301.899 215.536 289.545 215.536V215.536C277.192 215.536 267.177 205.521 267.177 193.168V22.368Z" fill="white"/>
<path d="M344.938 22.368C344.938 10.0145 354.953 0 367.306 0V0C379.66 0 389.674 10.0145 389.674 22.368V193.168C389.674 205.521 379.66 215.536 367.306 215.536V215.536C354.953 215.536 344.938 205.521 344.938 193.168V22.368Z" fill="white"/>
<path d="M422.699 22.368C422.699 10.0145 432.713 0 445.067 0V0C457.42 0 467.435 10.0145 467.435 22.368V193.168C467.435 205.521 457.42 215.536 445.067 215.536V215.536C432.713 215.536 422.699 205.521 422.699 193.168V22.368Z" fill="white"/>
<path d="M500.46 22.368C500.46 10.0145 510.474 0 522.828 0V0C535.181 0 545.196 10.0145 545.196 22.368V193.168C545.196 205.521 535.181 215.536 522.828 215.536V215.536C510.474 215.536 500.46 205.521 500.46 193.168V22.368Z" fill="white"/>
<path d="M578.221 22.368C578.221 10.0145 588.235 0 600.589 0V0C612.942 0 622.957 10.0145 622.957 22.368V193.168C622.957 205.521 612.942 215.536 600.589 215.536V215.536C588.235 215.536 578.221 205.521 578.221 193.168V22.368Z" fill="white"/>
<path d="M655.982 22.368C655.982 10.0145 665.996 0 678.35 0V0C690.703 0 700.718 10.0145 700.718 22.368V193.168C700.718 205.521 690.703 215.536 678.35 215.536V215.536C665.996 215.536 655.982 205.521 655.982 193.168V22.368Z" fill="white"/>
<path d="M733.742 22.368C733.742 10.0145 743.757 0 756.11 0V0C768.464 0 778.478 10.0145 778.478 22.368V193.168C778.478 205.521 768.464 215.536 756.11 215.536V215.536C743.757 215.536 733.742 205.521 733.742 193.168V22.368Z" fill="white"/>
<path d="M811.503 22.368C811.503 10.0145 821.518 0 833.871 0V0C846.225 0 856.239 10.0145 856.239 22.368V193.168C856.239 205.521 846.225 215.536 833.871 215.536V215.536C821.518 215.536 811.503 205.521 811.503 193.168V22.368Z" fill="white"/>
<path d="M889.264 22.368C889.264 10.0145 899.279 0 911.632 0V0C923.986 0 934 10.0145 934 22.368V193.168C934 205.521 923.986 215.536 911.632 215.536V215.536C899.279 215.536 889.264 205.521 889.264 193.168V22.368Z" fill="white"/>
<path d="M880.056 289.217V278.017H881.304V288.001H886.68V289.217H880.056ZM892.006 289.377C891.174 289.377 890.433 289.196 889.782 288.833C889.142 288.471 888.641 287.964 888.278 287.313C887.915 286.663 887.734 285.916 887.734 285.073C887.734 284.423 887.835 283.836 888.038 283.313C888.241 282.78 888.523 282.316 888.886 281.921C889.259 281.527 889.702 281.223 890.214 281.009C890.726 280.785 891.281 280.673 891.878 280.673C892.443 280.673 892.955 280.775 893.414 280.977C893.883 281.18 894.283 281.463 894.614 281.825C894.955 282.177 895.211 282.599 895.382 283.089C895.553 283.58 895.627 284.119 895.606 284.705L895.59 285.265H888.63L888.454 284.257H894.678L894.39 284.529V284.145C894.369 283.761 894.257 283.393 894.054 283.041C893.851 282.679 893.563 282.385 893.19 282.161C892.827 281.937 892.39 281.825 891.878 281.825C891.281 281.825 890.763 281.948 890.326 282.193C889.889 282.428 889.553 282.78 889.318 283.249C889.083 283.719 888.966 284.3 888.966 284.993C888.966 285.655 889.094 286.231 889.35 286.721C889.606 287.201 889.969 287.575 890.438 287.841C890.918 288.108 891.494 288.241 892.166 288.241C892.561 288.241 892.95 288.177 893.334 288.049C893.729 287.911 894.161 287.644 894.63 287.249L895.254 288.113C895.009 288.359 894.715 288.577 894.374 288.769C894.033 288.951 893.659 289.1 893.254 289.217C892.849 289.324 892.433 289.377 892.006 289.377ZM900.832 292.897C900.214 292.897 899.627 292.801 899.072 292.609C898.518 292.417 898.059 292.177 897.696 291.889L898.176 290.881C898.39 291.052 898.635 291.201 898.912 291.329C899.2 291.468 899.51 291.575 899.84 291.649C900.171 291.735 900.507 291.777 900.848 291.777C901.467 291.777 901.99 291.66 902.416 291.425C902.854 291.201 903.184 290.865 903.408 290.417C903.643 289.969 903.76 289.415 903.76 288.753V287.153L903.952 287.105C903.856 287.511 903.648 287.889 903.328 288.241C903.008 288.583 902.619 288.86 902.16 289.073C901.702 289.276 901.216 289.377 900.704 289.377C899.926 289.377 899.227 289.191 898.608 288.817C898 288.444 897.52 287.932 897.168 287.281C896.816 286.62 896.64 285.873 896.64 285.041C896.64 284.199 896.816 283.452 897.168 282.801C897.531 282.14 898.016 281.623 898.624 281.249C899.232 280.876 899.915 280.689 900.672 280.689C901.003 280.689 901.323 280.732 901.632 280.817C901.942 280.892 902.224 281.004 902.48 281.153C902.747 281.303 902.987 281.473 903.2 281.665C903.414 281.857 903.59 282.065 903.728 282.289C903.878 282.513 903.984 282.743 904.048 282.977L903.712 282.929L903.76 280.865H904.96V288.705C904.96 289.377 904.864 289.969 904.672 290.481C904.48 291.004 904.198 291.441 903.824 291.793C903.462 292.156 903.024 292.428 902.512 292.609C902.011 292.801 901.451 292.897 900.832 292.897ZM900.848 288.225C901.414 288.225 901.915 288.092 902.352 287.825C902.8 287.548 903.152 287.169 903.408 286.689C903.664 286.209 903.792 285.655 903.792 285.025C903.792 284.407 903.664 283.857 903.408 283.377C903.163 282.897 902.816 282.519 902.368 282.241C901.92 281.964 901.414 281.825 900.848 281.825C900.272 281.825 899.76 281.964 899.312 282.241C898.875 282.519 898.528 282.897 898.272 283.377C898.016 283.857 897.888 284.407 897.888 285.025C897.888 285.633 898.011 286.183 898.256 286.673C898.512 287.153 898.859 287.532 899.296 287.809C899.744 288.087 900.262 288.225 900.848 288.225ZM910.975 289.377C910.143 289.377 909.401 289.196 908.751 288.833C908.111 288.471 907.609 287.964 907.247 287.313C906.884 286.663 906.703 285.916 906.703 285.073C906.703 284.423 906.804 283.836 907.007 283.313C907.209 282.78 907.492 282.316 907.855 281.921C908.228 281.527 908.671 281.223 909.183 281.009C909.695 280.785 910.249 280.673 910.847 280.673C911.412 280.673 911.924 280.775 912.383 280.977C912.852 281.18 913.252 281.463 913.583 281.825C913.924 282.177 914.18 282.599 914.351 283.089C914.521 283.58 914.596 284.119 914.575 284.705L914.559 285.265H907.599L907.423 284.257H913.647L913.359 284.529V284.145C913.337 283.761 913.225 283.393 913.023 283.041C912.82 282.679 912.532 282.385 912.159 282.161C911.796 281.937 911.359 281.825 910.847 281.825C910.249 281.825 909.732 281.948 909.295 282.193C908.857 282.428 908.521 282.78 908.287 283.249C908.052 283.719 907.935 284.3 907.935 284.993C907.935 285.655 908.063 286.231 908.319 286.721C908.575 287.201 908.937 287.575 909.407 287.841C909.887 288.108 910.463 288.241 911.135 288.241C911.529 288.241 911.919 288.177 912.303 288.049C912.697 287.911 913.129 287.644 913.599 287.249L914.223 288.113C913.977 288.359 913.684 288.577 913.343 288.769C913.001 288.951 912.628 289.1 912.223 289.217C911.817 289.324 911.401 289.377 910.975 289.377ZM916.279 289.217V280.865H917.463L917.511 282.609L917.319 282.689C917.426 282.327 917.634 281.996 917.943 281.697C918.252 281.399 918.62 281.159 919.047 280.977C919.484 280.785 919.932 280.689 920.391 280.689C921.01 280.689 921.527 280.812 921.943 281.057C922.359 281.303 922.674 281.681 922.887 282.193C923.1 282.705 923.207 283.356 923.207 284.145V289.217H921.991V284.209C921.991 283.655 921.916 283.201 921.767 282.849C921.628 282.487 921.41 282.22 921.111 282.049C920.812 281.879 920.444 281.799 920.007 281.809C919.644 281.809 919.308 281.873 918.999 282.001C918.69 282.119 918.423 282.284 918.199 282.497C917.975 282.711 917.799 282.956 917.671 283.233C917.543 283.511 917.479 283.809 917.479 284.129V289.217H916.887C916.812 289.217 916.727 289.217 916.631 289.217C916.535 289.217 916.418 289.217 916.279 289.217ZM928.89 289.377C928.133 289.377 927.45 289.191 926.842 288.817C926.245 288.444 925.77 287.932 925.418 287.281C925.077 286.62 924.906 285.873 924.906 285.041C924.906 284.199 925.082 283.452 925.434 282.801C925.786 282.14 926.261 281.623 926.858 281.249C927.455 280.876 928.127 280.689 928.874 280.689C929.29 280.689 929.69 280.753 930.074 280.881C930.469 281.009 930.821 281.191 931.13 281.425C931.439 281.649 931.695 281.911 931.898 282.209C932.101 282.497 932.223 282.801 932.266 283.121L931.898 282.993V277.377H933.098V289.217H931.914L931.882 287.137L932.186 287.025C932.143 287.324 932.021 287.617 931.818 287.905C931.626 288.183 931.381 288.433 931.082 288.657C930.783 288.881 930.442 289.057 930.058 289.185C929.685 289.313 929.295 289.377 928.89 289.377ZM929.066 288.273C929.621 288.273 930.117 288.135 930.554 287.857C930.991 287.58 931.333 287.196 931.578 286.705C931.834 286.215 931.962 285.655 931.962 285.025C931.962 284.396 931.834 283.841 931.578 283.361C931.333 282.871 930.991 282.487 930.554 282.209C930.117 281.921 929.621 281.777 929.066 281.777C928.49 281.777 927.983 281.921 927.546 282.209C927.119 282.487 926.778 282.871 926.522 283.361C926.277 283.841 926.154 284.396 926.154 285.025C926.154 285.644 926.277 286.199 926.522 286.689C926.767 287.18 927.109 287.569 927.546 287.857C927.983 288.135 928.49 288.273 929.066 288.273Z" fill="black"/>
<path d="M34 144.059C34 144.059 72.7976 171.877 96.5324 166.725C126.184 160.288 121.881 107.359 151.803 102.59C187.347 96.9243 196.577 183.384 229.877 168.21C248.58 159.689 244.766 130.578 263.144 121.134C295.001 104.763 312.405 177.885 346.305 168.487C374.309 160.724 367.878 106.429 396 99.2229C420.069 93.0553 435.367 107.29 441.413 110.804C447.458 114.318 483.554 138.961 511.2 133.372C545.739 126.39 541.7 73.432 576.522 68.1155C617.886 61.8002 627.037 148.268 665.969 132.466C687.834 123.592 683.934 94.4908 705.439 84.6974C742.717 67.7211 761.597 140.679 801.121 130.653C833.769 122.371 827.287 68.0822 860.063 60.3564C888.115 53.7441 900.115 73.1419 934 79.0936" stroke="#FF8820" stroke-width="4" stroke-linecap="round"/>
</svg>
