<?xml version="1.0" encoding="UTF-8" standalone="no"?><svg xmlns="http://www.w3.org/2000/svg" xmlns:xlink="http://www.w3.org/1999/xlink" contentStyleType="text/css" height="883px" preserveAspectRatio="none" style="width:2118px;height:883px;background:#FFFFFF;" version="1.1" viewBox="0 0 2118 883" width="2118px" zoomAndPan="magnify"><defs/><g><!--MD5=[abd491df3bb22b53228b5d72307d757b]
class MarkdownRenderer--><g id="elem_MarkdownRenderer"><rect codeLine="1" fill="#F1F1F1" height="48" id="MarkdownRenderer" rx="2.5" ry="2.5" style="stroke:#181818;stroke-width:0.5;" width="172" x="1405" y="347"/><ellipse cx="1420" cy="363" fill="#ADD1B2" rx="11" ry="11" style="stroke:#181818;stroke-width:1.0;"/><path d="M1422.3438,358.6719 C1421.4063,358.2344 1420.8125,358.0938 1419.9375,358.0938 C1417.3125,358.0938 1415.3125,360.1719 1415.3125,362.8906 L1415.3125,364.0156 C1415.3125,366.5938 1417.4219,368.4844 1420.3125,368.4844 C1421.5313,368.4844 1422.6875,368.1875 1423.4375,367.6406 C1424.0156,367.2344 1424.3438,366.7813 1424.3438,366.3906 C1424.3438,365.9375 1423.9531,365.5469 1423.4844,365.5469 C1423.2656,365.5469 1423.0625,365.625 1422.875,365.8125 C1422.4219,366.2969 1422.4219,366.2969 1422.2344,366.3906 C1421.8125,366.6563 1421.125,366.7813 1420.3594,366.7813 C1418.3125,366.7813 1417.0156,365.6875 1417.0156,363.9844 L1417.0156,362.8906 C1417.0156,361.1094 1418.2656,359.7969 1420,359.7969 C1420.5781,359.7969 1421.1875,359.9531 1421.6563,360.2031 C1422.1406,360.4844 1422.3125,360.7031 1422.4063,361.1094 C1422.4688,361.5156 1422.5,361.6406 1422.6406,361.7656 C1422.7813,361.9063 1423.0156,362.0156 1423.2344,362.0156 C1423.5,362.0156 1423.7656,361.875 1423.9375,361.6563 C1424.0469,361.5 1424.0781,361.3125 1424.0781,360.8906 L1424.0781,359.4688 C1424.0781,359.0313 1424.0625,358.9063 1423.9688,358.75 C1423.8125,358.4844 1423.5313,358.3438 1423.2344,358.3438 C1422.9375,358.3438 1422.7344,358.4375 1422.5156,358.75 L1422.3438,358.6719 Z " fill="#000000"/><text fill="#000000" font-family="sans-serif" font-size="14" lengthAdjust="spacing" textLength="140" x="1434" y="367.8467">MarkdownRenderer</text><line style="stroke:#181818;stroke-width:0.5;" x1="1406" x2="1576" y1="379" y2="379"/><line style="stroke:#181818;stroke-width:0.5;" x1="1406" x2="1576" y1="387" y2="387"/></g><!--MD5=[56b7372ce0ccb68ceee3d01f0640b2ea]
class FileParser--><g id="elem_FileParser"><rect codeLine="3" fill="#F1F1F1" height="64.2969" id="FileParser" rx="2.5" ry="2.5" style="stroke:#181818;stroke-width:0.5;" width="223" x="1499.5" y="115"/><ellipse cx="1571.75" cy="131" fill="#B4A7E5" rx="11" ry="11" style="stroke:#181818;stroke-width:1.0;"/><path d="M1572.7031,127.7813 L1574.4219,127.7813 C1574.8125,127.7813 1575,127.75 1575.125,127.6719 C1575.3906,127.5156 1575.5313,127.2344 1575.5313,126.9375 C1575.5313,126.6719 1575.4219,126.4063 1575.1875,126.2344 C1575.0156,126.125 1574.875,126.0938 1574.4219,126.0938 L1569.2813,126.0938 C1568.8438,126.0938 1568.7188,126.1094 1568.5625,126.2031 C1568.3125,126.3594 1568.1563,126.6563 1568.1563,126.9375 C1568.1563,127.2188 1568.2969,127.4688 1568.5156,127.6406 C1568.6719,127.75 1568.8594,127.7813 1569.2813,127.7813 L1571,127.7813 L1571,134.2969 L1569.2813,134.2969 C1568.8438,134.2969 1568.7188,134.3125 1568.5625,134.4219 C1568.3125,134.5781 1568.1563,134.8594 1568.1563,135.1563 C1568.1563,135.4063 1568.2969,135.6719 1568.5156,135.8281 C1568.6719,135.9531 1568.875,136 1569.2813,136 L1574.4219,136 C1575.1719,136 1575.5313,135.7188 1575.5313,135.1563 C1575.5313,134.875 1575.4219,134.625 1575.1875,134.4531 C1575.0156,134.3281 1574.875,134.2969 1574.4219,134.2969 L1572.7031,134.2969 L1572.7031,127.7813 Z " fill="#000000"/><text fill="#000000" font-family="sans-serif" font-size="14" font-style="italic" lengthAdjust="spacing" textLength="70" x="1592.25" y="135.8467">FileParser</text><line style="stroke:#181818;stroke-width:0.5;" x1="1500.5" x2="1721.5" y1="147" y2="147"/><line style="stroke:#181818;stroke-width:0.5;" x1="1500.5" x2="1721.5" y1="155" y2="155"/><text fill="#000000" font-family="sans-serif" font-size="14" lengthAdjust="spacing" textLength="211" x="1505.5" y="171.9951">async parse(file: string) : void</text></g><!--MD5=[def6869aaeb0fb49d439e64d8fa8467b]
class CompositeFileParser--><g id="elem_CompositeFileParser"><rect codeLine="6" fill="#F1F1F1" height="48" id="CompositeFileParser" rx="2.5" ry="2.5" style="stroke:#181818;stroke-width:0.5;" width="181" x="1520.5" y="7"/><ellipse cx="1535.5" cy="23" fill="#ADD1B2" rx="11" ry="11" style="stroke:#181818;stroke-width:1.0;"/><path d="M1537.8438,18.6719 C1536.9063,18.2344 1536.3125,18.0938 1535.4375,18.0938 C1532.8125,18.0938 1530.8125,20.1719 1530.8125,22.8906 L1530.8125,24.0156 C1530.8125,26.5938 1532.9219,28.4844 1535.8125,28.4844 C1537.0313,28.4844 1538.1875,28.1875 1538.9375,27.6406 C1539.5156,27.2344 1539.8438,26.7813 1539.8438,26.3906 C1539.8438,25.9375 1539.4531,25.5469 1538.9844,25.5469 C1538.7656,25.5469 1538.5625,25.625 1538.375,25.8125 C1537.9219,26.2969 1537.9219,26.2969 1537.7344,26.3906 C1537.3125,26.6563 1536.625,26.7813 1535.8594,26.7813 C1533.8125,26.7813 1532.5156,25.6875 1532.5156,23.9844 L1532.5156,22.8906 C1532.5156,21.1094 1533.7656,19.7969 1535.5,19.7969 C1536.0781,19.7969 1536.6875,19.9531 1537.1563,20.2031 C1537.6406,20.4844 1537.8125,20.7031 1537.9063,21.1094 C1537.9688,21.5156 1538,21.6406 1538.1406,21.7656 C1538.2813,21.9063 1538.5156,22.0156 1538.7344,22.0156 C1539,22.0156 1539.2656,21.875 1539.4375,21.6563 C1539.5469,21.5 1539.5781,21.3125 1539.5781,20.8906 L1539.5781,19.4688 C1539.5781,19.0313 1539.5625,18.9063 1539.4688,18.75 C1539.3125,18.4844 1539.0313,18.3438 1538.7344,18.3438 C1538.4375,18.3438 1538.2344,18.4375 1538.0156,18.75 L1537.8438,18.6719 Z " fill="#000000"/><text fill="#000000" font-family="sans-serif" font-size="14" lengthAdjust="spacing" textLength="149" x="1549.5" y="27.8467">CompositeFileParser</text><line style="stroke:#181818;stroke-width:0.5;" x1="1521.5" x2="1700.5" y1="39" y2="39"/><line style="stroke:#181818;stroke-width:0.5;" x1="1521.5" x2="1700.5" y1="47" y2="47"/></g><!--MD5=[1f6f53475f18951c7618cb083a77b293]
class DrawIOFileParser--><g id="elem_DrawIOFileParser"><rect codeLine="7" fill="#F1F1F1" height="48" id="DrawIOFileParser" rx="2.5" ry="2.5" style="stroke:#181818;stroke-width:0.5;" width="153" x="1215.5" y="239"/><ellipse cx="1230.5" cy="255" fill="#ADD1B2" rx="11" ry="11" style="stroke:#181818;stroke-width:1.0;"/><path d="M1232.8438,250.6719 C1231.9063,250.2344 1231.3125,250.0938 1230.4375,250.0938 C1227.8125,250.0938 1225.8125,252.1719 1225.8125,254.8906 L1225.8125,256.0156 C1225.8125,258.5938 1227.9219,260.4844 1230.8125,260.4844 C1232.0313,260.4844 1233.1875,260.1875 1233.9375,259.6406 C1234.5156,259.2344 1234.8438,258.7813 1234.8438,258.3906 C1234.8438,257.9375 1234.4531,257.5469 1233.9844,257.5469 C1233.7656,257.5469 1233.5625,257.625 1233.375,257.8125 C1232.9219,258.2969 1232.9219,258.2969 1232.7344,258.3906 C1232.3125,258.6563 1231.625,258.7813 1230.8594,258.7813 C1228.8125,258.7813 1227.5156,257.6875 1227.5156,255.9844 L1227.5156,254.8906 C1227.5156,253.1094 1228.7656,251.7969 1230.5,251.7969 C1231.0781,251.7969 1231.6875,251.9531 1232.1563,252.2031 C1232.6406,252.4844 1232.8125,252.7031 1232.9063,253.1094 C1232.9688,253.5156 1233,253.6406 1233.1406,253.7656 C1233.2813,253.9063 1233.5156,254.0156 1233.7344,254.0156 C1234,254.0156 1234.2656,253.875 1234.4375,253.6563 C1234.5469,253.5 1234.5781,253.3125 1234.5781,252.8906 L1234.5781,251.4688 C1234.5781,251.0313 1234.5625,250.9063 1234.4688,250.75 C1234.3125,250.4844 1234.0313,250.3438 1233.7344,250.3438 C1233.4375,250.3438 1233.2344,250.4375 1233.0156,250.75 L1232.8438,250.6719 Z " fill="#000000"/><text fill="#000000" font-family="sans-serif" font-size="14" lengthAdjust="spacing" textLength="121" x="1244.5" y="259.8467">DrawIOFileParser</text><line style="stroke:#181818;stroke-width:0.5;" x1="1216.5" x2="1367.5" y1="271" y2="271"/><line style="stroke:#181818;stroke-width:0.5;" x1="1216.5" x2="1367.5" y1="279" y2="279"/></g><!--MD5=[afd31ea00285bd99570d67e5c0ae3f31]
class MarkdownFileParser--><g id="elem_MarkdownFileParser"><rect codeLine="8" fill="#F1F1F1" height="48" id="MarkdownFileParser" rx="2.5" ry="2.5" style="stroke:#181818;stroke-width:0.5;" width="175" x="1403.5" y="239"/><ellipse cx="1418.5" cy="255" fill="#ADD1B2" rx="11" ry="11" style="stroke:#181818;stroke-width:1.0;"/><path d="M1420.8438,250.6719 C1419.9063,250.2344 1419.3125,250.0938 1418.4375,250.0938 C1415.8125,250.0938 1413.8125,252.1719 1413.8125,254.8906 L1413.8125,256.0156 C1413.8125,258.5938 1415.9219,260.4844 1418.8125,260.4844 C1420.0313,260.4844 1421.1875,260.1875 1421.9375,259.6406 C1422.5156,259.2344 1422.8438,258.7813 1422.8438,258.3906 C1422.8438,257.9375 1422.4531,257.5469 1421.9844,257.5469 C1421.7656,257.5469 1421.5625,257.625 1421.375,257.8125 C1420.9219,258.2969 1420.9219,258.2969 1420.7344,258.3906 C1420.3125,258.6563 1419.625,258.7813 1418.8594,258.7813 C1416.8125,258.7813 1415.5156,257.6875 1415.5156,255.9844 L1415.5156,254.8906 C1415.5156,253.1094 1416.7656,251.7969 1418.5,251.7969 C1419.0781,251.7969 1419.6875,251.9531 1420.1563,252.2031 C1420.6406,252.4844 1420.8125,252.7031 1420.9063,253.1094 C1420.9688,253.5156 1421,253.6406 1421.1406,253.7656 C1421.2813,253.9063 1421.5156,254.0156 1421.7344,254.0156 C1422,254.0156 1422.2656,253.875 1422.4375,253.6563 C1422.5469,253.5 1422.5781,253.3125 1422.5781,252.8906 L1422.5781,251.4688 C1422.5781,251.0313 1422.5625,250.9063 1422.4688,250.75 C1422.3125,250.4844 1422.0313,250.3438 1421.7344,250.3438 C1421.4375,250.3438 1421.2344,250.4375 1421.0156,250.75 L1420.8438,250.6719 Z " fill="#000000"/><text fill="#000000" font-family="sans-serif" font-size="14" lengthAdjust="spacing" textLength="143" x="1432.5" y="259.8467">MarkdownFileParser</text><line style="stroke:#181818;stroke-width:0.5;" x1="1404.5" x2="1577.5" y1="271" y2="271"/><line style="stroke:#181818;stroke-width:0.5;" x1="1404.5" x2="1577.5" y1="279" y2="279"/></g><!--MD5=[fc9c20345da2dd2a4efd5a86b77cc139]
class MarkdownMessageFileParser--><g id="elem_MarkdownMessageFileParser"><rect codeLine="9" fill="#F1F1F1" height="48" id="MarkdownMessageFileParser" rx="2.5" ry="2.5" style="stroke:#181818;stroke-width:0.5;" width="236" x="1614" y="239"/><ellipse cx="1629" cy="255" fill="#ADD1B2" rx="11" ry="11" style="stroke:#181818;stroke-width:1.0;"/><path d="M1631.3438,250.6719 C1630.4063,250.2344 1629.8125,250.0938 1628.9375,250.0938 C1626.3125,250.0938 1624.3125,252.1719 1624.3125,254.8906 L1624.3125,256.0156 C1624.3125,258.5938 1626.4219,260.4844 1629.3125,260.4844 C1630.5313,260.4844 1631.6875,260.1875 1632.4375,259.6406 C1633.0156,259.2344 1633.3438,258.7813 1633.3438,258.3906 C1633.3438,257.9375 1632.9531,257.5469 1632.4844,257.5469 C1632.2656,257.5469 1632.0625,257.625 1631.875,257.8125 C1631.4219,258.2969 1631.4219,258.2969 1631.2344,258.3906 C1630.8125,258.6563 1630.125,258.7813 1629.3594,258.7813 C1627.3125,258.7813 1626.0156,257.6875 1626.0156,255.9844 L1626.0156,254.8906 C1626.0156,253.1094 1627.2656,251.7969 1629,251.7969 C1629.5781,251.7969 1630.1875,251.9531 1630.6563,252.2031 C1631.1406,252.4844 1631.3125,252.7031 1631.4063,253.1094 C1631.4688,253.5156 1631.5,253.6406 1631.6406,253.7656 C1631.7813,253.9063 1632.0156,254.0156 1632.2344,254.0156 C1632.5,254.0156 1632.7656,253.875 1632.9375,253.6563 C1633.0469,253.5 1633.0781,253.3125 1633.0781,252.8906 L1633.0781,251.4688 C1633.0781,251.0313 1633.0625,250.9063 1632.9688,250.75 C1632.8125,250.4844 1632.5313,250.3438 1632.2344,250.3438 C1631.9375,250.3438 1631.7344,250.4375 1631.5156,250.75 L1631.3438,250.6719 Z " fill="#000000"/><text fill="#000000" font-family="sans-serif" font-size="14" lengthAdjust="spacing" textLength="204" x="1643" y="259.8467">MarkdownMessageFileParser</text><line style="stroke:#181818;stroke-width:0.5;" x1="1615" x2="1849" y1="271" y2="271"/><line style="stroke:#181818;stroke-width:0.5;" x1="1615" x2="1849" y1="279" y2="279"/></g><!--MD5=[f478228a8077e6cfbd1d096b26e2b504]
class UMLFileParser--><g id="elem_UMLFileParser"><rect codeLine="10" fill="#F1F1F1" height="48" id="UMLFileParser" rx="2.5" ry="2.5" style="stroke:#181818;stroke-width:0.5;" width="131" x="1885.5" y="239"/><ellipse cx="1900.5" cy="255" fill="#ADD1B2" rx="11" ry="11" style="stroke:#181818;stroke-width:1.0;"/><path d="M1902.8438,250.6719 C1901.9063,250.2344 1901.3125,250.0938 1900.4375,250.0938 C1897.8125,250.0938 1895.8125,252.1719 1895.8125,254.8906 L1895.8125,256.0156 C1895.8125,258.5938 1897.9219,260.4844 1900.8125,260.4844 C1902.0313,260.4844 1903.1875,260.1875 1903.9375,259.6406 C1904.5156,259.2344 1904.8438,258.7813 1904.8438,258.3906 C1904.8438,257.9375 1904.4531,257.5469 1903.9844,257.5469 C1903.7656,257.5469 1903.5625,257.625 1903.375,257.8125 C1902.9219,258.2969 1902.9219,258.2969 1902.7344,258.3906 C1902.3125,258.6563 1901.625,258.7813 1900.8594,258.7813 C1898.8125,258.7813 1897.5156,257.6875 1897.5156,255.9844 L1897.5156,254.8906 C1897.5156,253.1094 1898.7656,251.7969 1900.5,251.7969 C1901.0781,251.7969 1901.6875,251.9531 1902.1563,252.2031 C1902.6406,252.4844 1902.8125,252.7031 1902.9063,253.1094 C1902.9688,253.5156 1903,253.6406 1903.1406,253.7656 C1903.2813,253.9063 1903.5156,254.0156 1903.7344,254.0156 C1904,254.0156 1904.2656,253.875 1904.4375,253.6563 C1904.5469,253.5 1904.5781,253.3125 1904.5781,252.8906 L1904.5781,251.4688 C1904.5781,251.0313 1904.5625,250.9063 1904.4688,250.75 C1904.3125,250.4844 1904.0313,250.3438 1903.7344,250.3438 C1903.4375,250.3438 1903.2344,250.4375 1903.0156,250.75 L1902.8438,250.6719 Z " fill="#000000"/><text fill="#000000" font-family="sans-serif" font-size="14" lengthAdjust="spacing" textLength="99" x="1914.5" y="259.8467">UMLFileParser</text><line style="stroke:#181818;stroke-width:0.5;" x1="1886.5" x2="2015.5" y1="271" y2="271"/><line style="stroke:#181818;stroke-width:0.5;" x1="1886.5" x2="2015.5" y1="279" y2="279"/></g><!--MD5=[582af922c2f56e5a287f08772095ebe6]
class HtmlParser--><g id="elem_HtmlParser"><rect codeLine="12" fill="#F1F1F1" height="64.2969" id="HtmlParser" rx="2.5" ry="2.5" style="stroke:#181818;stroke-width:0.5;" width="280" x="1351" y="455"/><ellipse cx="1447.25" cy="471" fill="#B4A7E5" rx="11" ry="11" style="stroke:#181818;stroke-width:1.0;"/><path d="M1448.2031,467.7813 L1449.9219,467.7813 C1450.3125,467.7813 1450.5,467.75 1450.625,467.6719 C1450.8906,467.5156 1451.0313,467.2344 1451.0313,466.9375 C1451.0313,466.6719 1450.9219,466.4063 1450.6875,466.2344 C1450.5156,466.125 1450.375,466.0938 1449.9219,466.0938 L1444.7813,466.0938 C1444.3438,466.0938 1444.2188,466.1094 1444.0625,466.2031 C1443.8125,466.3594 1443.6563,466.6563 1443.6563,466.9375 C1443.6563,467.2188 1443.7969,467.4688 1444.0156,467.6406 C1444.1719,467.75 1444.3594,467.7813 1444.7813,467.7813 L1446.5,467.7813 L1446.5,474.2969 L1444.7813,474.2969 C1444.3438,474.2969 1444.2188,474.3125 1444.0625,474.4219 C1443.8125,474.5781 1443.6563,474.8594 1443.6563,475.1563 C1443.6563,475.4063 1443.7969,475.6719 1444.0156,475.8281 C1444.1719,475.9531 1444.375,476 1444.7813,476 L1449.9219,476 C1450.6719,476 1451.0313,475.7188 1451.0313,475.1563 C1451.0313,474.875 1450.9219,474.625 1450.6875,474.4531 C1450.5156,474.3281 1450.375,474.2969 1449.9219,474.2969 L1448.2031,474.2969 L1448.2031,467.7813 Z " fill="#000000"/><text fill="#000000" font-family="sans-serif" font-size="14" font-style="italic" lengthAdjust="spacing" textLength="79" x="1467.75" y="475.8467">HtmlParser</text><line style="stroke:#181818;stroke-width:0.5;" x1="1352" x2="1630" y1="487" y2="487"/><line style="stroke:#181818;stroke-width:0.5;" x1="1352" x2="1630" y1="495" y2="495"/><text fill="#000000" font-family="sans-serif" font-size="14" lengthAdjust="spacing" textLength="268" x="1357" y="511.9951">async parse(element: Element) : void</text></g><!--MD5=[c254b7500f5cef0325dd99a2fc484bd7]
class AnchorHtmlParser--><g id="elem_AnchorHtmlParser"><rect codeLine="15" fill="#F1F1F1" height="48" id="AnchorHtmlParser" rx="2.5" ry="2.5" style="stroke:#181818;stroke-width:0.5;" width="163" x="888.5" y="579"/><ellipse cx="903.5" cy="595" fill="#ADD1B2" rx="11" ry="11" style="stroke:#181818;stroke-width:1.0;"/><path d="M905.8438,590.6719 C904.9063,590.2344 904.3125,590.0938 903.4375,590.0938 C900.8125,590.0938 898.8125,592.1719 898.8125,594.8906 L898.8125,596.0156 C898.8125,598.5938 900.9219,600.4844 903.8125,600.4844 C905.0313,600.4844 906.1875,600.1875 906.9375,599.6406 C907.5156,599.2344 907.8438,598.7813 907.8438,598.3906 C907.8438,597.9375 907.4531,597.5469 906.9844,597.5469 C906.7656,597.5469 906.5625,597.625 906.375,597.8125 C905.9219,598.2969 905.9219,598.2969 905.7344,598.3906 C905.3125,598.6563 904.625,598.7813 903.8594,598.7813 C901.8125,598.7813 900.5156,597.6875 900.5156,595.9844 L900.5156,594.8906 C900.5156,593.1094 901.7656,591.7969 903.5,591.7969 C904.0781,591.7969 904.6875,591.9531 905.1563,592.2031 C905.6406,592.4844 905.8125,592.7031 905.9063,593.1094 C905.9688,593.5156 906,593.6406 906.1406,593.7656 C906.2813,593.9063 906.5156,594.0156 906.7344,594.0156 C907,594.0156 907.2656,593.875 907.4375,593.6563 C907.5469,593.5 907.5781,593.3125 907.5781,592.8906 L907.5781,591.4688 C907.5781,591.0313 907.5625,590.9063 907.4688,590.75 C907.3125,590.4844 907.0313,590.3438 906.7344,590.3438 C906.4375,590.3438 906.2344,590.4375 906.0156,590.75 L905.8438,590.6719 Z " fill="#000000"/><text fill="#000000" font-family="sans-serif" font-size="14" lengthAdjust="spacing" textLength="131" x="917.5" y="599.8467">AnchorHtmlParser</text><line style="stroke:#181818;stroke-width:0.5;" x1="889.5" x2="1050.5" y1="611" y2="611"/><line style="stroke:#181818;stroke-width:0.5;" x1="889.5" x2="1050.5" y1="619" y2="619"/></g><!--MD5=[633302e4313c190beb6b60d00f8c9131]
class CleanUpHtmlParser--><g id="elem_CleanUpHtmlParser"><rect codeLine="16" fill="#F1F1F1" height="48" id="CleanUpHtmlParser" rx="2.5" ry="2.5" style="stroke:#181818;stroke-width:0.5;" width="171" x="1086.5" y="579"/><ellipse cx="1101.5" cy="595" fill="#ADD1B2" rx="11" ry="11" style="stroke:#181818;stroke-width:1.0;"/><path d="M1103.8438,590.6719 C1102.9063,590.2344 1102.3125,590.0938 1101.4375,590.0938 C1098.8125,590.0938 1096.8125,592.1719 1096.8125,594.8906 L1096.8125,596.0156 C1096.8125,598.5938 1098.9219,600.4844 1101.8125,600.4844 C1103.0313,600.4844 1104.1875,600.1875 1104.9375,599.6406 C1105.5156,599.2344 1105.8438,598.7813 1105.8438,598.3906 C1105.8438,597.9375 1105.4531,597.5469 1104.9844,597.5469 C1104.7656,597.5469 1104.5625,597.625 1104.375,597.8125 C1103.9219,598.2969 1103.9219,598.2969 1103.7344,598.3906 C1103.3125,598.6563 1102.625,598.7813 1101.8594,598.7813 C1099.8125,598.7813 1098.5156,597.6875 1098.5156,595.9844 L1098.5156,594.8906 C1098.5156,593.1094 1099.7656,591.7969 1101.5,591.7969 C1102.0781,591.7969 1102.6875,591.9531 1103.1563,592.2031 C1103.6406,592.4844 1103.8125,592.7031 1103.9063,593.1094 C1103.9688,593.5156 1104,593.6406 1104.1406,593.7656 C1104.2813,593.9063 1104.5156,594.0156 1104.7344,594.0156 C1105,594.0156 1105.2656,593.875 1105.4375,593.6563 C1105.5469,593.5 1105.5781,593.3125 1105.5781,592.8906 L1105.5781,591.4688 C1105.5781,591.0313 1105.5625,590.9063 1105.4688,590.75 C1105.3125,590.4844 1105.0313,590.3438 1104.7344,590.3438 C1104.4375,590.3438 1104.2344,590.4375 1104.0156,590.75 L1103.8438,590.6719 Z " fill="#000000"/><text fill="#000000" font-family="sans-serif" font-size="14" lengthAdjust="spacing" textLength="139" x="1115.5" y="599.8467">CleanUpHtmlParser</text><line style="stroke:#181818;stroke-width:0.5;" x1="1087.5" x2="1256.5" y1="611" y2="611"/><line style="stroke:#181818;stroke-width:0.5;" x1="1087.5" x2="1256.5" y1="619" y2="619"/></g><!--MD5=[1c69f80c29e67b39a2f9423b5d3d0804]
class FullscreenHtmlParser--><g id="elem_FullscreenHtmlParser"><rect codeLine="17" fill="#F1F1F1" height="48" id="FullscreenHtmlParser" rx="2.5" ry="2.5" style="stroke:#181818;stroke-width:0.5;" width="184" x="1293" y="579"/><ellipse cx="1308" cy="595" fill="#ADD1B2" rx="11" ry="11" style="stroke:#181818;stroke-width:1.0;"/><path d="M1310.3438,590.6719 C1309.4063,590.2344 1308.8125,590.0938 1307.9375,590.0938 C1305.3125,590.0938 1303.3125,592.1719 1303.3125,594.8906 L1303.3125,596.0156 C1303.3125,598.5938 1305.4219,600.4844 1308.3125,600.4844 C1309.5313,600.4844 1310.6875,600.1875 1311.4375,599.6406 C1312.0156,599.2344 1312.3438,598.7813 1312.3438,598.3906 C1312.3438,597.9375 1311.9531,597.5469 1311.4844,597.5469 C1311.2656,597.5469 1311.0625,597.625 1310.875,597.8125 C1310.4219,598.2969 1310.4219,598.2969 1310.2344,598.3906 C1309.8125,598.6563 1309.125,598.7813 1308.3594,598.7813 C1306.3125,598.7813 1305.0156,597.6875 1305.0156,595.9844 L1305.0156,594.8906 C1305.0156,593.1094 1306.2656,591.7969 1308,591.7969 C1308.5781,591.7969 1309.1875,591.9531 1309.6563,592.2031 C1310.1406,592.4844 1310.3125,592.7031 1310.4063,593.1094 C1310.4688,593.5156 1310.5,593.6406 1310.6406,593.7656 C1310.7813,593.9063 1311.0156,594.0156 1311.2344,594.0156 C1311.5,594.0156 1311.7656,593.875 1311.9375,593.6563 C1312.0469,593.5 1312.0781,593.3125 1312.0781,592.8906 L1312.0781,591.4688 C1312.0781,591.0313 1312.0625,590.9063 1311.9688,590.75 C1311.8125,590.4844 1311.5313,590.3438 1311.2344,590.3438 C1310.9375,590.3438 1310.7344,590.4375 1310.5156,590.75 L1310.3438,590.6719 Z " fill="#000000"/><text fill="#000000" font-family="sans-serif" font-size="14" lengthAdjust="spacing" textLength="152" x="1322" y="599.8467">FullscreenHtmlParser</text><line style="stroke:#181818;stroke-width:0.5;" x1="1294" x2="1476" y1="611" y2="611"/><line style="stroke:#181818;stroke-width:0.5;" x1="1294" x2="1476" y1="619" y2="619"/></g><!--MD5=[2d1fcd45c4c4c152e082682f66bf097f]
class HeadingHtmlParser--><g id="elem_HeadingHtmlParser"><rect codeLine="18" fill="#F1F1F1" height="48" id="HeadingHtmlParser" rx="2.5" ry="2.5" style="stroke:#181818;stroke-width:0.5;" width="170" x="1512" y="579"/><ellipse cx="1527" cy="595" fill="#ADD1B2" rx="11" ry="11" style="stroke:#181818;stroke-width:1.0;"/><path d="M1529.3438,590.6719 C1528.4063,590.2344 1527.8125,590.0938 1526.9375,590.0938 C1524.3125,590.0938 1522.3125,592.1719 1522.3125,594.8906 L1522.3125,596.0156 C1522.3125,598.5938 1524.4219,600.4844 1527.3125,600.4844 C1528.5313,600.4844 1529.6875,600.1875 1530.4375,599.6406 C1531.0156,599.2344 1531.3438,598.7813 1531.3438,598.3906 C1531.3438,597.9375 1530.9531,597.5469 1530.4844,597.5469 C1530.2656,597.5469 1530.0625,597.625 1529.875,597.8125 C1529.4219,598.2969 1529.4219,598.2969 1529.2344,598.3906 C1528.8125,598.6563 1528.125,598.7813 1527.3594,598.7813 C1525.3125,598.7813 1524.0156,597.6875 1524.0156,595.9844 L1524.0156,594.8906 C1524.0156,593.1094 1525.2656,591.7969 1527,591.7969 C1527.5781,591.7969 1528.1875,591.9531 1528.6563,592.2031 C1529.1406,592.4844 1529.3125,592.7031 1529.4063,593.1094 C1529.4688,593.5156 1529.5,593.6406 1529.6406,593.7656 C1529.7813,593.9063 1530.0156,594.0156 1530.2344,594.0156 C1530.5,594.0156 1530.7656,593.875 1530.9375,593.6563 C1531.0469,593.5 1531.0781,593.3125 1531.0781,592.8906 L1531.0781,591.4688 C1531.0781,591.0313 1531.0625,590.9063 1530.9688,590.75 C1530.8125,590.4844 1530.5313,590.3438 1530.2344,590.3438 C1529.9375,590.3438 1529.7344,590.4375 1529.5156,590.75 L1529.3438,590.6719 Z " fill="#000000"/><text fill="#000000" font-family="sans-serif" font-size="14" lengthAdjust="spacing" textLength="138" x="1541" y="599.8467">HeadingHtmlParser</text><line style="stroke:#181818;stroke-width:0.5;" x1="1513" x2="1681" y1="611" y2="611"/><line style="stroke:#181818;stroke-width:0.5;" x1="1513" x2="1681" y1="619" y2="619"/></g><!--MD5=[0d605e47ba495df9293d0763dc7f3e78]
class ImageHtmlParser--><g id="elem_ImageHtmlParser"><rect codeLine="19" fill="#F1F1F1" height="48" id="ImageHtmlParser" rx="2.5" ry="2.5" style="stroke:#181818;stroke-width:0.5;" width="156" x="1717" y="579"/><ellipse cx="1732" cy="595" fill="#ADD1B2" rx="11" ry="11" style="stroke:#181818;stroke-width:1.0;"/><path d="M1734.3438,590.6719 C1733.4063,590.2344 1732.8125,590.0938 1731.9375,590.0938 C1729.3125,590.0938 1727.3125,592.1719 1727.3125,594.8906 L1727.3125,596.0156 C1727.3125,598.5938 1729.4219,600.4844 1732.3125,600.4844 C1733.5313,600.4844 1734.6875,600.1875 1735.4375,599.6406 C1736.0156,599.2344 1736.3438,598.7813 1736.3438,598.3906 C1736.3438,597.9375 1735.9531,597.5469 1735.4844,597.5469 C1735.2656,597.5469 1735.0625,597.625 1734.875,597.8125 C1734.4219,598.2969 1734.4219,598.2969 1734.2344,598.3906 C1733.8125,598.6563 1733.125,598.7813 1732.3594,598.7813 C1730.3125,598.7813 1729.0156,597.6875 1729.0156,595.9844 L1729.0156,594.8906 C1729.0156,593.1094 1730.2656,591.7969 1732,591.7969 C1732.5781,591.7969 1733.1875,591.9531 1733.6563,592.2031 C1734.1406,592.4844 1734.3125,592.7031 1734.4063,593.1094 C1734.4688,593.5156 1734.5,593.6406 1734.6406,593.7656 C1734.7813,593.9063 1735.0156,594.0156 1735.2344,594.0156 C1735.5,594.0156 1735.7656,593.875 1735.9375,593.6563 C1736.0469,593.5 1736.0781,593.3125 1736.0781,592.8906 L1736.0781,591.4688 C1736.0781,591.0313 1736.0625,590.9063 1735.9688,590.75 C1735.8125,590.4844 1735.5313,590.3438 1735.2344,590.3438 C1734.9375,590.3438 1734.7344,590.4375 1734.5156,590.75 L1734.3438,590.6719 Z " fill="#000000"/><text fill="#000000" font-family="sans-serif" font-size="14" lengthAdjust="spacing" textLength="124" x="1746" y="599.8467">ImageHtmlParser</text><line style="stroke:#181818;stroke-width:0.5;" x1="1718" x2="1872" y1="611" y2="611"/><line style="stroke:#181818;stroke-width:0.5;" x1="1718" x2="1872" y1="619" y2="619"/></g><!--MD5=[46a802cf0304bdf95d24c985ba4cd8c2]
class UnsortedListHtmlParser--><g id="elem_UnsortedListHtmlParser"><rect codeLine="20" fill="#F1F1F1" height="48" id="UnsortedListHtmlParser" rx="2.5" ry="2.5" style="stroke:#181818;stroke-width:0.5;" width="203" x="1908.5" y="579"/><ellipse cx="1923.5" cy="595" fill="#ADD1B2" rx="11" ry="11" style="stroke:#181818;stroke-width:1.0;"/><path d="M1925.8438,590.6719 C1924.9063,590.2344 1924.3125,590.0938 1923.4375,590.0938 C1920.8125,590.0938 1918.8125,592.1719 1918.8125,594.8906 L1918.8125,596.0156 C1918.8125,598.5938 1920.9219,600.4844 1923.8125,600.4844 C1925.0313,600.4844 1926.1875,600.1875 1926.9375,599.6406 C1927.5156,599.2344 1927.8438,598.7813 1927.8438,598.3906 C1927.8438,597.9375 1927.4531,597.5469 1926.9844,597.5469 C1926.7656,597.5469 1926.5625,597.625 1926.375,597.8125 C1925.9219,598.2969 1925.9219,598.2969 1925.7344,598.3906 C1925.3125,598.6563 1924.625,598.7813 1923.8594,598.7813 C1921.8125,598.7813 1920.5156,597.6875 1920.5156,595.9844 L1920.5156,594.8906 C1920.5156,593.1094 1921.7656,591.7969 1923.5,591.7969 C1924.0781,591.7969 1924.6875,591.9531 1925.1563,592.2031 C1925.6406,592.4844 1925.8125,592.7031 1925.9063,593.1094 C1925.9688,593.5156 1926,593.6406 1926.1406,593.7656 C1926.2813,593.9063 1926.5156,594.0156 1926.7344,594.0156 C1927,594.0156 1927.2656,593.875 1927.4375,593.6563 C1927.5469,593.5 1927.5781,593.3125 1927.5781,592.8906 L1927.5781,591.4688 C1927.5781,591.0313 1927.5625,590.9063 1927.4688,590.75 C1927.3125,590.4844 1927.0313,590.3438 1926.7344,590.3438 C1926.4375,590.3438 1926.2344,590.4375 1926.0156,590.75 L1925.8438,590.6719 Z " fill="#000000"/><text fill="#000000" font-family="sans-serif" font-size="14" lengthAdjust="spacing" textLength="171" x="1937.5" y="599.8467">UnsortedListHtmlParser</text><line style="stroke:#181818;stroke-width:0.5;" x1="1909.5" x2="2110.5" y1="611" y2="611"/><line style="stroke:#181818;stroke-width:0.5;" x1="1909.5" x2="2110.5" y1="619" y2="619"/></g><!--MD5=[e0af6788fb8f8ab60e07e9864f9fcb66]
class AnchorParser--><g id="elem_AnchorParser"><rect codeLine="22" fill="#F1F1F1" height="80.5938" id="AnchorParser" rx="2.5" ry="2.5" style="stroke:#181818;stroke-width:0.5;" width="457" x="741.5" y="687"/><ellipse cx="917.75" cy="703" fill="#B4A7E5" rx="11" ry="11" style="stroke:#181818;stroke-width:1.0;"/><path d="M918.7031,699.7813 L920.4219,699.7813 C920.8125,699.7813 921,699.75 921.125,699.6719 C921.3906,699.5156 921.5313,699.2344 921.5313,698.9375 C921.5313,698.6719 921.4219,698.4063 921.1875,698.2344 C921.0156,698.125 920.875,698.0938 920.4219,698.0938 L915.2813,698.0938 C914.8438,698.0938 914.7188,698.1094 914.5625,698.2031 C914.3125,698.3594 914.1563,698.6563 914.1563,698.9375 C914.1563,699.2188 914.2969,699.4688 914.5156,699.6406 C914.6719,699.75 914.8594,699.7813 915.2813,699.7813 L917,699.7813 L917,706.2969 L915.2813,706.2969 C914.8438,706.2969 914.7188,706.3125 914.5625,706.4219 C914.3125,706.5781 914.1563,706.8594 914.1563,707.1563 C914.1563,707.4063 914.2969,707.6719 914.5156,707.8281 C914.6719,707.9531 914.875,708 915.2813,708 L920.4219,708 C921.1719,708 921.5313,707.7188 921.5313,707.1563 C921.5313,706.875 921.4219,706.625 921.1875,706.4531 C921.0156,706.3281 920.875,706.2969 920.4219,706.2969 L918.7031,706.2969 L918.7031,699.7813 Z " fill="#000000"/><text fill="#000000" font-family="sans-serif" font-size="14" font-style="italic" lengthAdjust="spacing" textLength="96" x="938.25" y="707.8467">AnchorParser</text><line style="stroke:#181818;stroke-width:0.5;" x1="742.5" x2="1197.5" y1="719" y2="719"/><line style="stroke:#181818;stroke-width:0.5;" x1="742.5" x2="1197.5" y1="727" y2="727"/><text fill="#000000" font-family="sans-serif" font-size="14" lengthAdjust="spacing" textLength="328" x="747.5" y="743.9951">canParse(anchor: HTMLAnchorElement) : bool</text><text fill="#000000" font-family="sans-serif" font-size="14" lengthAdjust="spacing" textLength="445" x="747.5" y="760.292">async parse(file: string, anchor: HTMLAnchorElement) : string;</text></g><!--MD5=[4738584733fbc1b5bc1a4c557d2d9dfe]
class AsyncapiAnchorParser--><g id="elem_AsyncapiAnchorParser"><rect codeLine="26" fill="#F1F1F1" height="48" id="AsyncapiAnchorParser" rx="2.5" ry="2.5" style="stroke:#181818;stroke-width:0.5;" width="192" x="7" y="828"/><ellipse cx="22" cy="844" fill="#ADD1B2" rx="11" ry="11" style="stroke:#181818;stroke-width:1.0;"/><path d="M24.3438,839.6719 C23.4063,839.2344 22.8125,839.0938 21.9375,839.0938 C19.3125,839.0938 17.3125,841.1719 17.3125,843.8906 L17.3125,845.0156 C17.3125,847.5938 19.4219,849.4844 22.3125,849.4844 C23.5313,849.4844 24.6875,849.1875 25.4375,848.6406 C26.0156,848.2344 26.3438,847.7813 26.3438,847.3906 C26.3438,846.9375 25.9531,846.5469 25.4844,846.5469 C25.2656,846.5469 25.0625,846.625 24.875,846.8125 C24.4219,847.2969 24.4219,847.2969 24.2344,847.3906 C23.8125,847.6563 23.125,847.7813 22.3594,847.7813 C20.3125,847.7813 19.0156,846.6875 19.0156,844.9844 L19.0156,843.8906 C19.0156,842.1094 20.2656,840.7969 22,840.7969 C22.5781,840.7969 23.1875,840.9531 23.6563,841.2031 C24.1406,841.4844 24.3125,841.7031 24.4063,842.1094 C24.4688,842.5156 24.5,842.6406 24.6406,842.7656 C24.7813,842.9063 25.0156,843.0156 25.2344,843.0156 C25.5,843.0156 25.7656,842.875 25.9375,842.6563 C26.0469,842.5 26.0781,842.3125 26.0781,841.8906 L26.0781,840.4688 C26.0781,840.0313 26.0625,839.9063 25.9688,839.75 C25.8125,839.4844 25.5313,839.3438 25.2344,839.3438 C24.9375,839.3438 24.7344,839.4375 24.5156,839.75 L24.3438,839.6719 Z " fill="#000000"/><text fill="#000000" font-family="sans-serif" font-size="14" lengthAdjust="spacing" textLength="160" x="36" y="848.8467">AsyncapiAnchorParser</text><line style="stroke:#181818;stroke-width:0.5;" x1="8" x2="198" y1="860" y2="860"/><line style="stroke:#181818;stroke-width:0.5;" x1="8" x2="198" y1="868" y2="868"/></g><!--MD5=[df05865009757c2c6001e321b6b8aff1]
class BPMNAnchorParser--><g id="elem_BPMNAnchorParser"><rect codeLine="27" fill="#F1F1F1" height="48" id="BPMNAnchorParser" rx="2.5" ry="2.5" style="stroke:#181818;stroke-width:0.5;" width="169" x="234.5" y="828"/><ellipse cx="249.5" cy="844" fill="#ADD1B2" rx="11" ry="11" style="stroke:#181818;stroke-width:1.0;"/><path d="M251.8438,839.6719 C250.9063,839.2344 250.3125,839.0938 249.4375,839.0938 C246.8125,839.0938 244.8125,841.1719 244.8125,843.8906 L244.8125,845.0156 C244.8125,847.5938 246.9219,849.4844 249.8125,849.4844 C251.0313,849.4844 252.1875,849.1875 252.9375,848.6406 C253.5156,848.2344 253.8438,847.7813 253.8438,847.3906 C253.8438,846.9375 253.4531,846.5469 252.9844,846.5469 C252.7656,846.5469 252.5625,846.625 252.375,846.8125 C251.9219,847.2969 251.9219,847.2969 251.7344,847.3906 C251.3125,847.6563 250.625,847.7813 249.8594,847.7813 C247.8125,847.7813 246.5156,846.6875 246.5156,844.9844 L246.5156,843.8906 C246.5156,842.1094 247.7656,840.7969 249.5,840.7969 C250.0781,840.7969 250.6875,840.9531 251.1563,841.2031 C251.6406,841.4844 251.8125,841.7031 251.9063,842.1094 C251.9688,842.5156 252,842.6406 252.1406,842.7656 C252.2813,842.9063 252.5156,843.0156 252.7344,843.0156 C253,843.0156 253.2656,842.875 253.4375,842.6563 C253.5469,842.5 253.5781,842.3125 253.5781,841.8906 L253.5781,840.4688 C253.5781,840.0313 253.5625,839.9063 253.4688,839.75 C253.3125,839.4844 253.0313,839.3438 252.7344,839.3438 C252.4375,839.3438 252.2344,839.4375 252.0156,839.75 L251.8438,839.6719 Z " fill="#000000"/><text fill="#000000" font-family="sans-serif" font-size="14" lengthAdjust="spacing" textLength="137" x="263.5" y="848.8467">BPMNAnchorParser</text><line style="stroke:#181818;stroke-width:0.5;" x1="235.5" x2="402.5" y1="860" y2="860"/><line style="stroke:#181818;stroke-width:0.5;" x1="235.5" x2="402.5" y1="868" y2="868"/></g><!--MD5=[999d69199391c453560fec7b53f2ebe3]
class CodeAnchorParser--><g id="elem_CodeAnchorParser"><rect codeLine="28" fill="#F1F1F1" height="48" id="CodeAnchorParser" rx="2.5" ry="2.5" style="stroke:#181818;stroke-width:0.5;" width="165" x="438.5" y="828"/><ellipse cx="453.5" cy="844" fill="#ADD1B2" rx="11" ry="11" style="stroke:#181818;stroke-width:1.0;"/><path d="M455.8438,839.6719 C454.9063,839.2344 454.3125,839.0938 453.4375,839.0938 C450.8125,839.0938 448.8125,841.1719 448.8125,843.8906 L448.8125,845.0156 C448.8125,847.5938 450.9219,849.4844 453.8125,849.4844 C455.0313,849.4844 456.1875,849.1875 456.9375,848.6406 C457.5156,848.2344 457.8438,847.7813 457.8438,847.3906 C457.8438,846.9375 457.4531,846.5469 456.9844,846.5469 C456.7656,846.5469 456.5625,846.625 456.375,846.8125 C455.9219,847.2969 455.9219,847.2969 455.7344,847.3906 C455.3125,847.6563 454.625,847.7813 453.8594,847.7813 C451.8125,847.7813 450.5156,846.6875 450.5156,844.9844 L450.5156,843.8906 C450.5156,842.1094 451.7656,840.7969 453.5,840.7969 C454.0781,840.7969 454.6875,840.9531 455.1563,841.2031 C455.6406,841.4844 455.8125,841.7031 455.9063,842.1094 C455.9688,842.5156 456,842.6406 456.1406,842.7656 C456.2813,842.9063 456.5156,843.0156 456.7344,843.0156 C457,843.0156 457.2656,842.875 457.4375,842.6563 C457.5469,842.5 457.5781,842.3125 457.5781,841.8906 L457.5781,840.4688 C457.5781,840.0313 457.5625,839.9063 457.4688,839.75 C457.3125,839.4844 457.0313,839.3438 456.7344,839.3438 C456.4375,839.3438 456.2344,839.4375 456.0156,839.75 L455.8438,839.6719 Z " fill="#000000"/><text fill="#000000" font-family="sans-serif" font-size="14" lengthAdjust="spacing" textLength="133" x="467.5" y="848.8467">CodeAnchorParser</text><line style="stroke:#181818;stroke-width:0.5;" x1="439.5" x2="602.5" y1="860" y2="860"/><line style="stroke:#181818;stroke-width:0.5;" x1="439.5" x2="602.5" y1="868" y2="868"/></g><!--MD5=[cc3734e1f3bdf7cd2741865dd38f44cb]
class DashboardAnchorParser--><g id="elem_DashboardAnchorParser"><rect codeLine="29" fill="#F1F1F1" height="48" id="DashboardAnchorParser" rx="2.5" ry="2.5" style="stroke:#181818;stroke-width:0.5;" width="205" x="638.5" y="828"/><ellipse cx="653.5" cy="844" fill="#ADD1B2" rx="11" ry="11" style="stroke:#181818;stroke-width:1.0;"/><path d="M655.8438,839.6719 C654.9063,839.2344 654.3125,839.0938 653.4375,839.0938 C650.8125,839.0938 648.8125,841.1719 648.8125,843.8906 L648.8125,845.0156 C648.8125,847.5938 650.9219,849.4844 653.8125,849.4844 C655.0313,849.4844 656.1875,849.1875 656.9375,848.6406 C657.5156,848.2344 657.8438,847.7813 657.8438,847.3906 C657.8438,846.9375 657.4531,846.5469 656.9844,846.5469 C656.7656,846.5469 656.5625,846.625 656.375,846.8125 C655.9219,847.2969 655.9219,847.2969 655.7344,847.3906 C655.3125,847.6563 654.625,847.7813 653.8594,847.7813 C651.8125,847.7813 650.5156,846.6875 650.5156,844.9844 L650.5156,843.8906 C650.5156,842.1094 651.7656,840.7969 653.5,840.7969 C654.0781,840.7969 654.6875,840.9531 655.1563,841.2031 C655.6406,841.4844 655.8125,841.7031 655.9063,842.1094 C655.9688,842.5156 656,842.6406 656.1406,842.7656 C656.2813,842.9063 656.5156,843.0156 656.7344,843.0156 C657,843.0156 657.2656,842.875 657.4375,842.6563 C657.5469,842.5 657.5781,842.3125 657.5781,841.8906 L657.5781,840.4688 C657.5781,840.0313 657.5625,839.9063 657.4688,839.75 C657.3125,839.4844 657.0313,839.3438 656.7344,839.3438 C656.4375,839.3438 656.2344,839.4375 656.0156,839.75 L655.8438,839.6719 Z " fill="#000000"/><text fill="#000000" font-family="sans-serif" font-size="14" lengthAdjust="spacing" textLength="173" x="667.5" y="848.8467">DashboardAnchorParser</text><line style="stroke:#181818;stroke-width:0.5;" x1="639.5" x2="842.5" y1="860" y2="860"/><line style="stroke:#181818;stroke-width:0.5;" x1="639.5" x2="842.5" y1="868" y2="868"/></g><!--MD5=[e233be8382c463f8f58e6549b5a7c7ae]
class FeatureAnchorParser--><g id="elem_FeatureAnchorParser"><rect codeLine="30" fill="#F1F1F1" height="48" id="FeatureAnchorParser" rx="2.5" ry="2.5" style="stroke:#181818;stroke-width:0.5;" width="183" x="878.5" y="828"/><ellipse cx="893.5" cy="844" fill="#ADD1B2" rx="11" ry="11" style="stroke:#181818;stroke-width:1.0;"/><path d="M895.8438,839.6719 C894.9063,839.2344 894.3125,839.0938 893.4375,839.0938 C890.8125,839.0938 888.8125,841.1719 888.8125,843.8906 L888.8125,845.0156 C888.8125,847.5938 890.9219,849.4844 893.8125,849.4844 C895.0313,849.4844 896.1875,849.1875 896.9375,848.6406 C897.5156,848.2344 897.8438,847.7813 897.8438,847.3906 C897.8438,846.9375 897.4531,846.5469 896.9844,846.5469 C896.7656,846.5469 896.5625,846.625 896.375,846.8125 C895.9219,847.2969 895.9219,847.2969 895.7344,847.3906 C895.3125,847.6563 894.625,847.7813 893.8594,847.7813 C891.8125,847.7813 890.5156,846.6875 890.5156,844.9844 L890.5156,843.8906 C890.5156,842.1094 891.7656,840.7969 893.5,840.7969 C894.0781,840.7969 894.6875,840.9531 895.1563,841.2031 C895.6406,841.4844 895.8125,841.7031 895.9063,842.1094 C895.9688,842.5156 896,842.6406 896.1406,842.7656 C896.2813,842.9063 896.5156,843.0156 896.7344,843.0156 C897,843.0156 897.2656,842.875 897.4375,842.6563 C897.5469,842.5 897.5781,842.3125 897.5781,841.8906 L897.5781,840.4688 C897.5781,840.0313 897.5625,839.9063 897.4688,839.75 C897.3125,839.4844 897.0313,839.3438 896.7344,839.3438 C896.4375,839.3438 896.2344,839.4375 896.0156,839.75 L895.8438,839.6719 Z " fill="#000000"/><text fill="#000000" font-family="sans-serif" font-size="14" lengthAdjust="spacing" textLength="151" x="907.5" y="848.8467">FeatureAnchorParser</text><line style="stroke:#181818;stroke-width:0.5;" x1="879.5" x2="1060.5" y1="860" y2="860"/><line style="stroke:#181818;stroke-width:0.5;" x1="879.5" x2="1060.5" y1="868" y2="868"/></g><!--MD5=[c1f5352ebb963a2a187317bad15d7ef0]
class MarkdownAnchorParser--><g id="elem_MarkdownAnchorParser"><rect codeLine="31" fill="#F1F1F1" height="48" id="MarkdownAnchorParser" rx="2.5" ry="2.5" style="stroke:#181818;stroke-width:0.5;" width="201" x="1096.5" y="828"/><ellipse cx="1111.5" cy="844" fill="#ADD1B2" rx="11" ry="11" style="stroke:#181818;stroke-width:1.0;"/><path d="M1113.8438,839.6719 C1112.9063,839.2344 1112.3125,839.0938 1111.4375,839.0938 C1108.8125,839.0938 1106.8125,841.1719 1106.8125,843.8906 L1106.8125,845.0156 C1106.8125,847.5938 1108.9219,849.4844 1111.8125,849.4844 C1113.0313,849.4844 1114.1875,849.1875 1114.9375,848.6406 C1115.5156,848.2344 1115.8438,847.7813 1115.8438,847.3906 C1115.8438,846.9375 1115.4531,846.5469 1114.9844,846.5469 C1114.7656,846.5469 1114.5625,846.625 1114.375,846.8125 C1113.9219,847.2969 1113.9219,847.2969 1113.7344,847.3906 C1113.3125,847.6563 1112.625,847.7813 1111.8594,847.7813 C1109.8125,847.7813 1108.5156,846.6875 1108.5156,844.9844 L1108.5156,843.8906 C1108.5156,842.1094 1109.7656,840.7969 1111.5,840.7969 C1112.0781,840.7969 1112.6875,840.9531 1113.1563,841.2031 C1113.6406,841.4844 1113.8125,841.7031 1113.9063,842.1094 C1113.9688,842.5156 1114,842.6406 1114.1406,842.7656 C1114.2813,842.9063 1114.5156,843.0156 1114.7344,843.0156 C1115,843.0156 1115.2656,842.875 1115.4375,842.6563 C1115.5469,842.5 1115.5781,842.3125 1115.5781,841.8906 L1115.5781,840.4688 C1115.5781,840.0313 1115.5625,839.9063 1115.4688,839.75 C1115.3125,839.4844 1115.0313,839.3438 1114.7344,839.3438 C1114.4375,839.3438 1114.2344,839.4375 1114.0156,839.75 L1113.8438,839.6719 Z " fill="#000000"/><text fill="#000000" font-family="sans-serif" font-size="14" lengthAdjust="spacing" textLength="169" x="1125.5" y="848.8467">MarkdownAnchorParser</text><line style="stroke:#181818;stroke-width:0.5;" x1="1097.5" x2="1296.5" y1="860" y2="860"/><line style="stroke:#181818;stroke-width:0.5;" x1="1097.5" x2="1296.5" y1="868" y2="868"/></g><!--MD5=[769ccb447facf6e5b7b6ff683a6bda04]
class OpenapiAnchorParser--><g id="elem_OpenapiAnchorParser"><rect codeLine="32" fill="#F1F1F1" height="48" id="OpenapiAnchorParser" rx="2.5" ry="2.5" style="stroke:#181818;stroke-width:0.5;" width="189" x="1332.5" y="828"/><ellipse cx="1347.5" cy="844" fill="#ADD1B2" rx="11" ry="11" style="stroke:#181818;stroke-width:1.0;"/><path d="M1349.8438,839.6719 C1348.9063,839.2344 1348.3125,839.0938 1347.4375,839.0938 C1344.8125,839.0938 1342.8125,841.1719 1342.8125,843.8906 L1342.8125,845.0156 C1342.8125,847.5938 1344.9219,849.4844 1347.8125,849.4844 C1349.0313,849.4844 1350.1875,849.1875 1350.9375,848.6406 C1351.5156,848.2344 1351.8438,847.7813 1351.8438,847.3906 C1351.8438,846.9375 1351.4531,846.5469 1350.9844,846.5469 C1350.7656,846.5469 1350.5625,846.625 1350.375,846.8125 C1349.9219,847.2969 1349.9219,847.2969 1349.7344,847.3906 C1349.3125,847.6563 1348.625,847.7813 1347.8594,847.7813 C1345.8125,847.7813 1344.5156,846.6875 1344.5156,844.9844 L1344.5156,843.8906 C1344.5156,842.1094 1345.7656,840.7969 1347.5,840.7969 C1348.0781,840.7969 1348.6875,840.9531 1349.1563,841.2031 C1349.6406,841.4844 1349.8125,841.7031 1349.9063,842.1094 C1349.9688,842.5156 1350,842.6406 1350.1406,842.7656 C1350.2813,842.9063 1350.5156,843.0156 1350.7344,843.0156 C1351,843.0156 1351.2656,842.875 1351.4375,842.6563 C1351.5469,842.5 1351.5781,842.3125 1351.5781,841.8906 L1351.5781,840.4688 C1351.5781,840.0313 1351.5625,839.9063 1351.4688,839.75 C1351.3125,839.4844 1351.0313,839.3438 1350.7344,839.3438 C1350.4375,839.3438 1350.2344,839.4375 1350.0156,839.75 L1349.8438,839.6719 Z " fill="#000000"/><text fill="#000000" font-family="sans-serif" font-size="14" lengthAdjust="spacing" textLength="157" x="1361.5" y="848.8467">OpenapiAnchorParser</text><line style="stroke:#181818;stroke-width:0.5;" x1="1333.5" x2="1520.5" y1="860" y2="860"/><line style="stroke:#181818;stroke-width:0.5;" x1="1333.5" x2="1520.5" y1="868" y2="868"/></g><!--MD5=[377523b98450dfca06cecbb60b0d2816]
class UmlAnchorParser--><g id="elem_UmlAnchorParser"><rect codeLine="33" fill="#F1F1F1" height="48" id="UmlAnchorParser" rx="2.5" ry="2.5" style="stroke:#181818;stroke-width:0.5;" width="155" x="1736.5" y="7"/><ellipse cx="1751.5" cy="23" fill="#ADD1B2" rx="11" ry="11" style="stroke:#181818;stroke-width:1.0;"/><path d="M1753.8438,18.6719 C1752.9063,18.2344 1752.3125,18.0938 1751.4375,18.0938 C1748.8125,18.0938 1746.8125,20.1719 1746.8125,22.8906 L1746.8125,24.0156 C1746.8125,26.5938 1748.9219,28.4844 1751.8125,28.4844 C1753.0313,28.4844 1754.1875,28.1875 1754.9375,27.6406 C1755.5156,27.2344 1755.8438,26.7813 1755.8438,26.3906 C1755.8438,25.9375 1755.4531,25.5469 1754.9844,25.5469 C1754.7656,25.5469 1754.5625,25.625 1754.375,25.8125 C1753.9219,26.2969 1753.9219,26.2969 1753.7344,26.3906 C1753.3125,26.6563 1752.625,26.7813 1751.8594,26.7813 C1749.8125,26.7813 1748.5156,25.6875 1748.5156,23.9844 L1748.5156,22.8906 C1748.5156,21.1094 1749.7656,19.7969 1751.5,19.7969 C1752.0781,19.7969 1752.6875,19.9531 1753.1563,20.2031 C1753.6406,20.4844 1753.8125,20.7031 1753.9063,21.1094 C1753.9688,21.5156 1754,21.6406 1754.1406,21.7656 C1754.2813,21.9063 1754.5156,22.0156 1754.7344,22.0156 C1755,22.0156 1755.2656,21.875 1755.4375,21.6563 C1755.5469,21.5 1755.5781,21.3125 1755.5781,20.8906 L1755.5781,19.4688 C1755.5781,19.0313 1755.5625,18.9063 1755.4688,18.75 C1755.3125,18.4844 1755.0313,18.3438 1754.7344,18.3438 C1754.4375,18.3438 1754.2344,18.4375 1754.0156,18.75 L1753.8438,18.6719 Z " fill="#000000"/><text fill="#000000" font-family="sans-serif" font-size="14" lengthAdjust="spacing" textLength="123" x="1765.5" y="27.8467">UmlAnchorParser</text><line style="stroke:#181818;stroke-width:0.5;" x1="1737.5" x2="1890.5" y1="39" y2="39"/><line style="stroke:#181818;stroke-width:0.5;" x1="1737.5" x2="1890.5" y1="47" y2="47"/></g><!--MD5=[80a3d3ff3a8d9a1a32a59aff667320b8]
class UserTaskAnchorParser--><g id="elem_UserTaskAnchorParser"><rect codeLine="34" fill="#F1F1F1" height="48" id="UserTaskAnchorParser" rx="2.5" ry="2.5" style="stroke:#181818;stroke-width:0.5;" width="192" x="1557" y="828"/><ellipse cx="1572" cy="844" fill="#ADD1B2" rx="11" ry="11" style="stroke:#181818;stroke-width:1.0;"/><path d="M1574.3438,839.6719 C1573.4063,839.2344 1572.8125,839.0938 1571.9375,839.0938 C1569.3125,839.0938 1567.3125,841.1719 1567.3125,843.8906 L1567.3125,845.0156 C1567.3125,847.5938 1569.4219,849.4844 1572.3125,849.4844 C1573.5313,849.4844 1574.6875,849.1875 1575.4375,848.6406 C1576.0156,848.2344 1576.3438,847.7813 1576.3438,847.3906 C1576.3438,846.9375 1575.9531,846.5469 1575.4844,846.5469 C1575.2656,846.5469 1575.0625,846.625 1574.875,846.8125 C1574.4219,847.2969 1574.4219,847.2969 1574.2344,847.3906 C1573.8125,847.6563 1573.125,847.7813 1572.3594,847.7813 C1570.3125,847.7813 1569.0156,846.6875 1569.0156,844.9844 L1569.0156,843.8906 C1569.0156,842.1094 1570.2656,840.7969 1572,840.7969 C1572.5781,840.7969 1573.1875,840.9531 1573.6563,841.2031 C1574.1406,841.4844 1574.3125,841.7031 1574.4063,842.1094 C1574.4688,842.5156 1574.5,842.6406 1574.6406,842.7656 C1574.7813,842.9063 1575.0156,843.0156 1575.2344,843.0156 C1575.5,843.0156 1575.7656,842.875 1575.9375,842.6563 C1576.0469,842.5 1576.0781,842.3125 1576.0781,841.8906 L1576.0781,840.4688 C1576.0781,840.0313 1576.0625,839.9063 1575.9688,839.75 C1575.8125,839.4844 1575.5313,839.3438 1575.2344,839.3438 C1574.9375,839.3438 1574.7344,839.4375 1574.5156,839.75 L1574.3438,839.6719 Z " fill="#000000"/><text fill="#000000" font-family="sans-serif" font-size="14" lengthAdjust="spacing" textLength="160" x="1586" y="848.8467">UserTaskAnchorParser</text><line style="stroke:#181818;stroke-width:0.5;" x1="1558" x2="1748" y1="860" y2="860"/><line style="stroke:#181818;stroke-width:0.5;" x1="1558" x2="1748" y1="868" y2="868"/></g><!--MD5=[b1b26d58899ee56fc8316c1b7081b575]
class UrlRewriteAnchorParser--><g id="elem_UrlRewriteAnchorParser"><rect fill="#F1F1F1" height="48" id="UrlRewriteAnchorParser" rx="2.5" ry="2.5" style="stroke:#181818;stroke-width:0.5;" width="203" x="1784.5" y="828"/><ellipse cx="1799.5" cy="844" fill="#ADD1B2" rx="11" ry="11" style="stroke:#181818;stroke-width:1.0;"/><path d="M1801.8438,839.6719 C1800.9063,839.2344 1800.3125,839.0938 1799.4375,839.0938 C1796.8125,839.0938 1794.8125,841.1719 1794.8125,843.8906 L1794.8125,845.0156 C1794.8125,847.5938 1796.9219,849.4844 1799.8125,849.4844 C1801.0313,849.4844 1802.1875,849.1875 1802.9375,848.6406 C1803.5156,848.2344 1803.8438,847.7813 1803.8438,847.3906 C1803.8438,846.9375 1803.4531,846.5469 1802.9844,846.5469 C1802.7656,846.5469 1802.5625,846.625 1802.375,846.8125 C1801.9219,847.2969 1801.9219,847.2969 1801.7344,847.3906 C1801.3125,847.6563 1800.625,847.7813 1799.8594,847.7813 C1797.8125,847.7813 1796.5156,846.6875 1796.5156,844.9844 L1796.5156,843.8906 C1796.5156,842.1094 1797.7656,840.7969 1799.5,840.7969 C1800.0781,840.7969 1800.6875,840.9531 1801.1563,841.2031 C1801.6406,841.4844 1801.8125,841.7031 1801.9063,842.1094 C1801.9688,842.5156 1802,842.6406 1802.1406,842.7656 C1802.2813,842.9063 1802.5156,843.0156 1802.7344,843.0156 C1803,843.0156 1803.2656,842.875 1803.4375,842.6563 C1803.5469,842.5 1803.5781,842.3125 1803.5781,841.8906 L1803.5781,840.4688 C1803.5781,840.0313 1803.5625,839.9063 1803.4688,839.75 C1803.3125,839.4844 1803.0313,839.3438 1802.7344,839.3438 C1802.4375,839.3438 1802.2344,839.4375 1802.0156,839.75 L1801.8438,839.6719 Z " fill="#000000"/><text fill="#000000" font-family="sans-serif" font-size="14" lengthAdjust="spacing" textLength="171" x="1813.5" y="848.8467">UrlRewriteAnchorParser</text><line style="stroke:#181818;stroke-width:0.5;" x1="1785.5" x2="1986.5" y1="860" y2="860"/><line style="stroke:#181818;stroke-width:0.5;" x1="1785.5" x2="1986.5" y1="868" y2="868"/></g><!--MD5=[dfaf53ba638977e9922bf8167f52c559]
reverse link CompositeFileParser to FileParser--><g id="link_CompositeFileParser_FileParser"><path codeLine="36" d="M1599.05,68.067 C1597.85,83.064 1598,100.307 1599.49,114.755 " fill="none" id="CompositeFileParser-backto-FileParser" style="stroke:#181818;stroke-width:1.0;"/><polygon fill="#181818" points="1600.52,55.07,1595.8701,60.5817,1599.1693,66.9937,1603.8193,61.4821,1600.52,55.07" style="stroke:#181818;stroke-width:1.0;"/><text fill="#000000" font-family="sans-serif" font-size="13" lengthAdjust="spacing" textLength="64" x="1526.924" y="103.9809">has many</text></g><!--MD5=[96eea251769b04c9266617b2e05e9298]
link CompositeFileParser to FileParser--><g id="link_CompositeFileParser_FileParser"><path codeLine="41" d="M1622.1,55.07 C1623.95,66.476 1624.73,80.731 1624.44,94.548 " fill="none" id="CompositeFileParser-to-FileParser" style="stroke:#181818;stroke-width:1.0;stroke-dasharray:7.0,7.0;"/><polygon fill="none" points="1631.41,95.226,1623.19,114.755,1617.44,94.36,1631.41,95.226" style="stroke:#181818;stroke-width:1.0;"/></g><!--MD5=[95f2767fd219bd715afa8402715eb344]
reverse link FileParser to DrawIOFileParser--><g id="link_FileParser_DrawIOFileParser"><path codeLine="37" d="M1505.13,185.835 C1455.95,203.409 1399.08,223.733 1356.46,238.964 " fill="none" id="FileParser-backto-DrawIOFileParser" style="stroke:#181818;stroke-width:1.0;stroke-dasharray:7.0,7.0;"/><polygon fill="none" points="1503.06,179.139,1524.25,179,1507.78,192.323,1503.06,179.139" style="stroke:#181818;stroke-width:1.0;"/></g><!--MD5=[790352d5782addf3ca76f2d5d4e08abf]
reverse link FileParser to MarkdownFileParser--><g id="link_FileParser_MarkdownFileParser"><path codeLine="38" d="M1563.58,193.052 C1547.07,208.733 1529.23,225.678 1515.37,238.845 " fill="none" id="FileParser-backto-MarkdownFileParser" style="stroke:#181818;stroke-width:1.0;stroke-dasharray:7.0,7.0;"/><polygon fill="none" points="1558.89,187.851,1578.21,179.151,1568.53,198.001,1558.89,187.851" style="stroke:#181818;stroke-width:1.0;"/></g><!--MD5=[2f3faceb55c44367840951ec687a7c1a]
reverse link FileParser to MarkdownMessageFileParser--><g id="link_FileParser_MarkdownMessageFileParser"><path codeLine="39" d="M1658.82,193.052 C1675.46,208.733 1693.45,225.678 1707.42,238.845 " fill="none" id="FileParser-backto-MarkdownMessageFileParser" style="stroke:#181818;stroke-width:1.0;stroke-dasharray:7.0,7.0;"/><polygon fill="none" points="1653.82,197.961,1644.06,179.151,1663.42,187.771,1653.82,197.961" style="stroke:#181818;stroke-width:1.0;"/></g><!--MD5=[300b973a1c9968b4df208827f6a5233c]
reverse link FileParser to UMLFileParser--><g id="link_FileParser_UMLFileParser"><path codeLine="40" d="M1722.5,185.387 C1776.46,203.477 1839.37,224.57 1885.5,240.038 " fill="none" id="FileParser-backto-UMLFileParser" style="stroke:#181818;stroke-width:1.0;stroke-dasharray:7.0,7.0;"/><polygon fill="none" points="1720.19,191.995,1703.46,179,1724.65,178.722,1720.19,191.995" style="stroke:#181818;stroke-width:1.0;"/></g><!--MD5=[f1cd19c778897e681d386933189cf150]
link MarkdownFileParser to MarkdownRenderer--><g id="link_MarkdownFileParser_MarkdownRenderer"><path codeLine="43" d="M1491,287 C1491,303.003 1491,324.446 1491,341.528 " fill="none" id="MarkdownFileParser-to-MarkdownRenderer" style="stroke:#181818;stroke-width:1.0;"/><polygon fill="#181818" points="1491,346.678,1495,337.678,1491,341.678,1487,337.678,1491,346.678" style="stroke:#181818;stroke-width:1.0;"/><text fill="#000000" font-family="sans-serif" font-size="13" lengthAdjust="spacing" textLength="30" x="1457.3438" y="336.0045">uses</text></g><!--MD5=[f195b6b0a79630399fbb0e69c8df586f]
reverse link MarkdownRenderer to HtmlParser--><g id="link_MarkdownRenderer_HtmlParser"><path codeLine="45" d="M1491,408.527 C1491,423.416 1491,440.455 1491,454.755 " fill="none" id="MarkdownRenderer-backto-HtmlParser" style="stroke:#181818;stroke-width:1.0;"/><polygon fill="#181818" points="1491,395.07,1487,401.07,1491,407.07,1495,401.07,1491,395.07" style="stroke:#181818;stroke-width:1.0;"/><text fill="#000000" font-family="sans-serif" font-size="13" lengthAdjust="spacing" textLength="64" x="1420.7" y="443.9809">has many</text></g><!--MD5=[c166653085d7bc9e196a21fa71244fba]
reverse link HtmlParser to AnchorHtmlParser--><g id="link_HtmlParser_AnchorHtmlParser"><path codeLine="47" d="M1331.02,521.873 C1252.08,538.746 1155.47,559.634 1069,579 C1063.32,580.273 1057.46,581.599 1051.55,582.945 " fill="none" id="HtmlParser-backto-AnchorHtmlParser" style="stroke:#181818;stroke-width:1.0;stroke-dasharray:7.0,7.0;"/><polygon fill="none" points="1329.67,515.003,1350.69,517.673,1332.59,528.694,1329.67,515.003" style="stroke:#181818;stroke-width:1.0;"/></g><!--MD5=[66911e0c8c3d4e141040bd78e87f9f8d]
reverse link HtmlParser to CleanUpHtmlParser--><g id="link_HtmlParser_CleanUpHtmlParser"><path codeLine="48" d="M1385.13,525.835 C1335.95,543.409 1279.08,563.733 1236.46,578.964 " fill="none" id="HtmlParser-backto-CleanUpHtmlParser" style="stroke:#181818;stroke-width:1.0;stroke-dasharray:7.0,7.0;"/><polygon fill="none" points="1383.06,519.139,1404.25,519,1387.78,532.323,1383.06,519.139" style="stroke:#181818;stroke-width:1.0;"/></g><!--MD5=[7e2ce550958e9630c2ca1932af59863d]
reverse link HtmlParser to FullscreenHtmlParser--><g id="link_HtmlParser_FullscreenHtmlParser"><path codeLine="49" d="M1448.22,534.014 C1433.89,549.423 1418.52,565.946 1406.53,578.845 " fill="none" id="HtmlParser-backto-FullscreenHtmlParser" style="stroke:#181818;stroke-width:1.0;stroke-dasharray:7.0,7.0;"/><polygon fill="none" points="1443.29,529.031,1462.04,519.151,1453.54,538.564,1443.29,529.031" style="stroke:#181818;stroke-width:1.0;"/></g><!--MD5=[25308c2ab7bda7e33e5550bc1968b05b]
reverse link HtmlParser to HeadingHtmlParser--><g id="link_HtmlParser_HeadingHtmlParser"><path codeLine="50" d="M1533.78,534.014 C1548.11,549.423 1563.48,565.946 1575.47,578.845 " fill="none" id="HtmlParser-backto-HeadingHtmlParser" style="stroke:#181818;stroke-width:1.0;stroke-dasharray:7.0,7.0;"/><polygon fill="none" points="1528.46,538.564,1519.96,519.151,1538.71,529.031,1528.46,538.564" style="stroke:#181818;stroke-width:1.0;"/></g><!--MD5=[f38ba54857d1cc2ab4b53f8731362f01]
reverse link HtmlParser to ImageHtmlParser--><g id="link_HtmlParser_ImageHtmlParser"><path codeLine="51" d="M1592.52,526.068 C1639.24,543.589 1693.13,563.801 1733.57,578.964 " fill="none" id="HtmlParser-backto-ImageHtmlParser" style="stroke:#181818;stroke-width:1.0;stroke-dasharray:7.0,7.0;"/><polygon fill="none" points="1589.94,532.577,1573.67,519,1594.85,519.469,1589.94,532.577" style="stroke:#181818;stroke-width:1.0;"/></g><!--MD5=[c3c355ce322f97c5869806cd949d0a67]
reverse link HtmlParser to UnsortedListHtmlParser--><g id="link_HtmlParser_UnsortedListHtmlParser"><path codeLine="52" d="M1650.69,523.076 C1734.66,541.522 1835.09,563.581 1908.4,579.684 " fill="none" id="HtmlParser-backto-UnsortedListHtmlParser" style="stroke:#181818;stroke-width:1.0;stroke-dasharray:7.0,7.0;"/><polygon fill="none" points="1649.14,529.903,1631.11,518.775,1652.14,516.229,1649.14,529.903" style="stroke:#181818;stroke-width:1.0;"/></g><!--MD5=[6ebdfe5a15a1081dbfe4f377b29bf41b]
reverse link AnchorHtmlParser to AnchorParser--><g id="link_AnchorHtmlParser_AnchorParser"><path codeLine="54" d="M970,640.209 C970,654.821 970,671.731 970,686.688 " fill="none" id="AnchorHtmlParser-backto-AnchorParser" style="stroke:#181818;stroke-width:1.0;"/><polygon fill="#181818" points="970,627.041,966,633.041,970,639.041,974,633.041,970,627.041" style="stroke:#181818;stroke-width:1.0;"/><text fill="#000000" font-family="sans-serif" font-size="13" lengthAdjust="spacing" textLength="64" x="900.7" y="675.7979">has many</text></g><!--MD5=[6eb9edfc810cf9aeab121e99292409e7]
reverse link AnchorParser to AsyncapiAnchorParser--><g id="link_AnchorParser_AsyncapiAnchorParser"><path codeLine="55" d="M721.208,757.081 C574.177,775.041 384.567,800.0583 217,828 C211.125,828.9797 205.09,830.039 199.01,831.1465 " fill="none" id="AnchorParser-backto-AsyncapiAnchorParser" style="stroke:#181818;stroke-width:1.0;stroke-dasharray:7.0,7.0;"/><polygon fill="none" points="720.509,750.115,741.207,754.65,722.198,764.012,720.509,750.115" style="stroke:#181818;stroke-width:1.0;"/></g><!--MD5=[8cf94cf91ff5eb8f1717650f4307ddbd]
reverse link AnchorParser to BPMNAnchorParser--><g id="link_AnchorParser_BPMNAnchorParser"><path codeLine="56" d="M721.317,771.264 C627.08,788.0744 518.926,808.0948 421,828 C415.307,829.1571 409.444,830.3843 403.542,831.646 " fill="none" id="AnchorParser-backto-BPMNAnchorParser" style="stroke:#181818;stroke-width:1.0;stroke-dasharray:7.0,7.0;"/><polygon fill="none" points="720.29,764.337,741.206,767.727,722.741,778.1208,720.29,764.337" style="stroke:#181818;stroke-width:1.0;"/></g><!--MD5=[f69de7c80d3665cc3da1f3011f5329b5]
reverse link AnchorParser to CodeAnchorParser--><g id="link_AnchorParser_CodeAnchorParser"><path codeLine="57" d="M805.549,773.367 C736.87,792.1045 660.098,813.0501 603.622,828.4583 " fill="none" id="AnchorParser-backto-CodeAnchorParser" style="stroke:#181818;stroke-width:1.0;stroke-dasharray:7.0,7.0;"/><polygon fill="none" points="804.015,766.53,825.152,768.019,807.7,780.036,804.015,766.53" style="stroke:#181818;stroke-width:1.0;"/></g><!--MD5=[056c58b03427cf6cf5839e00114d86fc]
reverse link AnchorParser to DashboardAnchorParser--><g id="link_AnchorParser_DashboardAnchorParser"><path codeLine="58" d="M878.229,777.5917 C845.702,794.9915 810.625,813.7553 784.077,827.9567 " fill="none" id="AnchorParser-backto-DashboardAnchorParser" style="stroke:#181818;stroke-width:1.0;stroke-dasharray:7.0,7.0;"/><polygon fill="none" points="875.029,771.364,895.967,768.103,881.633,783.7092,875.029,771.364" style="stroke:#181818;stroke-width:1.0;"/></g><!--MD5=[02aa2e0b6fdbebc37b7260b60d6f9372]
reverse link AnchorParser to FeatureAnchorParser--><g id="link_AnchorParser_FeatureAnchorParser"><path codeLine="59" d="M970,788.4186 C970,802.449 970,816.5727 970,827.8428 " fill="none" id="AnchorParser-backto-FeatureAnchorParser" style="stroke:#181818;stroke-width:1.0;stroke-dasharray:7.0,7.0;"/><polygon fill="none" points="963,788.2723,970,768.272,977,788.2722,963,788.2723" style="stroke:#181818;stroke-width:1.0;"/></g><!--MD5=[a2f5046498a042292acfeea4fe3696a0]
reverse link AnchorParser to MarkdownAnchorParser--><g id="link_AnchorParser_MarkdownAnchorParser"><path codeLine="60" d="M1061.42,777.8334 C1093.53,795.1651 1128.11,813.821 1154.3,827.9567 " fill="none" id="AnchorParser-backto-MarkdownAnchorParser" style="stroke:#181818;stroke-width:1.0;stroke-dasharray:7.0,7.0;"/><polygon fill="none" points="1057.66,783.7615,1043.39,768.103,1064.31,771.441,1057.66,783.7615" style="stroke:#181818;stroke-width:1.0;"/></g><!--MD5=[fc701b19ef5fe2085b281d8c211a6418]
reverse link AnchorParser to OpenapiAnchorParser--><g id="link_AnchorParser_OpenapiAnchorParser"><path codeLine="61" d="M1137.17,773.31 C1206.32,791.8467 1283.57,812.553 1340.91,827.9245 " fill="none" id="AnchorParser-backto-OpenapiAnchorParser" style="stroke:#181818;stroke-width:1.0;stroke-dasharray:7.0,7.0;"/><polygon fill="none" points="1134.93,779.9582,1117.43,768.019,1138.56,766.436,1134.93,779.9582" style="stroke:#181818;stroke-width:1.0;"/></g><!--MD5=[b5dd6a20875df8b9f1bebbcb2b7521c6]
reverse link AnchorParser to UserTaskAnchorParser--><g id="link_AnchorParser_UserTaskAnchorParser"><path codeLine="62" d="M1218.39,770.494 C1318.14,787.7352 1434.13,808.2561 1539,828 C1544.85,829.1021 1550.87,830.2555 1556.94,831.434 " fill="none" id="AnchorParser-backto-UserTaskAnchorParser" style="stroke:#181818;stroke-width:1.0;stroke-dasharray:7.0,7.0;"/><polygon fill="none" points="1217.18,777.3894,1198.66,767.091,1219.56,763.593,1217.18,777.3894" style="stroke:#181818;stroke-width:1.0;"/></g><!--MD5=[6e6b49bec96f31a379605c5192e8271f]
reverse link AnchorParser to UrlRewriteAnchorParser--><g id="link_AnchorParser_UrlRewriteAnchorParser"><path codeLine="63" d="M1218.63,755.37 C1375.91,773.407 1583.29,799.1028 1766,828 C1771.97,828.9444 1778.1,829.9637 1784.28,831.0293 " fill="none" id="AnchorParser-backto-UrlRewriteAnchorParser" style="stroke:#181818;stroke-width:1.0;stroke-dasharray:7.0,7.0;"/><polygon fill="none" points="1217.81,762.322,1198.73,753.098,1219.39,748.412,1217.81,762.322" style="stroke:#181818;stroke-width:1.0;"/></g><!--MD5=[fad02659b9248f8def4dd60b584da2a2]
@startuml
class MarkdownRenderer

interface FileParser {
    async parse(file: string) : void
}
class CompositeFileParser
class DrawIOFileParser
Class MarkdownFileParser
Class MarkdownMessageFileParser
class UMLFileParser

interface HtmlParser {
    async parse(element: Element) : void
}
class AnchorHtmlParser
class CleanUpHtmlParser
class FullscreenHtmlParser
class HeadingHtmlParser
class ImageHtmlParser
class UnsortedListHtmlParser

interface AnchorParser {
    canParse(anchor: HTMLAnchorElement) : bool
    async parse(file: string, anchor: HTMLAnchorElement) : string;
}
class AsyncapiAnchorParser
class BPMNAnchorParser
class CodeAnchorParser
class DashboardAnchorParser
class FeatureAnchorParser
class MarkdownAnchorParser
class OpenapiAnchorParser
class UmlAnchorParser
class UserTaskAnchorParser

CompositeFileParser *- - "has many" FileParser
FileParser <|.. DrawIOFileParser
FileParser <|.. MarkdownFileParser
FileParser <|.. MarkdownMessageFileParser
FileParser <|.. UMLFileParser
CompositeFileParser ..|> FileParser

MarkdownFileParser - -> "uses" MarkdownRenderer

MarkdownRenderer *- - "has many" HtmlParser

HtmlParser <|.. AnchorHtmlParser
HtmlParser <|.. CleanUpHtmlParser
HtmlParser <|.. FullscreenHtmlParser
HtmlParser <|.. HeadingHtmlParser
HtmlParser <|.. ImageHtmlParser
HtmlParser <|.. UnsortedListHtmlParser

AnchorHtmlParser *- - "has many" AnchorParser
AnchorParser <|.. AsyncapiAnchorParser
AnchorParser <|.. BPMNAnchorParser
AnchorParser <|.. CodeAnchorParser
AnchorParser <|.. DashboardAnchorParser
AnchorParser <|.. FeatureAnchorParser
AnchorParser <|.. MarkdownAnchorParser
AnchorParser <|.. OpenapiAnchorParser
AnchorParser <|.. UserTaskAnchorParser
AnchorParser <|.. UrlRewriteAnchorParser
@enduml

PlantUML version 1.2022.4beta2(Unknown compile time)
(GPL source distribution)
Java Runtime: Java(TM) SE Runtime Environment
JVM: Java HotSpot(TM) 64-Bit Server VM
Default Encoding: UTF-8
Language: en
Country: US
--></g></svg>