<?xml version="1.0" encoding="UTF-8" standalone="no"?><svg xmlns="http://www.w3.org/2000/svg" xmlns:xlink="http://www.w3.org/1999/xlink" contentStyleType="text/css" height="883px" preserveAspectRatio="none" style="width:2379px;height:883px;background:#FFFFFF;" version="1.1" viewBox="0 0 2379 883" width="2379px" zoomAndPan="magnify"><defs/><g><!--MD5=[abd491df3bb22b53228b5d72307d757b]
class MarkdownRenderer--><g id="elem_MarkdownRenderer"><rect codeLine="1" fill="#F1F1F1" height="48" id="MarkdownRenderer" rx="2.5" ry="2.5" style="stroke:#181818;stroke-width:0.5;" width="172" x="1512" y="347"/><ellipse cx="1527" cy="363" fill="#ADD1B2" rx="11" ry="11" style="stroke:#181818;stroke-width:1.0;"/><path d="M1529.3438,358.6719 C1528.4063,358.2344 1527.8125,358.0938 1526.9375,358.0938 C1524.3125,358.0938 1522.3125,360.1719 1522.3125,362.8906 L1522.3125,364.0156 C1522.3125,366.5938 1524.4219,368.4844 1527.3125,368.4844 C1528.5313,368.4844 1529.6875,368.1875 1530.4375,367.6406 C1531.0156,367.2344 1531.3438,366.7813 1531.3438,366.3906 C1531.3438,365.9375 1530.9531,365.5469 1530.4844,365.5469 C1530.2656,365.5469 1530.0625,365.625 1529.875,365.8125 C1529.4219,366.2969 1529.4219,366.2969 1529.2344,366.3906 C1528.8125,366.6563 1528.125,366.7813 1527.3594,366.7813 C1525.3125,366.7813 1524.0156,365.6875 1524.0156,363.9844 L1524.0156,362.8906 C1524.0156,361.1094 1525.2656,359.7969 1527,359.7969 C1527.5781,359.7969 1528.1875,359.9531 1528.6563,360.2031 C1529.1406,360.4844 1529.3125,360.7031 1529.4063,361.1094 C1529.4688,361.5156 1529.5,361.6406 1529.6406,361.7656 C1529.7813,361.9063 1530.0156,362.0156 1530.2344,362.0156 C1530.5,362.0156 1530.7656,361.875 1530.9375,361.6563 C1531.0469,361.5 1531.0781,361.3125 1531.0781,360.8906 L1531.0781,359.4688 C1531.0781,359.0313 1531.0625,358.9063 1530.9688,358.75 C1530.8125,358.4844 1530.5313,358.3438 1530.2344,358.3438 C1529.9375,358.3438 1529.7344,358.4375 1529.5156,358.75 L1529.3438,358.6719 Z " fill="#000000"/><text fill="#000000" font-family="sans-serif" font-size="14" lengthAdjust="spacing" textLength="140" x="1541" y="367.8467">MarkdownRenderer</text><line style="stroke:#181818;stroke-width:0.5;" x1="1513" x2="1683" y1="379" y2="379"/><line style="stroke:#181818;stroke-width:0.5;" x1="1513" x2="1683" y1="387" y2="387"/></g><!--MD5=[56b7372ce0ccb68ceee3d01f0640b2ea]
class FileParser--><g id="elem_FileParser"><rect codeLine="3" fill="#F1F1F1" height="64.2969" id="FileParser" rx="2.5" ry="2.5" style="stroke:#181818;stroke-width:0.5;" width="223" x="1716.5" y="115"/><ellipse cx="1788.75" cy="131" fill="#B4A7E5" rx="11" ry="11" style="stroke:#181818;stroke-width:1.0;"/><path d="M1789.7031,127.7813 L1791.4219,127.7813 C1791.8125,127.7813 1792,127.75 1792.125,127.6719 C1792.3906,127.5156 1792.5313,127.2344 1792.5313,126.9375 C1792.5313,126.6719 1792.4219,126.4063 1792.1875,126.2344 C1792.0156,126.125 1791.875,126.0938 1791.4219,126.0938 L1786.2813,126.0938 C1785.8438,126.0938 1785.7188,126.1094 1785.5625,126.2031 C1785.3125,126.3594 1785.1563,126.6563 1785.1563,126.9375 C1785.1563,127.2188 1785.2969,127.4688 1785.5156,127.6406 C1785.6719,127.75 1785.8594,127.7813 1786.2813,127.7813 L1788,127.7813 L1788,134.2969 L1786.2813,134.2969 C1785.8438,134.2969 1785.7188,134.3125 1785.5625,134.4219 C1785.3125,134.5781 1785.1563,134.8594 1785.1563,135.1563 C1785.1563,135.4063 1785.2969,135.6719 1785.5156,135.8281 C1785.6719,135.9531 1785.875,136 1786.2813,136 L1791.4219,136 C1792.1719,136 1792.5313,135.7188 1792.5313,135.1563 C1792.5313,134.875 1792.4219,134.625 1792.1875,134.4531 C1792.0156,134.3281 1791.875,134.2969 1791.4219,134.2969 L1789.7031,134.2969 L1789.7031,127.7813 Z " fill="#000000"/><text fill="#000000" font-family="sans-serif" font-size="14" font-style="italic" lengthAdjust="spacing" textLength="70" x="1809.25" y="135.8467">FileParser</text><line style="stroke:#181818;stroke-width:0.5;" x1="1717.5" x2="1938.5" y1="147" y2="147"/><line style="stroke:#181818;stroke-width:0.5;" x1="1717.5" x2="1938.5" y1="155" y2="155"/><text fill="#000000" font-family="sans-serif" font-size="14" lengthAdjust="spacing" textLength="211" x="1722.5" y="171.9951">async parse(file: string) : void</text></g><!--MD5=[def6869aaeb0fb49d439e64d8fa8467b]
class CompositeFileParser--><g id="elem_CompositeFileParser"><rect codeLine="6" fill="#F1F1F1" height="48" id="CompositeFileParser" rx="2.5" ry="2.5" style="stroke:#181818;stroke-width:0.5;" width="181" x="1737.5" y="7"/><ellipse cx="1752.5" cy="23" fill="#ADD1B2" rx="11" ry="11" style="stroke:#181818;stroke-width:1.0;"/><path d="M1754.8438,18.6719 C1753.9063,18.2344 1753.3125,18.0938 1752.4375,18.0938 C1749.8125,18.0938 1747.8125,20.1719 1747.8125,22.8906 L1747.8125,24.0156 C1747.8125,26.5938 1749.9219,28.4844 1752.8125,28.4844 C1754.0313,28.4844 1755.1875,28.1875 1755.9375,27.6406 C1756.5156,27.2344 1756.8438,26.7813 1756.8438,26.3906 C1756.8438,25.9375 1756.4531,25.5469 1755.9844,25.5469 C1755.7656,25.5469 1755.5625,25.625 1755.375,25.8125 C1754.9219,26.2969 1754.9219,26.2969 1754.7344,26.3906 C1754.3125,26.6563 1753.625,26.7813 1752.8594,26.7813 C1750.8125,26.7813 1749.5156,25.6875 1749.5156,23.9844 L1749.5156,22.8906 C1749.5156,21.1094 1750.7656,19.7969 1752.5,19.7969 C1753.0781,19.7969 1753.6875,19.9531 1754.1563,20.2031 C1754.6406,20.4844 1754.8125,20.7031 1754.9063,21.1094 C1754.9688,21.5156 1755,21.6406 1755.1406,21.7656 C1755.2813,21.9063 1755.5156,22.0156 1755.7344,22.0156 C1756,22.0156 1756.2656,21.875 1756.4375,21.6563 C1756.5469,21.5 1756.5781,21.3125 1756.5781,20.8906 L1756.5781,19.4688 C1756.5781,19.0313 1756.5625,18.9063 1756.4688,18.75 C1756.3125,18.4844 1756.0313,18.3438 1755.7344,18.3438 C1755.4375,18.3438 1755.2344,18.4375 1755.0156,18.75 L1754.8438,18.6719 Z " fill="#000000"/><text fill="#000000" font-family="sans-serif" font-size="14" lengthAdjust="spacing" textLength="149" x="1766.5" y="27.8467">CompositeFileParser</text><line style="stroke:#181818;stroke-width:0.5;" x1="1738.5" x2="1917.5" y1="39" y2="39"/><line style="stroke:#181818;stroke-width:0.5;" x1="1738.5" x2="1917.5" y1="47" y2="47"/></g><!--MD5=[1f6f53475f18951c7618cb083a77b293]
class DrawIOFileParser--><g id="elem_DrawIOFileParser"><rect codeLine="7" fill="#F1F1F1" height="48" id="DrawIOFileParser" rx="2.5" ry="2.5" style="stroke:#181818;stroke-width:0.5;" width="153" x="1322.5" y="239"/><ellipse cx="1337.5" cy="255" fill="#ADD1B2" rx="11" ry="11" style="stroke:#181818;stroke-width:1.0;"/><path d="M1339.8438,250.6719 C1338.9063,250.2344 1338.3125,250.0938 1337.4375,250.0938 C1334.8125,250.0938 1332.8125,252.1719 1332.8125,254.8906 L1332.8125,256.0156 C1332.8125,258.5938 1334.9219,260.4844 1337.8125,260.4844 C1339.0313,260.4844 1340.1875,260.1875 1340.9375,259.6406 C1341.5156,259.2344 1341.8438,258.7813 1341.8438,258.3906 C1341.8438,257.9375 1341.4531,257.5469 1340.9844,257.5469 C1340.7656,257.5469 1340.5625,257.625 1340.375,257.8125 C1339.9219,258.2969 1339.9219,258.2969 1339.7344,258.3906 C1339.3125,258.6563 1338.625,258.7813 1337.8594,258.7813 C1335.8125,258.7813 1334.5156,257.6875 1334.5156,255.9844 L1334.5156,254.8906 C1334.5156,253.1094 1335.7656,251.7969 1337.5,251.7969 C1338.0781,251.7969 1338.6875,251.9531 1339.1563,252.2031 C1339.6406,252.4844 1339.8125,252.7031 1339.9063,253.1094 C1339.9688,253.5156 1340,253.6406 1340.1406,253.7656 C1340.2813,253.9063 1340.5156,254.0156 1340.7344,254.0156 C1341,254.0156 1341.2656,253.875 1341.4375,253.6563 C1341.5469,253.5 1341.5781,253.3125 1341.5781,252.8906 L1341.5781,251.4688 C1341.5781,251.0313 1341.5625,250.9063 1341.4688,250.75 C1341.3125,250.4844 1341.0313,250.3438 1340.7344,250.3438 C1340.4375,250.3438 1340.2344,250.4375 1340.0156,250.75 L1339.8438,250.6719 Z " fill="#000000"/><text fill="#000000" font-family="sans-serif" font-size="14" lengthAdjust="spacing" textLength="121" x="1351.5" y="259.8467">DrawIOFileParser</text><line style="stroke:#181818;stroke-width:0.5;" x1="1323.5" x2="1474.5" y1="271" y2="271"/><line style="stroke:#181818;stroke-width:0.5;" x1="1323.5" x2="1474.5" y1="279" y2="279"/></g><!--MD5=[afd31ea00285bd99570d67e5c0ae3f31]
class MarkdownFileParser--><g id="elem_MarkdownFileParser"><rect codeLine="8" fill="#F1F1F1" height="48" id="MarkdownFileParser" rx="2.5" ry="2.5" style="stroke:#181818;stroke-width:0.5;" width="175" x="1510.5" y="239"/><ellipse cx="1525.5" cy="255" fill="#ADD1B2" rx="11" ry="11" style="stroke:#181818;stroke-width:1.0;"/><path d="M1527.8438,250.6719 C1526.9063,250.2344 1526.3125,250.0938 1525.4375,250.0938 C1522.8125,250.0938 1520.8125,252.1719 1520.8125,254.8906 L1520.8125,256.0156 C1520.8125,258.5938 1522.9219,260.4844 1525.8125,260.4844 C1527.0313,260.4844 1528.1875,260.1875 1528.9375,259.6406 C1529.5156,259.2344 1529.8438,258.7813 1529.8438,258.3906 C1529.8438,257.9375 1529.4531,257.5469 1528.9844,257.5469 C1528.7656,257.5469 1528.5625,257.625 1528.375,257.8125 C1527.9219,258.2969 1527.9219,258.2969 1527.7344,258.3906 C1527.3125,258.6563 1526.625,258.7813 1525.8594,258.7813 C1523.8125,258.7813 1522.5156,257.6875 1522.5156,255.9844 L1522.5156,254.8906 C1522.5156,253.1094 1523.7656,251.7969 1525.5,251.7969 C1526.0781,251.7969 1526.6875,251.9531 1527.1563,252.2031 C1527.6406,252.4844 1527.8125,252.7031 1527.9063,253.1094 C1527.9688,253.5156 1528,253.6406 1528.1406,253.7656 C1528.2813,253.9063 1528.5156,254.0156 1528.7344,254.0156 C1529,254.0156 1529.2656,253.875 1529.4375,253.6563 C1529.5469,253.5 1529.5781,253.3125 1529.5781,252.8906 L1529.5781,251.4688 C1529.5781,251.0313 1529.5625,250.9063 1529.4688,250.75 C1529.3125,250.4844 1529.0313,250.3438 1528.7344,250.3438 C1528.4375,250.3438 1528.2344,250.4375 1528.0156,250.75 L1527.8438,250.6719 Z " fill="#000000"/><text fill="#000000" font-family="sans-serif" font-size="14" lengthAdjust="spacing" textLength="143" x="1539.5" y="259.8467">MarkdownFileParser</text><line style="stroke:#181818;stroke-width:0.5;" x1="1511.5" x2="1684.5" y1="271" y2="271"/><line style="stroke:#181818;stroke-width:0.5;" x1="1511.5" x2="1684.5" y1="279" y2="279"/></g><!--MD5=[33da7f2be49c396a3539511d0c597e03]
class MarkdownEmailFileParser--><g id="elem_MarkdownEmailFileParser"><rect codeLine="9" fill="#F1F1F1" height="48" id="MarkdownEmailFileParser" rx="2.5" ry="2.5" style="stroke:#181818;stroke-width:0.5;" width="214" x="1721" y="239"/><ellipse cx="1736" cy="255" fill="#ADD1B2" rx="11" ry="11" style="stroke:#181818;stroke-width:1.0;"/><path d="M1738.3438,250.6719 C1737.4063,250.2344 1736.8125,250.0938 1735.9375,250.0938 C1733.3125,250.0938 1731.3125,252.1719 1731.3125,254.8906 L1731.3125,256.0156 C1731.3125,258.5938 1733.4219,260.4844 1736.3125,260.4844 C1737.5313,260.4844 1738.6875,260.1875 1739.4375,259.6406 C1740.0156,259.2344 1740.3438,258.7813 1740.3438,258.3906 C1740.3438,257.9375 1739.9531,257.5469 1739.4844,257.5469 C1739.2656,257.5469 1739.0625,257.625 1738.875,257.8125 C1738.4219,258.2969 1738.4219,258.2969 1738.2344,258.3906 C1737.8125,258.6563 1737.125,258.7813 1736.3594,258.7813 C1734.3125,258.7813 1733.0156,257.6875 1733.0156,255.9844 L1733.0156,254.8906 C1733.0156,253.1094 1734.2656,251.7969 1736,251.7969 C1736.5781,251.7969 1737.1875,251.9531 1737.6563,252.2031 C1738.1406,252.4844 1738.3125,252.7031 1738.4063,253.1094 C1738.4688,253.5156 1738.5,253.6406 1738.6406,253.7656 C1738.7813,253.9063 1739.0156,254.0156 1739.2344,254.0156 C1739.5,254.0156 1739.7656,253.875 1739.9375,253.6563 C1740.0469,253.5 1740.0781,253.3125 1740.0781,252.8906 L1740.0781,251.4688 C1740.0781,251.0313 1740.0625,250.9063 1739.9688,250.75 C1739.8125,250.4844 1739.5313,250.3438 1739.2344,250.3438 C1738.9375,250.3438 1738.7344,250.4375 1738.5156,250.75 L1738.3438,250.6719 Z " fill="#000000"/><text fill="#000000" font-family="sans-serif" font-size="14" lengthAdjust="spacing" textLength="182" x="1750" y="259.8467">MarkdownEmailFileParser</text><line style="stroke:#181818;stroke-width:0.5;" x1="1722" x2="1934" y1="271" y2="271"/><line style="stroke:#181818;stroke-width:0.5;" x1="1722" x2="1934" y1="279" y2="279"/></g><!--MD5=[fc9c20345da2dd2a4efd5a86b77cc139]
class MarkdownMessageFileParser--><g id="elem_MarkdownMessageFileParser"><rect codeLine="10" fill="#F1F1F1" height="48" id="MarkdownMessageFileParser" rx="2.5" ry="2.5" style="stroke:#181818;stroke-width:0.5;" width="236" x="1970" y="239"/><ellipse cx="1985" cy="255" fill="#ADD1B2" rx="11" ry="11" style="stroke:#181818;stroke-width:1.0;"/><path d="M1987.3438,250.6719 C1986.4063,250.2344 1985.8125,250.0938 1984.9375,250.0938 C1982.3125,250.0938 1980.3125,252.1719 1980.3125,254.8906 L1980.3125,256.0156 C1980.3125,258.5938 1982.4219,260.4844 1985.3125,260.4844 C1986.5313,260.4844 1987.6875,260.1875 1988.4375,259.6406 C1989.0156,259.2344 1989.3438,258.7813 1989.3438,258.3906 C1989.3438,257.9375 1988.9531,257.5469 1988.4844,257.5469 C1988.2656,257.5469 1988.0625,257.625 1987.875,257.8125 C1987.4219,258.2969 1987.4219,258.2969 1987.2344,258.3906 C1986.8125,258.6563 1986.125,258.7813 1985.3594,258.7813 C1983.3125,258.7813 1982.0156,257.6875 1982.0156,255.9844 L1982.0156,254.8906 C1982.0156,253.1094 1983.2656,251.7969 1985,251.7969 C1985.5781,251.7969 1986.1875,251.9531 1986.6563,252.2031 C1987.1406,252.4844 1987.3125,252.7031 1987.4063,253.1094 C1987.4688,253.5156 1987.5,253.6406 1987.6406,253.7656 C1987.7813,253.9063 1988.0156,254.0156 1988.2344,254.0156 C1988.5,254.0156 1988.7656,253.875 1988.9375,253.6563 C1989.0469,253.5 1989.0781,253.3125 1989.0781,252.8906 L1989.0781,251.4688 C1989.0781,251.0313 1989.0625,250.9063 1988.9688,250.75 C1988.8125,250.4844 1988.5313,250.3438 1988.2344,250.3438 C1987.9375,250.3438 1987.7344,250.4375 1987.5156,250.75 L1987.3438,250.6719 Z " fill="#000000"/><text fill="#000000" font-family="sans-serif" font-size="14" lengthAdjust="spacing" textLength="204" x="1999" y="259.8467">MarkdownMessageFileParser</text><line style="stroke:#181818;stroke-width:0.5;" x1="1971" x2="2205" y1="271" y2="271"/><line style="stroke:#181818;stroke-width:0.5;" x1="1971" x2="2205" y1="279" y2="279"/></g><!--MD5=[f478228a8077e6cfbd1d096b26e2b504]
class UMLFileParser--><g id="elem_UMLFileParser"><rect codeLine="11" fill="#F1F1F1" height="48" id="UMLFileParser" rx="2.5" ry="2.5" style="stroke:#181818;stroke-width:0.5;" width="131" x="2241.5" y="239"/><ellipse cx="2256.5" cy="255" fill="#ADD1B2" rx="11" ry="11" style="stroke:#181818;stroke-width:1.0;"/><path d="M2258.8438,250.6719 C2257.9063,250.2344 2257.3125,250.0938 2256.4375,250.0938 C2253.8125,250.0938 2251.8125,252.1719 2251.8125,254.8906 L2251.8125,256.0156 C2251.8125,258.5938 2253.9219,260.4844 2256.8125,260.4844 C2258.0313,260.4844 2259.1875,260.1875 2259.9375,259.6406 C2260.5156,259.2344 2260.8438,258.7813 2260.8438,258.3906 C2260.8438,257.9375 2260.4531,257.5469 2259.9844,257.5469 C2259.7656,257.5469 2259.5625,257.625 2259.375,257.8125 C2258.9219,258.2969 2258.9219,258.2969 2258.7344,258.3906 C2258.3125,258.6563 2257.625,258.7813 2256.8594,258.7813 C2254.8125,258.7813 2253.5156,257.6875 2253.5156,255.9844 L2253.5156,254.8906 C2253.5156,253.1094 2254.7656,251.7969 2256.5,251.7969 C2257.0781,251.7969 2257.6875,251.9531 2258.1563,252.2031 C2258.6406,252.4844 2258.8125,252.7031 2258.9063,253.1094 C2258.9688,253.5156 2259,253.6406 2259.1406,253.7656 C2259.2813,253.9063 2259.5156,254.0156 2259.7344,254.0156 C2260,254.0156 2260.2656,253.875 2260.4375,253.6563 C2260.5469,253.5 2260.5781,253.3125 2260.5781,252.8906 L2260.5781,251.4688 C2260.5781,251.0313 2260.5625,250.9063 2260.4688,250.75 C2260.3125,250.4844 2260.0313,250.3438 2259.7344,250.3438 C2259.4375,250.3438 2259.2344,250.4375 2259.0156,250.75 L2258.8438,250.6719 Z " fill="#000000"/><text fill="#000000" font-family="sans-serif" font-size="14" lengthAdjust="spacing" textLength="99" x="2270.5" y="259.8467">UMLFileParser</text><line style="stroke:#181818;stroke-width:0.5;" x1="2242.5" x2="2371.5" y1="271" y2="271"/><line style="stroke:#181818;stroke-width:0.5;" x1="2242.5" x2="2371.5" y1="279" y2="279"/></g><!--MD5=[582af922c2f56e5a287f08772095ebe6]
class HtmlParser--><g id="elem_HtmlParser"><rect codeLine="13" fill="#F1F1F1" height="64.2969" id="HtmlParser" rx="2.5" ry="2.5" style="stroke:#181818;stroke-width:0.5;" width="280" x="1458" y="455"/><ellipse cx="1554.25" cy="471" fill="#B4A7E5" rx="11" ry="11" style="stroke:#181818;stroke-width:1.0;"/><path d="M1555.2031,467.7813 L1556.9219,467.7813 C1557.3125,467.7813 1557.5,467.75 1557.625,467.6719 C1557.8906,467.5156 1558.0313,467.2344 1558.0313,466.9375 C1558.0313,466.6719 1557.9219,466.4063 1557.6875,466.2344 C1557.5156,466.125 1557.375,466.0938 1556.9219,466.0938 L1551.7813,466.0938 C1551.3438,466.0938 1551.2188,466.1094 1551.0625,466.2031 C1550.8125,466.3594 1550.6563,466.6563 1550.6563,466.9375 C1550.6563,467.2188 1550.7969,467.4688 1551.0156,467.6406 C1551.1719,467.75 1551.3594,467.7813 1551.7813,467.7813 L1553.5,467.7813 L1553.5,474.2969 L1551.7813,474.2969 C1551.3438,474.2969 1551.2188,474.3125 1551.0625,474.4219 C1550.8125,474.5781 1550.6563,474.8594 1550.6563,475.1563 C1550.6563,475.4063 1550.7969,475.6719 1551.0156,475.8281 C1551.1719,475.9531 1551.375,476 1551.7813,476 L1556.9219,476 C1557.6719,476 1558.0313,475.7188 1558.0313,475.1563 C1558.0313,474.875 1557.9219,474.625 1557.6875,474.4531 C1557.5156,474.3281 1557.375,474.2969 1556.9219,474.2969 L1555.2031,474.2969 L1555.2031,467.7813 Z " fill="#000000"/><text fill="#000000" font-family="sans-serif" font-size="14" font-style="italic" lengthAdjust="spacing" textLength="79" x="1574.75" y="475.8467">HtmlParser</text><line style="stroke:#181818;stroke-width:0.5;" x1="1459" x2="1737" y1="487" y2="487"/><line style="stroke:#181818;stroke-width:0.5;" x1="1459" x2="1737" y1="495" y2="495"/><text fill="#000000" font-family="sans-serif" font-size="14" lengthAdjust="spacing" textLength="268" x="1464" y="511.9951">async parse(element: Element) : void</text></g><!--MD5=[c254b7500f5cef0325dd99a2fc484bd7]
class AnchorHtmlParser--><g id="elem_AnchorHtmlParser"><rect codeLine="16" fill="#F1F1F1" height="48" id="AnchorHtmlParser" rx="2.5" ry="2.5" style="stroke:#181818;stroke-width:0.5;" width="163" x="995.5" y="579"/><ellipse cx="1010.5" cy="595" fill="#ADD1B2" rx="11" ry="11" style="stroke:#181818;stroke-width:1.0;"/><path d="M1012.8438,590.6719 C1011.9063,590.2344 1011.3125,590.0938 1010.4375,590.0938 C1007.8125,590.0938 1005.8125,592.1719 1005.8125,594.8906 L1005.8125,596.0156 C1005.8125,598.5938 1007.9219,600.4844 1010.8125,600.4844 C1012.0313,600.4844 1013.1875,600.1875 1013.9375,599.6406 C1014.5156,599.2344 1014.8438,598.7813 1014.8438,598.3906 C1014.8438,597.9375 1014.4531,597.5469 1013.9844,597.5469 C1013.7656,597.5469 1013.5625,597.625 1013.375,597.8125 C1012.9219,598.2969 1012.9219,598.2969 1012.7344,598.3906 C1012.3125,598.6563 1011.625,598.7813 1010.8594,598.7813 C1008.8125,598.7813 1007.5156,597.6875 1007.5156,595.9844 L1007.5156,594.8906 C1007.5156,593.1094 1008.7656,591.7969 1010.5,591.7969 C1011.0781,591.7969 1011.6875,591.9531 1012.1563,592.2031 C1012.6406,592.4844 1012.8125,592.7031 1012.9063,593.1094 C1012.9688,593.5156 1013,593.6406 1013.1406,593.7656 C1013.2813,593.9063 1013.5156,594.0156 1013.7344,594.0156 C1014,594.0156 1014.2656,593.875 1014.4375,593.6563 C1014.5469,593.5 1014.5781,593.3125 1014.5781,592.8906 L1014.5781,591.4688 C1014.5781,591.0313 1014.5625,590.9063 1014.4688,590.75 C1014.3125,590.4844 1014.0313,590.3438 1013.7344,590.3438 C1013.4375,590.3438 1013.2344,590.4375 1013.0156,590.75 L1012.8438,590.6719 Z " fill="#000000"/><text fill="#000000" font-family="sans-serif" font-size="14" lengthAdjust="spacing" textLength="131" x="1024.5" y="599.8467">AnchorHtmlParser</text><line style="stroke:#181818;stroke-width:0.5;" x1="996.5" x2="1157.5" y1="611" y2="611"/><line style="stroke:#181818;stroke-width:0.5;" x1="996.5" x2="1157.5" y1="619" y2="619"/></g><!--MD5=[633302e4313c190beb6b60d00f8c9131]
class CleanUpHtmlParser--><g id="elem_CleanUpHtmlParser"><rect codeLine="17" fill="#F1F1F1" height="48" id="CleanUpHtmlParser" rx="2.5" ry="2.5" style="stroke:#181818;stroke-width:0.5;" width="171" x="1193.5" y="579"/><ellipse cx="1208.5" cy="595" fill="#ADD1B2" rx="11" ry="11" style="stroke:#181818;stroke-width:1.0;"/><path d="M1210.8438,590.6719 C1209.9063,590.2344 1209.3125,590.0938 1208.4375,590.0938 C1205.8125,590.0938 1203.8125,592.1719 1203.8125,594.8906 L1203.8125,596.0156 C1203.8125,598.5938 1205.9219,600.4844 1208.8125,600.4844 C1210.0313,600.4844 1211.1875,600.1875 1211.9375,599.6406 C1212.5156,599.2344 1212.8438,598.7813 1212.8438,598.3906 C1212.8438,597.9375 1212.4531,597.5469 1211.9844,597.5469 C1211.7656,597.5469 1211.5625,597.625 1211.375,597.8125 C1210.9219,598.2969 1210.9219,598.2969 1210.7344,598.3906 C1210.3125,598.6563 1209.625,598.7813 1208.8594,598.7813 C1206.8125,598.7813 1205.5156,597.6875 1205.5156,595.9844 L1205.5156,594.8906 C1205.5156,593.1094 1206.7656,591.7969 1208.5,591.7969 C1209.0781,591.7969 1209.6875,591.9531 1210.1563,592.2031 C1210.6406,592.4844 1210.8125,592.7031 1210.9063,593.1094 C1210.9688,593.5156 1211,593.6406 1211.1406,593.7656 C1211.2813,593.9063 1211.5156,594.0156 1211.7344,594.0156 C1212,594.0156 1212.2656,593.875 1212.4375,593.6563 C1212.5469,593.5 1212.5781,593.3125 1212.5781,592.8906 L1212.5781,591.4688 C1212.5781,591.0313 1212.5625,590.9063 1212.4688,590.75 C1212.3125,590.4844 1212.0313,590.3438 1211.7344,590.3438 C1211.4375,590.3438 1211.2344,590.4375 1211.0156,590.75 L1210.8438,590.6719 Z " fill="#000000"/><text fill="#000000" font-family="sans-serif" font-size="14" lengthAdjust="spacing" textLength="139" x="1222.5" y="599.8467">CleanUpHtmlParser</text><line style="stroke:#181818;stroke-width:0.5;" x1="1194.5" x2="1363.5" y1="611" y2="611"/><line style="stroke:#181818;stroke-width:0.5;" x1="1194.5" x2="1363.5" y1="619" y2="619"/></g><!--MD5=[1c69f80c29e67b39a2f9423b5d3d0804]
class FullscreenHtmlParser--><g id="elem_FullscreenHtmlParser"><rect codeLine="18" fill="#F1F1F1" height="48" id="FullscreenHtmlParser" rx="2.5" ry="2.5" style="stroke:#181818;stroke-width:0.5;" width="184" x="1400" y="579"/><ellipse cx="1415" cy="595" fill="#ADD1B2" rx="11" ry="11" style="stroke:#181818;stroke-width:1.0;"/><path d="M1417.3438,590.6719 C1416.4063,590.2344 1415.8125,590.0938 1414.9375,590.0938 C1412.3125,590.0938 1410.3125,592.1719 1410.3125,594.8906 L1410.3125,596.0156 C1410.3125,598.5938 1412.4219,600.4844 1415.3125,600.4844 C1416.5313,600.4844 1417.6875,600.1875 1418.4375,599.6406 C1419.0156,599.2344 1419.3438,598.7813 1419.3438,598.3906 C1419.3438,597.9375 1418.9531,597.5469 1418.4844,597.5469 C1418.2656,597.5469 1418.0625,597.625 1417.875,597.8125 C1417.4219,598.2969 1417.4219,598.2969 1417.2344,598.3906 C1416.8125,598.6563 1416.125,598.7813 1415.3594,598.7813 C1413.3125,598.7813 1412.0156,597.6875 1412.0156,595.9844 L1412.0156,594.8906 C1412.0156,593.1094 1413.2656,591.7969 1415,591.7969 C1415.5781,591.7969 1416.1875,591.9531 1416.6563,592.2031 C1417.1406,592.4844 1417.3125,592.7031 1417.4063,593.1094 C1417.4688,593.5156 1417.5,593.6406 1417.6406,593.7656 C1417.7813,593.9063 1418.0156,594.0156 1418.2344,594.0156 C1418.5,594.0156 1418.7656,593.875 1418.9375,593.6563 C1419.0469,593.5 1419.0781,593.3125 1419.0781,592.8906 L1419.0781,591.4688 C1419.0781,591.0313 1419.0625,590.9063 1418.9688,590.75 C1418.8125,590.4844 1418.5313,590.3438 1418.2344,590.3438 C1417.9375,590.3438 1417.7344,590.4375 1417.5156,590.75 L1417.3438,590.6719 Z " fill="#000000"/><text fill="#000000" font-family="sans-serif" font-size="14" lengthAdjust="spacing" textLength="152" x="1429" y="599.8467">FullscreenHtmlParser</text><line style="stroke:#181818;stroke-width:0.5;" x1="1401" x2="1583" y1="611" y2="611"/><line style="stroke:#181818;stroke-width:0.5;" x1="1401" x2="1583" y1="619" y2="619"/></g><!--MD5=[2d1fcd45c4c4c152e082682f66bf097f]
class HeadingHtmlParser--><g id="elem_HeadingHtmlParser"><rect codeLine="19" fill="#F1F1F1" height="48" id="HeadingHtmlParser" rx="2.5" ry="2.5" style="stroke:#181818;stroke-width:0.5;" width="170" x="1619" y="579"/><ellipse cx="1634" cy="595" fill="#ADD1B2" rx="11" ry="11" style="stroke:#181818;stroke-width:1.0;"/><path d="M1636.3438,590.6719 C1635.4063,590.2344 1634.8125,590.0938 1633.9375,590.0938 C1631.3125,590.0938 1629.3125,592.1719 1629.3125,594.8906 L1629.3125,596.0156 C1629.3125,598.5938 1631.4219,600.4844 1634.3125,600.4844 C1635.5313,600.4844 1636.6875,600.1875 1637.4375,599.6406 C1638.0156,599.2344 1638.3438,598.7813 1638.3438,598.3906 C1638.3438,597.9375 1637.9531,597.5469 1637.4844,597.5469 C1637.2656,597.5469 1637.0625,597.625 1636.875,597.8125 C1636.4219,598.2969 1636.4219,598.2969 1636.2344,598.3906 C1635.8125,598.6563 1635.125,598.7813 1634.3594,598.7813 C1632.3125,598.7813 1631.0156,597.6875 1631.0156,595.9844 L1631.0156,594.8906 C1631.0156,593.1094 1632.2656,591.7969 1634,591.7969 C1634.5781,591.7969 1635.1875,591.9531 1635.6563,592.2031 C1636.1406,592.4844 1636.3125,592.7031 1636.4063,593.1094 C1636.4688,593.5156 1636.5,593.6406 1636.6406,593.7656 C1636.7813,593.9063 1637.0156,594.0156 1637.2344,594.0156 C1637.5,594.0156 1637.7656,593.875 1637.9375,593.6563 C1638.0469,593.5 1638.0781,593.3125 1638.0781,592.8906 L1638.0781,591.4688 C1638.0781,591.0313 1638.0625,590.9063 1637.9688,590.75 C1637.8125,590.4844 1637.5313,590.3438 1637.2344,590.3438 C1636.9375,590.3438 1636.7344,590.4375 1636.5156,590.75 L1636.3438,590.6719 Z " fill="#000000"/><text fill="#000000" font-family="sans-serif" font-size="14" lengthAdjust="spacing" textLength="138" x="1648" y="599.8467">HeadingHtmlParser</text><line style="stroke:#181818;stroke-width:0.5;" x1="1620" x2="1788" y1="611" y2="611"/><line style="stroke:#181818;stroke-width:0.5;" x1="1620" x2="1788" y1="619" y2="619"/></g><!--MD5=[0d605e47ba495df9293d0763dc7f3e78]
class ImageHtmlParser--><g id="elem_ImageHtmlParser"><rect codeLine="20" fill="#F1F1F1" height="48" id="ImageHtmlParser" rx="2.5" ry="2.5" style="stroke:#181818;stroke-width:0.5;" width="156" x="1824" y="579"/><ellipse cx="1839" cy="595" fill="#ADD1B2" rx="11" ry="11" style="stroke:#181818;stroke-width:1.0;"/><path d="M1841.3438,590.6719 C1840.4063,590.2344 1839.8125,590.0938 1838.9375,590.0938 C1836.3125,590.0938 1834.3125,592.1719 1834.3125,594.8906 L1834.3125,596.0156 C1834.3125,598.5938 1836.4219,600.4844 1839.3125,600.4844 C1840.5313,600.4844 1841.6875,600.1875 1842.4375,599.6406 C1843.0156,599.2344 1843.3438,598.7813 1843.3438,598.3906 C1843.3438,597.9375 1842.9531,597.5469 1842.4844,597.5469 C1842.2656,597.5469 1842.0625,597.625 1841.875,597.8125 C1841.4219,598.2969 1841.4219,598.2969 1841.2344,598.3906 C1840.8125,598.6563 1840.125,598.7813 1839.3594,598.7813 C1837.3125,598.7813 1836.0156,597.6875 1836.0156,595.9844 L1836.0156,594.8906 C1836.0156,593.1094 1837.2656,591.7969 1839,591.7969 C1839.5781,591.7969 1840.1875,591.9531 1840.6563,592.2031 C1841.1406,592.4844 1841.3125,592.7031 1841.4063,593.1094 C1841.4688,593.5156 1841.5,593.6406 1841.6406,593.7656 C1841.7813,593.9063 1842.0156,594.0156 1842.2344,594.0156 C1842.5,594.0156 1842.7656,593.875 1842.9375,593.6563 C1843.0469,593.5 1843.0781,593.3125 1843.0781,592.8906 L1843.0781,591.4688 C1843.0781,591.0313 1843.0625,590.9063 1842.9688,590.75 C1842.8125,590.4844 1842.5313,590.3438 1842.2344,590.3438 C1841.9375,590.3438 1841.7344,590.4375 1841.5156,590.75 L1841.3438,590.6719 Z " fill="#000000"/><text fill="#000000" font-family="sans-serif" font-size="14" lengthAdjust="spacing" textLength="124" x="1853" y="599.8467">ImageHtmlParser</text><line style="stroke:#181818;stroke-width:0.5;" x1="1825" x2="1979" y1="611" y2="611"/><line style="stroke:#181818;stroke-width:0.5;" x1="1825" x2="1979" y1="619" y2="619"/></g><!--MD5=[46a802cf0304bdf95d24c985ba4cd8c2]
class UnsortedListHtmlParser--><g id="elem_UnsortedListHtmlParser"><rect codeLine="21" fill="#F1F1F1" height="48" id="UnsortedListHtmlParser" rx="2.5" ry="2.5" style="stroke:#181818;stroke-width:0.5;" width="203" x="2015.5" y="579"/><ellipse cx="2030.5" cy="595" fill="#ADD1B2" rx="11" ry="11" style="stroke:#181818;stroke-width:1.0;"/><path d="M2032.8438,590.6719 C2031.9063,590.2344 2031.3125,590.0938 2030.4375,590.0938 C2027.8125,590.0938 2025.8125,592.1719 2025.8125,594.8906 L2025.8125,596.0156 C2025.8125,598.5938 2027.9219,600.4844 2030.8125,600.4844 C2032.0313,600.4844 2033.1875,600.1875 2033.9375,599.6406 C2034.5156,599.2344 2034.8438,598.7813 2034.8438,598.3906 C2034.8438,597.9375 2034.4531,597.5469 2033.9844,597.5469 C2033.7656,597.5469 2033.5625,597.625 2033.375,597.8125 C2032.9219,598.2969 2032.9219,598.2969 2032.7344,598.3906 C2032.3125,598.6563 2031.625,598.7813 2030.8594,598.7813 C2028.8125,598.7813 2027.5156,597.6875 2027.5156,595.9844 L2027.5156,594.8906 C2027.5156,593.1094 2028.7656,591.7969 2030.5,591.7969 C2031.0781,591.7969 2031.6875,591.9531 2032.1563,592.2031 C2032.6406,592.4844 2032.8125,592.7031 2032.9063,593.1094 C2032.9688,593.5156 2033,593.6406 2033.1406,593.7656 C2033.2813,593.9063 2033.5156,594.0156 2033.7344,594.0156 C2034,594.0156 2034.2656,593.875 2034.4375,593.6563 C2034.5469,593.5 2034.5781,593.3125 2034.5781,592.8906 L2034.5781,591.4688 C2034.5781,591.0313 2034.5625,590.9063 2034.4688,590.75 C2034.3125,590.4844 2034.0313,590.3438 2033.7344,590.3438 C2033.4375,590.3438 2033.2344,590.4375 2033.0156,590.75 L2032.8438,590.6719 Z " fill="#000000"/><text fill="#000000" font-family="sans-serif" font-size="14" lengthAdjust="spacing" textLength="171" x="2044.5" y="599.8467">UnsortedListHtmlParser</text><line style="stroke:#181818;stroke-width:0.5;" x1="2016.5" x2="2217.5" y1="611" y2="611"/><line style="stroke:#181818;stroke-width:0.5;" x1="2016.5" x2="2217.5" y1="619" y2="619"/></g><!--MD5=[e0af6788fb8f8ab60e07e9864f9fcb66]
class AnchorParser--><g id="elem_AnchorParser"><rect codeLine="23" fill="#F1F1F1" height="80.5938" id="AnchorParser" rx="2.5" ry="2.5" style="stroke:#181818;stroke-width:0.5;" width="457" x="848.5" y="687"/><ellipse cx="1024.75" cy="703" fill="#B4A7E5" rx="11" ry="11" style="stroke:#181818;stroke-width:1.0;"/><path d="M1025.7031,699.7813 L1027.4219,699.7813 C1027.8125,699.7813 1028,699.75 1028.125,699.6719 C1028.3906,699.5156 1028.5313,699.2344 1028.5313,698.9375 C1028.5313,698.6719 1028.4219,698.4063 1028.1875,698.2344 C1028.0156,698.125 1027.875,698.0938 1027.4219,698.0938 L1022.2813,698.0938 C1021.8438,698.0938 1021.7188,698.1094 1021.5625,698.2031 C1021.3125,698.3594 1021.1563,698.6563 1021.1563,698.9375 C1021.1563,699.2188 1021.2969,699.4688 1021.5156,699.6406 C1021.6719,699.75 1021.8594,699.7813 1022.2813,699.7813 L1024,699.7813 L1024,706.2969 L1022.2813,706.2969 C1021.8438,706.2969 1021.7188,706.3125 1021.5625,706.4219 C1021.3125,706.5781 1021.1563,706.8594 1021.1563,707.1563 C1021.1563,707.4063 1021.2969,707.6719 1021.5156,707.8281 C1021.6719,707.9531 1021.875,708 1022.2813,708 L1027.4219,708 C1028.1719,708 1028.5313,707.7188 1028.5313,707.1563 C1028.5313,706.875 1028.4219,706.625 1028.1875,706.4531 C1028.0156,706.3281 1027.875,706.2969 1027.4219,706.2969 L1025.7031,706.2969 L1025.7031,699.7813 Z " fill="#000000"/><text fill="#000000" font-family="sans-serif" font-size="14" font-style="italic" lengthAdjust="spacing" textLength="96" x="1045.25" y="707.8467">AnchorParser</text><line style="stroke:#181818;stroke-width:0.5;" x1="849.5" x2="1304.5" y1="719" y2="719"/><line style="stroke:#181818;stroke-width:0.5;" x1="849.5" x2="1304.5" y1="727" y2="727"/><text fill="#000000" font-family="sans-serif" font-size="14" lengthAdjust="spacing" textLength="328" x="854.5" y="743.9951">canParse(anchor: HTMLAnchorElement) : bool</text><text fill="#000000" font-family="sans-serif" font-size="14" lengthAdjust="spacing" textLength="445" x="854.5" y="760.292">async parse(file: string, anchor: HTMLAnchorElement) : string;</text></g><!--MD5=[4738584733fbc1b5bc1a4c557d2d9dfe]
class AsyncapiAnchorParser--><g id="elem_AsyncapiAnchorParser"><rect codeLine="27" fill="#F1F1F1" height="48" id="AsyncapiAnchorParser" rx="2.5" ry="2.5" style="stroke:#181818;stroke-width:0.5;" width="192" x="7" y="828"/><ellipse cx="22" cy="844" fill="#ADD1B2" rx="11" ry="11" style="stroke:#181818;stroke-width:1.0;"/><path d="M24.3438,839.6719 C23.4063,839.2344 22.8125,839.0938 21.9375,839.0938 C19.3125,839.0938 17.3125,841.1719 17.3125,843.8906 L17.3125,845.0156 C17.3125,847.5938 19.4219,849.4844 22.3125,849.4844 C23.5313,849.4844 24.6875,849.1875 25.4375,848.6406 C26.0156,848.2344 26.3438,847.7813 26.3438,847.3906 C26.3438,846.9375 25.9531,846.5469 25.4844,846.5469 C25.2656,846.5469 25.0625,846.625 24.875,846.8125 C24.4219,847.2969 24.4219,847.2969 24.2344,847.3906 C23.8125,847.6563 23.125,847.7813 22.3594,847.7813 C20.3125,847.7813 19.0156,846.6875 19.0156,844.9844 L19.0156,843.8906 C19.0156,842.1094 20.2656,840.7969 22,840.7969 C22.5781,840.7969 23.1875,840.9531 23.6563,841.2031 C24.1406,841.4844 24.3125,841.7031 24.4063,842.1094 C24.4688,842.5156 24.5,842.6406 24.6406,842.7656 C24.7813,842.9063 25.0156,843.0156 25.2344,843.0156 C25.5,843.0156 25.7656,842.875 25.9375,842.6563 C26.0469,842.5 26.0781,842.3125 26.0781,841.8906 L26.0781,840.4688 C26.0781,840.0313 26.0625,839.9063 25.9688,839.75 C25.8125,839.4844 25.5313,839.3438 25.2344,839.3438 C24.9375,839.3438 24.7344,839.4375 24.5156,839.75 L24.3438,839.6719 Z " fill="#000000"/><text fill="#000000" font-family="sans-serif" font-size="14" lengthAdjust="spacing" textLength="160" x="36" y="848.8467">AsyncapiAnchorParser</text><line style="stroke:#181818;stroke-width:0.5;" x1="8" x2="198" y1="860" y2="860"/><line style="stroke:#181818;stroke-width:0.5;" x1="8" x2="198" y1="868" y2="868"/></g><!--MD5=[df05865009757c2c6001e321b6b8aff1]
class BPMNAnchorParser--><g id="elem_BPMNAnchorParser"><rect codeLine="28" fill="#F1F1F1" height="48" id="BPMNAnchorParser" rx="2.5" ry="2.5" style="stroke:#181818;stroke-width:0.5;" width="169" x="234.5" y="828"/><ellipse cx="249.5" cy="844" fill="#ADD1B2" rx="11" ry="11" style="stroke:#181818;stroke-width:1.0;"/><path d="M251.8438,839.6719 C250.9063,839.2344 250.3125,839.0938 249.4375,839.0938 C246.8125,839.0938 244.8125,841.1719 244.8125,843.8906 L244.8125,845.0156 C244.8125,847.5938 246.9219,849.4844 249.8125,849.4844 C251.0313,849.4844 252.1875,849.1875 252.9375,848.6406 C253.5156,848.2344 253.8438,847.7813 253.8438,847.3906 C253.8438,846.9375 253.4531,846.5469 252.9844,846.5469 C252.7656,846.5469 252.5625,846.625 252.375,846.8125 C251.9219,847.2969 251.9219,847.2969 251.7344,847.3906 C251.3125,847.6563 250.625,847.7813 249.8594,847.7813 C247.8125,847.7813 246.5156,846.6875 246.5156,844.9844 L246.5156,843.8906 C246.5156,842.1094 247.7656,840.7969 249.5,840.7969 C250.0781,840.7969 250.6875,840.9531 251.1563,841.2031 C251.6406,841.4844 251.8125,841.7031 251.9063,842.1094 C251.9688,842.5156 252,842.6406 252.1406,842.7656 C252.2813,842.9063 252.5156,843.0156 252.7344,843.0156 C253,843.0156 253.2656,842.875 253.4375,842.6563 C253.5469,842.5 253.5781,842.3125 253.5781,841.8906 L253.5781,840.4688 C253.5781,840.0313 253.5625,839.9063 253.4688,839.75 C253.3125,839.4844 253.0313,839.3438 252.7344,839.3438 C252.4375,839.3438 252.2344,839.4375 252.0156,839.75 L251.8438,839.6719 Z " fill="#000000"/><text fill="#000000" font-family="sans-serif" font-size="14" lengthAdjust="spacing" textLength="137" x="263.5" y="848.8467">BPMNAnchorParser</text><line style="stroke:#181818;stroke-width:0.5;" x1="235.5" x2="402.5" y1="860" y2="860"/><line style="stroke:#181818;stroke-width:0.5;" x1="235.5" x2="402.5" y1="868" y2="868"/></g><!--MD5=[999d69199391c453560fec7b53f2ebe3]
class CodeAnchorParser--><g id="elem_CodeAnchorParser"><rect codeLine="29" fill="#F1F1F1" height="48" id="CodeAnchorParser" rx="2.5" ry="2.5" style="stroke:#181818;stroke-width:0.5;" width="165" x="438.5" y="828"/><ellipse cx="453.5" cy="844" fill="#ADD1B2" rx="11" ry="11" style="stroke:#181818;stroke-width:1.0;"/><path d="M455.8438,839.6719 C454.9063,839.2344 454.3125,839.0938 453.4375,839.0938 C450.8125,839.0938 448.8125,841.1719 448.8125,843.8906 L448.8125,845.0156 C448.8125,847.5938 450.9219,849.4844 453.8125,849.4844 C455.0313,849.4844 456.1875,849.1875 456.9375,848.6406 C457.5156,848.2344 457.8438,847.7813 457.8438,847.3906 C457.8438,846.9375 457.4531,846.5469 456.9844,846.5469 C456.7656,846.5469 456.5625,846.625 456.375,846.8125 C455.9219,847.2969 455.9219,847.2969 455.7344,847.3906 C455.3125,847.6563 454.625,847.7813 453.8594,847.7813 C451.8125,847.7813 450.5156,846.6875 450.5156,844.9844 L450.5156,843.8906 C450.5156,842.1094 451.7656,840.7969 453.5,840.7969 C454.0781,840.7969 454.6875,840.9531 455.1563,841.2031 C455.6406,841.4844 455.8125,841.7031 455.9063,842.1094 C455.9688,842.5156 456,842.6406 456.1406,842.7656 C456.2813,842.9063 456.5156,843.0156 456.7344,843.0156 C457,843.0156 457.2656,842.875 457.4375,842.6563 C457.5469,842.5 457.5781,842.3125 457.5781,841.8906 L457.5781,840.4688 C457.5781,840.0313 457.5625,839.9063 457.4688,839.75 C457.3125,839.4844 457.0313,839.3438 456.7344,839.3438 C456.4375,839.3438 456.2344,839.4375 456.0156,839.75 L455.8438,839.6719 Z " fill="#000000"/><text fill="#000000" font-family="sans-serif" font-size="14" lengthAdjust="spacing" textLength="133" x="467.5" y="848.8467">CodeAnchorParser</text><line style="stroke:#181818;stroke-width:0.5;" x1="439.5" x2="602.5" y1="860" y2="860"/><line style="stroke:#181818;stroke-width:0.5;" x1="439.5" x2="602.5" y1="868" y2="868"/></g><!--MD5=[cc3734e1f3bdf7cd2741865dd38f44cb]
class DashboardAnchorParser--><g id="elem_DashboardAnchorParser"><rect codeLine="30" fill="#F1F1F1" height="48" id="DashboardAnchorParser" rx="2.5" ry="2.5" style="stroke:#181818;stroke-width:0.5;" width="205" x="638.5" y="828"/><ellipse cx="653.5" cy="844" fill="#ADD1B2" rx="11" ry="11" style="stroke:#181818;stroke-width:1.0;"/><path d="M655.8438,839.6719 C654.9063,839.2344 654.3125,839.0938 653.4375,839.0938 C650.8125,839.0938 648.8125,841.1719 648.8125,843.8906 L648.8125,845.0156 C648.8125,847.5938 650.9219,849.4844 653.8125,849.4844 C655.0313,849.4844 656.1875,849.1875 656.9375,848.6406 C657.5156,848.2344 657.8438,847.7813 657.8438,847.3906 C657.8438,846.9375 657.4531,846.5469 656.9844,846.5469 C656.7656,846.5469 656.5625,846.625 656.375,846.8125 C655.9219,847.2969 655.9219,847.2969 655.7344,847.3906 C655.3125,847.6563 654.625,847.7813 653.8594,847.7813 C651.8125,847.7813 650.5156,846.6875 650.5156,844.9844 L650.5156,843.8906 C650.5156,842.1094 651.7656,840.7969 653.5,840.7969 C654.0781,840.7969 654.6875,840.9531 655.1563,841.2031 C655.6406,841.4844 655.8125,841.7031 655.9063,842.1094 C655.9688,842.5156 656,842.6406 656.1406,842.7656 C656.2813,842.9063 656.5156,843.0156 656.7344,843.0156 C657,843.0156 657.2656,842.875 657.4375,842.6563 C657.5469,842.5 657.5781,842.3125 657.5781,841.8906 L657.5781,840.4688 C657.5781,840.0313 657.5625,839.9063 657.4688,839.75 C657.3125,839.4844 657.0313,839.3438 656.7344,839.3438 C656.4375,839.3438 656.2344,839.4375 656.0156,839.75 L655.8438,839.6719 Z " fill="#000000"/><text fill="#000000" font-family="sans-serif" font-size="14" lengthAdjust="spacing" textLength="173" x="667.5" y="848.8467">DashboardAnchorParser</text><line style="stroke:#181818;stroke-width:0.5;" x1="639.5" x2="842.5" y1="860" y2="860"/><line style="stroke:#181818;stroke-width:0.5;" x1="639.5" x2="842.5" y1="868" y2="868"/></g><!--MD5=[e233be8382c463f8f58e6549b5a7c7ae]
class FeatureAnchorParser--><g id="elem_FeatureAnchorParser"><rect codeLine="31" fill="#F1F1F1" height="48" id="FeatureAnchorParser" rx="2.5" ry="2.5" style="stroke:#181818;stroke-width:0.5;" width="183" x="878.5" y="828"/><ellipse cx="893.5" cy="844" fill="#ADD1B2" rx="11" ry="11" style="stroke:#181818;stroke-width:1.0;"/><path d="M895.8438,839.6719 C894.9063,839.2344 894.3125,839.0938 893.4375,839.0938 C890.8125,839.0938 888.8125,841.1719 888.8125,843.8906 L888.8125,845.0156 C888.8125,847.5938 890.9219,849.4844 893.8125,849.4844 C895.0313,849.4844 896.1875,849.1875 896.9375,848.6406 C897.5156,848.2344 897.8438,847.7813 897.8438,847.3906 C897.8438,846.9375 897.4531,846.5469 896.9844,846.5469 C896.7656,846.5469 896.5625,846.625 896.375,846.8125 C895.9219,847.2969 895.9219,847.2969 895.7344,847.3906 C895.3125,847.6563 894.625,847.7813 893.8594,847.7813 C891.8125,847.7813 890.5156,846.6875 890.5156,844.9844 L890.5156,843.8906 C890.5156,842.1094 891.7656,840.7969 893.5,840.7969 C894.0781,840.7969 894.6875,840.9531 895.1563,841.2031 C895.6406,841.4844 895.8125,841.7031 895.9063,842.1094 C895.9688,842.5156 896,842.6406 896.1406,842.7656 C896.2813,842.9063 896.5156,843.0156 896.7344,843.0156 C897,843.0156 897.2656,842.875 897.4375,842.6563 C897.5469,842.5 897.5781,842.3125 897.5781,841.8906 L897.5781,840.4688 C897.5781,840.0313 897.5625,839.9063 897.4688,839.75 C897.3125,839.4844 897.0313,839.3438 896.7344,839.3438 C896.4375,839.3438 896.2344,839.4375 896.0156,839.75 L895.8438,839.6719 Z " fill="#000000"/><text fill="#000000" font-family="sans-serif" font-size="14" lengthAdjust="spacing" textLength="151" x="907.5" y="848.8467">FeatureAnchorParser</text><line style="stroke:#181818;stroke-width:0.5;" x1="879.5" x2="1060.5" y1="860" y2="860"/><line style="stroke:#181818;stroke-width:0.5;" x1="879.5" x2="1060.5" y1="868" y2="868"/></g><!--MD5=[28cf386c911fc43da535744d4cc3107f]
class IFrameAnchorParser--><g id="elem_IFrameAnchorParser"><rect codeLine="32" fill="#F1F1F1" height="48" id="IFrameAnchorParser" rx="2.5" ry="2.5" style="stroke:#181818;stroke-width:0.5;" width="177" x="1096.5" y="828"/><ellipse cx="1111.5" cy="844" fill="#ADD1B2" rx="11" ry="11" style="stroke:#181818;stroke-width:1.0;"/><path d="M1113.8438,839.6719 C1112.9063,839.2344 1112.3125,839.0938 1111.4375,839.0938 C1108.8125,839.0938 1106.8125,841.1719 1106.8125,843.8906 L1106.8125,845.0156 C1106.8125,847.5938 1108.9219,849.4844 1111.8125,849.4844 C1113.0313,849.4844 1114.1875,849.1875 1114.9375,848.6406 C1115.5156,848.2344 1115.8438,847.7813 1115.8438,847.3906 C1115.8438,846.9375 1115.4531,846.5469 1114.9844,846.5469 C1114.7656,846.5469 1114.5625,846.625 1114.375,846.8125 C1113.9219,847.2969 1113.9219,847.2969 1113.7344,847.3906 C1113.3125,847.6563 1112.625,847.7813 1111.8594,847.7813 C1109.8125,847.7813 1108.5156,846.6875 1108.5156,844.9844 L1108.5156,843.8906 C1108.5156,842.1094 1109.7656,840.7969 1111.5,840.7969 C1112.0781,840.7969 1112.6875,840.9531 1113.1563,841.2031 C1113.6406,841.4844 1113.8125,841.7031 1113.9063,842.1094 C1113.9688,842.5156 1114,842.6406 1114.1406,842.7656 C1114.2813,842.9063 1114.5156,843.0156 1114.7344,843.0156 C1115,843.0156 1115.2656,842.875 1115.4375,842.6563 C1115.5469,842.5 1115.5781,842.3125 1115.5781,841.8906 L1115.5781,840.4688 C1115.5781,840.0313 1115.5625,839.9063 1115.4688,839.75 C1115.3125,839.4844 1115.0313,839.3438 1114.7344,839.3438 C1114.4375,839.3438 1114.2344,839.4375 1114.0156,839.75 L1113.8438,839.6719 Z " fill="#000000"/><text fill="#000000" font-family="sans-serif" font-size="14" lengthAdjust="spacing" textLength="145" x="1125.5" y="848.8467">IFrameAnchorParser</text><line style="stroke:#181818;stroke-width:0.5;" x1="1097.5" x2="1272.5" y1="860" y2="860"/><line style="stroke:#181818;stroke-width:0.5;" x1="1097.5" x2="1272.5" y1="868" y2="868"/></g><!--MD5=[c1f5352ebb963a2a187317bad15d7ef0]
class MarkdownAnchorParser--><g id="elem_MarkdownAnchorParser"><rect codeLine="33" fill="#F1F1F1" height="48" id="MarkdownAnchorParser" rx="2.5" ry="2.5" style="stroke:#181818;stroke-width:0.5;" width="201" x="1308.5" y="828"/><ellipse cx="1323.5" cy="844" fill="#ADD1B2" rx="11" ry="11" style="stroke:#181818;stroke-width:1.0;"/><path d="M1325.8438,839.6719 C1324.9063,839.2344 1324.3125,839.0938 1323.4375,839.0938 C1320.8125,839.0938 1318.8125,841.1719 1318.8125,843.8906 L1318.8125,845.0156 C1318.8125,847.5938 1320.9219,849.4844 1323.8125,849.4844 C1325.0313,849.4844 1326.1875,849.1875 1326.9375,848.6406 C1327.5156,848.2344 1327.8438,847.7813 1327.8438,847.3906 C1327.8438,846.9375 1327.4531,846.5469 1326.9844,846.5469 C1326.7656,846.5469 1326.5625,846.625 1326.375,846.8125 C1325.9219,847.2969 1325.9219,847.2969 1325.7344,847.3906 C1325.3125,847.6563 1324.625,847.7813 1323.8594,847.7813 C1321.8125,847.7813 1320.5156,846.6875 1320.5156,844.9844 L1320.5156,843.8906 C1320.5156,842.1094 1321.7656,840.7969 1323.5,840.7969 C1324.0781,840.7969 1324.6875,840.9531 1325.1563,841.2031 C1325.6406,841.4844 1325.8125,841.7031 1325.9063,842.1094 C1325.9688,842.5156 1326,842.6406 1326.1406,842.7656 C1326.2813,842.9063 1326.5156,843.0156 1326.7344,843.0156 C1327,843.0156 1327.2656,842.875 1327.4375,842.6563 C1327.5469,842.5 1327.5781,842.3125 1327.5781,841.8906 L1327.5781,840.4688 C1327.5781,840.0313 1327.5625,839.9063 1327.4688,839.75 C1327.3125,839.4844 1327.0313,839.3438 1326.7344,839.3438 C1326.4375,839.3438 1326.2344,839.4375 1326.0156,839.75 L1325.8438,839.6719 Z " fill="#000000"/><text fill="#000000" font-family="sans-serif" font-size="14" lengthAdjust="spacing" textLength="169" x="1337.5" y="848.8467">MarkdownAnchorParser</text><line style="stroke:#181818;stroke-width:0.5;" x1="1309.5" x2="1508.5" y1="860" y2="860"/><line style="stroke:#181818;stroke-width:0.5;" x1="1309.5" x2="1508.5" y1="868" y2="868"/></g><!--MD5=[769ccb447facf6e5b7b6ff683a6bda04]
class OpenapiAnchorParser--><g id="elem_OpenapiAnchorParser"><rect codeLine="34" fill="#F1F1F1" height="48" id="OpenapiAnchorParser" rx="2.5" ry="2.5" style="stroke:#181818;stroke-width:0.5;" width="189" x="1544.5" y="828"/><ellipse cx="1559.5" cy="844" fill="#ADD1B2" rx="11" ry="11" style="stroke:#181818;stroke-width:1.0;"/><path d="M1561.8438,839.6719 C1560.9063,839.2344 1560.3125,839.0938 1559.4375,839.0938 C1556.8125,839.0938 1554.8125,841.1719 1554.8125,843.8906 L1554.8125,845.0156 C1554.8125,847.5938 1556.9219,849.4844 1559.8125,849.4844 C1561.0313,849.4844 1562.1875,849.1875 1562.9375,848.6406 C1563.5156,848.2344 1563.8438,847.7813 1563.8438,847.3906 C1563.8438,846.9375 1563.4531,846.5469 1562.9844,846.5469 C1562.7656,846.5469 1562.5625,846.625 1562.375,846.8125 C1561.9219,847.2969 1561.9219,847.2969 1561.7344,847.3906 C1561.3125,847.6563 1560.625,847.7813 1559.8594,847.7813 C1557.8125,847.7813 1556.5156,846.6875 1556.5156,844.9844 L1556.5156,843.8906 C1556.5156,842.1094 1557.7656,840.7969 1559.5,840.7969 C1560.0781,840.7969 1560.6875,840.9531 1561.1563,841.2031 C1561.6406,841.4844 1561.8125,841.7031 1561.9063,842.1094 C1561.9688,842.5156 1562,842.6406 1562.1406,842.7656 C1562.2813,842.9063 1562.5156,843.0156 1562.7344,843.0156 C1563,843.0156 1563.2656,842.875 1563.4375,842.6563 C1563.5469,842.5 1563.5781,842.3125 1563.5781,841.8906 L1563.5781,840.4688 C1563.5781,840.0313 1563.5625,839.9063 1563.4688,839.75 C1563.3125,839.4844 1563.0313,839.3438 1562.7344,839.3438 C1562.4375,839.3438 1562.2344,839.4375 1562.0156,839.75 L1561.8438,839.6719 Z " fill="#000000"/><text fill="#000000" font-family="sans-serif" font-size="14" lengthAdjust="spacing" textLength="157" x="1573.5" y="848.8467">OpenapiAnchorParser</text><line style="stroke:#181818;stroke-width:0.5;" x1="1545.5" x2="1732.5" y1="860" y2="860"/><line style="stroke:#181818;stroke-width:0.5;" x1="1545.5" x2="1732.5" y1="868" y2="868"/></g><!--MD5=[377523b98450dfca06cecbb60b0d2816]
class UmlAnchorParser--><g id="elem_UmlAnchorParser"><rect codeLine="35" fill="#F1F1F1" height="48" id="UmlAnchorParser" rx="2.5" ry="2.5" style="stroke:#181818;stroke-width:0.5;" width="155" x="1953.5" y="7"/><ellipse cx="1968.5" cy="23" fill="#ADD1B2" rx="11" ry="11" style="stroke:#181818;stroke-width:1.0;"/><path d="M1970.8438,18.6719 C1969.9063,18.2344 1969.3125,18.0938 1968.4375,18.0938 C1965.8125,18.0938 1963.8125,20.1719 1963.8125,22.8906 L1963.8125,24.0156 C1963.8125,26.5938 1965.9219,28.4844 1968.8125,28.4844 C1970.0313,28.4844 1971.1875,28.1875 1971.9375,27.6406 C1972.5156,27.2344 1972.8438,26.7813 1972.8438,26.3906 C1972.8438,25.9375 1972.4531,25.5469 1971.9844,25.5469 C1971.7656,25.5469 1971.5625,25.625 1971.375,25.8125 C1970.9219,26.2969 1970.9219,26.2969 1970.7344,26.3906 C1970.3125,26.6563 1969.625,26.7813 1968.8594,26.7813 C1966.8125,26.7813 1965.5156,25.6875 1965.5156,23.9844 L1965.5156,22.8906 C1965.5156,21.1094 1966.7656,19.7969 1968.5,19.7969 C1969.0781,19.7969 1969.6875,19.9531 1970.1563,20.2031 C1970.6406,20.4844 1970.8125,20.7031 1970.9063,21.1094 C1970.9688,21.5156 1971,21.6406 1971.1406,21.7656 C1971.2813,21.9063 1971.5156,22.0156 1971.7344,22.0156 C1972,22.0156 1972.2656,21.875 1972.4375,21.6563 C1972.5469,21.5 1972.5781,21.3125 1972.5781,20.8906 L1972.5781,19.4688 C1972.5781,19.0313 1972.5625,18.9063 1972.4688,18.75 C1972.3125,18.4844 1972.0313,18.3438 1971.7344,18.3438 C1971.4375,18.3438 1971.2344,18.4375 1971.0156,18.75 L1970.8438,18.6719 Z " fill="#000000"/><text fill="#000000" font-family="sans-serif" font-size="14" lengthAdjust="spacing" textLength="123" x="1982.5" y="27.8467">UmlAnchorParser</text><line style="stroke:#181818;stroke-width:0.5;" x1="1954.5" x2="2107.5" y1="39" y2="39"/><line style="stroke:#181818;stroke-width:0.5;" x1="1954.5" x2="2107.5" y1="47" y2="47"/></g><!--MD5=[80a3d3ff3a8d9a1a32a59aff667320b8]
class UserTaskAnchorParser--><g id="elem_UserTaskAnchorParser"><rect codeLine="36" fill="#F1F1F1" height="48" id="UserTaskAnchorParser" rx="2.5" ry="2.5" style="stroke:#181818;stroke-width:0.5;" width="192" x="1769" y="828"/><ellipse cx="1784" cy="844" fill="#ADD1B2" rx="11" ry="11" style="stroke:#181818;stroke-width:1.0;"/><path d="M1786.3438,839.6719 C1785.4063,839.2344 1784.8125,839.0938 1783.9375,839.0938 C1781.3125,839.0938 1779.3125,841.1719 1779.3125,843.8906 L1779.3125,845.0156 C1779.3125,847.5938 1781.4219,849.4844 1784.3125,849.4844 C1785.5313,849.4844 1786.6875,849.1875 1787.4375,848.6406 C1788.0156,848.2344 1788.3438,847.7813 1788.3438,847.3906 C1788.3438,846.9375 1787.9531,846.5469 1787.4844,846.5469 C1787.2656,846.5469 1787.0625,846.625 1786.875,846.8125 C1786.4219,847.2969 1786.4219,847.2969 1786.2344,847.3906 C1785.8125,847.6563 1785.125,847.7813 1784.3594,847.7813 C1782.3125,847.7813 1781.0156,846.6875 1781.0156,844.9844 L1781.0156,843.8906 C1781.0156,842.1094 1782.2656,840.7969 1784,840.7969 C1784.5781,840.7969 1785.1875,840.9531 1785.6563,841.2031 C1786.1406,841.4844 1786.3125,841.7031 1786.4063,842.1094 C1786.4688,842.5156 1786.5,842.6406 1786.6406,842.7656 C1786.7813,842.9063 1787.0156,843.0156 1787.2344,843.0156 C1787.5,843.0156 1787.7656,842.875 1787.9375,842.6563 C1788.0469,842.5 1788.0781,842.3125 1788.0781,841.8906 L1788.0781,840.4688 C1788.0781,840.0313 1788.0625,839.9063 1787.9688,839.75 C1787.8125,839.4844 1787.5313,839.3438 1787.2344,839.3438 C1786.9375,839.3438 1786.7344,839.4375 1786.5156,839.75 L1786.3438,839.6719 Z " fill="#000000"/><text fill="#000000" font-family="sans-serif" font-size="14" lengthAdjust="spacing" textLength="160" x="1798" y="848.8467">UserTaskAnchorParser</text><line style="stroke:#181818;stroke-width:0.5;" x1="1770" x2="1960" y1="860" y2="860"/><line style="stroke:#181818;stroke-width:0.5;" x1="1770" x2="1960" y1="868" y2="868"/></g><!--MD5=[b1b26d58899ee56fc8316c1b7081b575]
class UrlRewriteAnchorParser--><g id="elem_UrlRewriteAnchorParser"><rect fill="#F1F1F1" height="48" id="UrlRewriteAnchorParser" rx="2.5" ry="2.5" style="stroke:#181818;stroke-width:0.5;" width="203" x="1996.5" y="828"/><ellipse cx="2011.5" cy="844" fill="#ADD1B2" rx="11" ry="11" style="stroke:#181818;stroke-width:1.0;"/><path d="M2013.8438,839.6719 C2012.9063,839.2344 2012.3125,839.0938 2011.4375,839.0938 C2008.8125,839.0938 2006.8125,841.1719 2006.8125,843.8906 L2006.8125,845.0156 C2006.8125,847.5938 2008.9219,849.4844 2011.8125,849.4844 C2013.0313,849.4844 2014.1875,849.1875 2014.9375,848.6406 C2015.5156,848.2344 2015.8438,847.7813 2015.8438,847.3906 C2015.8438,846.9375 2015.4531,846.5469 2014.9844,846.5469 C2014.7656,846.5469 2014.5625,846.625 2014.375,846.8125 C2013.9219,847.2969 2013.9219,847.2969 2013.7344,847.3906 C2013.3125,847.6563 2012.625,847.7813 2011.8594,847.7813 C2009.8125,847.7813 2008.5156,846.6875 2008.5156,844.9844 L2008.5156,843.8906 C2008.5156,842.1094 2009.7656,840.7969 2011.5,840.7969 C2012.0781,840.7969 2012.6875,840.9531 2013.1563,841.2031 C2013.6406,841.4844 2013.8125,841.7031 2013.9063,842.1094 C2013.9688,842.5156 2014,842.6406 2014.1406,842.7656 C2014.2813,842.9063 2014.5156,843.0156 2014.7344,843.0156 C2015,843.0156 2015.2656,842.875 2015.4375,842.6563 C2015.5469,842.5 2015.5781,842.3125 2015.5781,841.8906 L2015.5781,840.4688 C2015.5781,840.0313 2015.5625,839.9063 2015.4688,839.75 C2015.3125,839.4844 2015.0313,839.3438 2014.7344,839.3438 C2014.4375,839.3438 2014.2344,839.4375 2014.0156,839.75 L2013.8438,839.6719 Z " fill="#000000"/><text fill="#000000" font-family="sans-serif" font-size="14" lengthAdjust="spacing" textLength="171" x="2025.5" y="848.8467">UrlRewriteAnchorParser</text><line style="stroke:#181818;stroke-width:0.5;" x1="1997.5" x2="2198.5" y1="860" y2="860"/><line style="stroke:#181818;stroke-width:0.5;" x1="1997.5" x2="2198.5" y1="868" y2="868"/></g><!--MD5=[dfaf53ba638977e9922bf8167f52c559]
reverse link CompositeFileParser to FileParser--><g id="link_CompositeFileParser_FileParser"><path codeLine="38" d="M1816.05,68.067 C1814.85,83.064 1815,100.307 1816.49,114.755 " fill="none" id="CompositeFileParser-backto-FileParser" style="stroke:#181818;stroke-width:1.0;"/><polygon fill="#181818" points="1817.52,55.07,1812.8701,60.5817,1816.1693,66.9937,1820.8193,61.4821,1817.52,55.07" style="stroke:#181818;stroke-width:1.0;"/><text fill="#000000" font-family="sans-serif" font-size="13" lengthAdjust="spacing" textLength="64" x="1743.924" y="103.9809">has many</text></g><!--MD5=[96eea251769b04c9266617b2e05e9298]
link CompositeFileParser to FileParser--><g id="link_CompositeFileParser_FileParser"><path codeLine="44" d="M1839.1,55.07 C1840.95,66.476 1841.73,80.731 1841.44,94.548 " fill="none" id="CompositeFileParser-to-FileParser" style="stroke:#181818;stroke-width:1.0;stroke-dasharray:7.0,7.0;"/><polygon fill="none" points="1848.41,95.226,1840.19,114.755,1834.44,94.36,1848.41,95.226" style="stroke:#181818;stroke-width:1.0;"/></g><!--MD5=[95f2767fd219bd715afa8402715eb344]
reverse link FileParser to DrawIOFileParser--><g id="link_FileParser_DrawIOFileParser"><path codeLine="39" d="M1696.88,182.842 C1624.42,202.098 1536.92,225.35 1475.56,241.655 " fill="none" id="FileParser-backto-DrawIOFileParser" style="stroke:#181818;stroke-width:1.0;stroke-dasharray:7.0,7.0;"/><polygon fill="none" points="1695.28,176.026,1716.41,177.655,1698.87,189.556,1695.28,176.026" style="stroke:#181818;stroke-width:1.0;"/></g><!--MD5=[790352d5782addf3ca76f2d5d4e08abf]
reverse link FileParser to MarkdownFileParser--><g id="link_FileParser_MarkdownFileParser"><path codeLine="40" d="M1747.4,187.947 C1712.96,205.019 1673.98,224.34 1644.48,238.964 " fill="none" id="FileParser-backto-MarkdownFileParser" style="stroke:#181818;stroke-width:1.0;stroke-dasharray:7.0,7.0;"/><polygon fill="none" points="1744.43,181.61,1765.46,179,1750.64,194.154,1744.43,181.61" style="stroke:#181818;stroke-width:1.0;"/></g><!--MD5=[d3047e29bde787cf1d29aa131fdb1755]
reverse link FileParser to MarkdownEmailFileParser--><g id="link_FileParser_MarkdownEmailFileParser"><path codeLine="41" d="M1828,199.348 C1828,213.162 1828,227.424 1828,238.845 " fill="none" id="FileParser-backto-MarkdownEmailFileParser" style="stroke:#181818;stroke-width:1.0;stroke-dasharray:7.0,7.0;"/><polygon fill="none" points="1821,199.151,1828,179.151,1835,199.151,1821,199.151" style="stroke:#181818;stroke-width:1.0;"/></g><!--MD5=[2f3faceb55c44367840951ec687a7c1a]
reverse link FileParser to MarkdownMessageFileParser--><g id="link_FileParser_MarkdownMessageFileParser"><path codeLine="42" d="M1917.23,187.123 C1956.62,204.395 2001.57,224.104 2035.46,238.964 " fill="none" id="FileParser-backto-MarkdownMessageFileParser" style="stroke:#181818;stroke-width:1.0;stroke-dasharray:7.0,7.0;"/><polygon fill="none" points="1914.21,193.442,1898.7,179,1919.83,180.621,1914.21,193.442" style="stroke:#181818;stroke-width:1.0;"/></g><!--MD5=[300b973a1c9968b4df208827f6a5233c]
reverse link FileParser to UMLFileParser--><g id="link_FileParser_UMLFileParser"><path codeLine="43" d="M1959.34,176.645 C2036.61,193.878 2136.09,216.73 2224,239 C2229.65,240.432 2235.51,241.962 2241.38,243.526 " fill="none" id="FileParser-backto-UMLFileParser" style="stroke:#181818;stroke-width:1.0;stroke-dasharray:7.0,7.0;"/><polygon fill="none" points="1957.7,183.45,1939.69,172.277,1960.74,169.784,1957.7,183.45" style="stroke:#181818;stroke-width:1.0;"/></g><!--MD5=[f1cd19c778897e681d386933189cf150]
link MarkdownFileParser to MarkdownRenderer--><g id="link_MarkdownFileParser_MarkdownRenderer"><path codeLine="46" d="M1598,287 C1598,303.003 1598,324.446 1598,341.528 " fill="none" id="MarkdownFileParser-to-MarkdownRenderer" style="stroke:#181818;stroke-width:1.0;"/><polygon fill="#181818" points="1598,346.678,1602,337.678,1598,341.678,1594,337.678,1598,346.678" style="stroke:#181818;stroke-width:1.0;"/><text fill="#000000" font-family="sans-serif" font-size="13" lengthAdjust="spacing" textLength="30" x="1564.3438" y="336.0045">uses</text></g><!--MD5=[f195b6b0a79630399fbb0e69c8df586f]
reverse link MarkdownRenderer to HtmlParser--><g id="link_MarkdownRenderer_HtmlParser"><path codeLine="48" d="M1598,408.527 C1598,423.416 1598,440.455 1598,454.755 " fill="none" id="MarkdownRenderer-backto-HtmlParser" style="stroke:#181818;stroke-width:1.0;"/><polygon fill="#181818" points="1598,395.07,1594,401.07,1598,407.07,1602,401.07,1598,395.07" style="stroke:#181818;stroke-width:1.0;"/><text fill="#000000" font-family="sans-serif" font-size="13" lengthAdjust="spacing" textLength="64" x="1527.7" y="443.9809">has many</text></g><!--MD5=[c166653085d7bc9e196a21fa71244fba]
reverse link HtmlParser to AnchorHtmlParser--><g id="link_HtmlParser_AnchorHtmlParser"><path codeLine="50" d="M1438.02,521.873 C1359.08,538.746 1262.47,559.634 1176,579 C1170.32,580.273 1164.46,581.599 1158.55,582.945 " fill="none" id="HtmlParser-backto-AnchorHtmlParser" style="stroke:#181818;stroke-width:1.0;stroke-dasharray:7.0,7.0;"/><polygon fill="none" points="1436.67,515.003,1457.69,517.673,1439.59,528.694,1436.67,515.003" style="stroke:#181818;stroke-width:1.0;"/></g><!--MD5=[66911e0c8c3d4e141040bd78e87f9f8d]
reverse link HtmlParser to CleanUpHtmlParser--><g id="link_HtmlParser_CleanUpHtmlParser"><path codeLine="51" d="M1492.13,525.835 C1442.95,543.409 1386.08,563.733 1343.46,578.964 " fill="none" id="HtmlParser-backto-CleanUpHtmlParser" style="stroke:#181818;stroke-width:1.0;stroke-dasharray:7.0,7.0;"/><polygon fill="none" points="1490.06,519.139,1511.25,519,1494.78,532.323,1490.06,519.139" style="stroke:#181818;stroke-width:1.0;"/></g><!--MD5=[7e2ce550958e9630c2ca1932af59863d]
reverse link HtmlParser to FullscreenHtmlParser--><g id="link_HtmlParser_FullscreenHtmlParser"><path codeLine="52" d="M1555.22,534.014 C1540.89,549.423 1525.52,565.946 1513.53,578.845 " fill="none" id="HtmlParser-backto-FullscreenHtmlParser" style="stroke:#181818;stroke-width:1.0;stroke-dasharray:7.0,7.0;"/><polygon fill="none" points="1550.29,529.031,1569.04,519.151,1560.54,538.564,1550.29,529.031" style="stroke:#181818;stroke-width:1.0;"/></g><!--MD5=[25308c2ab7bda7e33e5550bc1968b05b]
reverse link HtmlParser to HeadingHtmlParser--><g id="link_HtmlParser_HeadingHtmlParser"><path codeLine="53" d="M1640.78,534.014 C1655.11,549.423 1670.48,565.946 1682.47,578.845 " fill="none" id="HtmlParser-backto-HeadingHtmlParser" style="stroke:#181818;stroke-width:1.0;stroke-dasharray:7.0,7.0;"/><polygon fill="none" points="1635.46,538.564,1626.96,519.151,1645.71,529.031,1635.46,538.564" style="stroke:#181818;stroke-width:1.0;"/></g><!--MD5=[f38ba54857d1cc2ab4b53f8731362f01]
reverse link HtmlParser to ImageHtmlParser--><g id="link_HtmlParser_ImageHtmlParser"><path codeLine="54" d="M1699.52,526.068 C1746.24,543.589 1800.13,563.801 1840.57,578.964 " fill="none" id="HtmlParser-backto-ImageHtmlParser" style="stroke:#181818;stroke-width:1.0;stroke-dasharray:7.0,7.0;"/><polygon fill="none" points="1696.94,532.577,1680.67,519,1701.85,519.469,1696.94,532.577" style="stroke:#181818;stroke-width:1.0;"/></g><!--MD5=[c3c355ce322f97c5869806cd949d0a67]
reverse link HtmlParser to UnsortedListHtmlParser--><g id="link_HtmlParser_UnsortedListHtmlParser"><path codeLine="55" d="M1757.69,523.076 C1841.66,541.522 1942.09,563.581 2015.4,579.684 " fill="none" id="HtmlParser-backto-UnsortedListHtmlParser" style="stroke:#181818;stroke-width:1.0;stroke-dasharray:7.0,7.0;"/><polygon fill="none" points="1756.14,529.903,1738.11,518.775,1759.14,516.229,1756.14,529.903" style="stroke:#181818;stroke-width:1.0;"/></g><!--MD5=[6ebdfe5a15a1081dbfe4f377b29bf41b]
reverse link AnchorHtmlParser to AnchorParser--><g id="link_AnchorHtmlParser_AnchorParser"><path codeLine="57" d="M1077,640.209 C1077,654.821 1077,671.731 1077,686.688 " fill="none" id="AnchorHtmlParser-backto-AnchorParser" style="stroke:#181818;stroke-width:1.0;"/><polygon fill="#181818" points="1077,627.041,1073,633.041,1077,639.041,1081,633.041,1077,627.041" style="stroke:#181818;stroke-width:1.0;"/><text fill="#000000" font-family="sans-serif" font-size="13" lengthAdjust="spacing" textLength="64" x="1007.7" y="675.7979">has many</text></g><!--MD5=[6eb9edfc810cf9aeab121e99292409e7]
reverse link AnchorParser to AsyncapiAnchorParser--><g id="link_AnchorParser_AsyncapiAnchorParser"><path codeLine="58" d="M827.994,751.73 C655.88,769.151 421.912,795.5337 217,828 C211.217,828.9163 205.281,829.9201 199.301,830.9799 " fill="none" id="AnchorParser-backto-AsyncapiAnchorParser" style="stroke:#181818;stroke-width:1.0;stroke-dasharray:7.0,7.0;"/><polygon fill="none" points="827.541,744.74,848.142,749.703,828.943,758.67,827.541,744.74" style="stroke:#181818;stroke-width:1.0;"/></g><!--MD5=[8cf94cf91ff5eb8f1717650f4307ddbd]
reverse link AnchorParser to BPMNAnchorParser--><g id="link_AnchorParser_BPMNAnchorParser"><path codeLine="59" d="M828.372,761.953 C705.435,779.5758 555.044,802.7548 421,828 C415.291,829.0751 409.416,830.2409 403.505,831.4577 " fill="none" id="AnchorParser-backto-BPMNAnchorParser" style="stroke:#181818;stroke-width:1.0;stroke-dasharray:7.0,7.0;"/><polygon fill="none" points="827.463,755.012,848.251,759.117,829.44,768.872,827.463,755.012" style="stroke:#181818;stroke-width:1.0;"/></g><!--MD5=[f69de7c80d3665cc3da1f3011f5329b5]
reverse link AnchorParser to CodeAnchorParser--><g id="link_AnchorParser_CodeAnchorParser"><path codeLine="60" d="M874.02,772.279 C795.003,789.4558 703.728,809.4612 621,828 C615.35,829.266 609.524,830.5813 603.656,831.9129 " fill="none" id="AnchorParser-backto-CodeAnchorParser" style="stroke:#181818;stroke-width:1.0;stroke-dasharray:7.0,7.0;"/><polygon fill="none" points="872.538,765.438,893.568,768.033,875.51,779.1191,872.538,765.438" style="stroke:#181818;stroke-width:1.0;"/></g><!--MD5=[056c58b03427cf6cf5839e00114d86fc]
reverse link AnchorParser to DashboardAnchorParser--><g id="link_AnchorParser_DashboardAnchorParser"><path codeLine="61" d="M949.28,775.065 C899.657,793.1565 845.051,813.0649 804.204,827.9567 " fill="none" id="AnchorParser-backto-DashboardAnchorParser" style="stroke:#181818;stroke-width:1.0;stroke-dasharray:7.0,7.0;"/><polygon fill="none" points="947.187,768.377,968.374,768.103,951.982,781.5303,947.187,768.377" style="stroke:#181818;stroke-width:1.0;"/></g><!--MD5=[02aa2e0b6fdbebc37b7260b60d6f9372]
reverse link AnchorParser to FeatureAnchorParser--><g id="link_AnchorParser_FeatureAnchorParser"><path codeLine="62" d="M1028.93,783.5326 C1015.31,799.1259 1001.216,815.2622 990.227,827.8428 " fill="none" id="AnchorParser-backto-FeatureAnchorParser" style="stroke:#181818;stroke-width:1.0;stroke-dasharray:7.0,7.0;"/><polygon fill="none" points="1023.83,778.7302,1042.26,768.272,1034.38,787.9402,1023.83,778.7302" style="stroke:#181818;stroke-width:1.0;"/></g><!--MD5=[7f3a00b34b1e4a37369182cbea89eec0]
reverse link AnchorParser to IFrameAnchorParser--><g id="link_AnchorParser_IFrameAnchorParser"><path codeLine="63" d="M1125.52,783.5326 C1139.27,799.1259 1153.49,815.2622 1164.58,827.8428 " fill="none" id="AnchorParser-backto-IFrameAnchorParser" style="stroke:#181818;stroke-width:1.0;stroke-dasharray:7.0,7.0;"/><polygon fill="none" points="1120.04,787.9036,1112.06,768.272,1130.54,778.6451,1120.04,787.9036" style="stroke:#181818;stroke-width:1.0;"/></g><!--MD5=[a2f5046498a042292acfeea4fe3696a0]
reverse link AnchorParser to MarkdownAnchorParser--><g id="link_AnchorParser_MarkdownAnchorParser"><path codeLine="64" d="M1203.2,775.065 C1252.23,793.1565 1306.19,813.0649 1346.55,827.9567 " fill="none" id="AnchorParser-backto-MarkdownAnchorParser" style="stroke:#181818;stroke-width:1.0;stroke-dasharray:7.0,7.0;"/><polygon fill="none" points="1200.67,781.5936,1184.33,768.103,1205.52,768.459,1200.67,781.5936" style="stroke:#181818;stroke-width:1.0;"/></g><!--MD5=[fc701b19ef5fe2085b281d8c211a6418]
reverse link AnchorParser to OpenapiAnchorParser--><g id="link_AnchorParser_OpenapiAnchorParser"><path codeLine="65" d="M1278.07,772.327 C1368.84,792.1129 1471.75,814.5439 1544.39,830.3774 " fill="none" id="AnchorParser-backto-OpenapiAnchorParser" style="stroke:#181818;stroke-width:1.0;stroke-dasharray:7.0,7.0;"/><polygon fill="none" points="1276.35,779.1175,1258.3,768.019,1279.33,765.439,1276.35,779.1175" style="stroke:#181818;stroke-width:1.0;"/></g><!--MD5=[b5dd6a20875df8b9f1bebbcb2b7521c6]
reverse link AnchorParser to UserTaskAnchorParser--><g id="link_AnchorParser_UserTaskAnchorParser"><path codeLine="66" d="M1325.79,762.048 C1453.21,780.0347 1610.67,803.5036 1751,828 C1756.87,829.0243 1762.9,830.1179 1768.97,831.2513 " fill="none" id="AnchorParser-backto-UserTaskAnchorParser" style="stroke:#181818;stroke-width:1.0;stroke-dasharray:7.0,7.0;"/><polygon fill="none" points="1324.44,768.926,1305.61,759.209,1326.39,755.063,1324.44,768.926" style="stroke:#181818;stroke-width:1.0;"/></g><!--MD5=[6e6b49bec96f31a379605c5192e8271f]
reverse link AnchorParser to UrlRewriteAnchorParser--><g id="link_AnchorParser_UrlRewriteAnchorParser"><path codeLine="67" d="M1325.94,750.633 C1507.23,768.054 1758.45,794.8903 1978,828 C1983.98,828.9015 1990.11,829.8874 1996.29,830.9276 " fill="none" id="AnchorParser-backto-UrlRewriteAnchorParser" style="stroke:#181818;stroke-width:1.0;stroke-dasharray:7.0,7.0;"/><polygon fill="none" points="1325.09,757.584,1305.85,748.714,1326.43,743.648,1325.09,757.584" style="stroke:#181818;stroke-width:1.0;"/></g><!--MD5=[46c7e3f3547879bb008ce0cce414cbab]
@startuml
class MarkdownRenderer

interface FileParser {
    async parse(file: string) : void
}
class CompositeFileParser
class DrawIOFileParser
Class MarkdownFileParser
Class MarkdownEmailFileParser
Class MarkdownMessageFileParser
class UMLFileParser

interface HtmlParser {
    async parse(element: Element) : void
}
class AnchorHtmlParser
class CleanUpHtmlParser
class FullscreenHtmlParser
class HeadingHtmlParser
class ImageHtmlParser
class UnsortedListHtmlParser

interface AnchorParser {
    canParse(anchor: HTMLAnchorElement) : bool
    async parse(file: string, anchor: HTMLAnchorElement) : string;
}
class AsyncapiAnchorParser
class BPMNAnchorParser
class CodeAnchorParser
class DashboardAnchorParser
class FeatureAnchorParser
class IFrameAnchorParser
class MarkdownAnchorParser
class OpenapiAnchorParser
class UmlAnchorParser
class UserTaskAnchorParser

CompositeFileParser *- - "has many" FileParser
FileParser <|.. DrawIOFileParser
FileParser <|.. MarkdownFileParser
FileParser <|.. MarkdownEmailFileParser
FileParser <|.. MarkdownMessageFileParser
FileParser <|.. UMLFileParser
CompositeFileParser ..|> FileParser

MarkdownFileParser - -> "uses" MarkdownRenderer

MarkdownRenderer *- - "has many" HtmlParser

HtmlParser <|.. AnchorHtmlParser
HtmlParser <|.. CleanUpHtmlParser
HtmlParser <|.. FullscreenHtmlParser
HtmlParser <|.. HeadingHtmlParser
HtmlParser <|.. ImageHtmlParser
HtmlParser <|.. UnsortedListHtmlParser

AnchorHtmlParser *- - "has many" AnchorParser
AnchorParser <|.. AsyncapiAnchorParser
AnchorParser <|.. BPMNAnchorParser
AnchorParser <|.. CodeAnchorParser
AnchorParser <|.. DashboardAnchorParser
AnchorParser <|.. FeatureAnchorParser
AnchorParser <|.. IFrameAnchorParser
AnchorParser <|.. MarkdownAnchorParser
AnchorParser <|.. OpenapiAnchorParser
AnchorParser <|.. UserTaskAnchorParser
AnchorParser <|.. UrlRewriteAnchorParser
@enduml

PlantUML version 1.2022.4beta2(Unknown compile time)
(GPL source distribution)
Java Runtime: Java(TM) SE Runtime Environment
JVM: Java HotSpot(TM) 64-Bit Server VM
Default Encoding: UTF-8
Language: en
Country: US
--></g></svg>