<svg width="1190" height="1684" viewBox="0 0 1190 1684" fill="none" xmlns="http://www.w3.org/2000/svg">
<g opacity="0.04">
<path d="M594.93 446L432.258 539.941L540.417 602.34L594.975 570.845L649.533 602.34L757.738 539.941L594.93 446Z" fill="#FF8820"/>
<path d="M649.533 602.34L649.487 790.222L812.295 884.071L920.5 821.626L757.692 727.777L757.738 539.941L649.533 602.34Z" fill="#FF8820"/>
<path d="M812.295 884.071V947.063L757.737 978.513V1103.36L920.5 1009.46V821.626L812.295 884.071Z" fill="#FF4B0F"/>
<path d="M757.738 978.513L594.93 884.618L432.258 978.513V1103.36L594.93 1009.46L757.738 1103.36V978.513Z" fill="#FF4B0F"/>
<path d="M432.258 978.513L377.655 947.017V884.071L269.405 821.672L269.496 1009.46L432.258 1103.36V978.513Z" fill="#D72339"/>
<path d="M269.405 821.672L377.655 884.071L540.372 790.222L540.417 602.34L432.258 539.941L432.167 727.777L269.405 821.672Z" fill="#D72339"/>
<path d="M432.167 727.777L540.372 790.222L377.655 884.071L269.405 821.672L432.167 727.777Z" fill="#FF8820"/>
<path d="M649.533 602.34L757.738 539.941L757.692 727.777L649.487 790.222L649.533 602.34Z" fill="#FF4B0F"/>
<path d="M594.93 884.618V1009.46L757.738 1103.36V978.513L594.93 884.618Z" fill="#D72339"/>
</g>
</svg>
