<svg xmlns="http://www.w3.org/2000/svg" width="264" height="264" preserveAspectRatio="xMidYMax meet" viewBox="0 0 264 264"><rect width="264" height="264" fill="#ffffff" x="0" y="0" /><svg width="168" height="168" x="48" y="48"><path d="M0 0L12 0L12 12L24 12L24 24L12 24L12 36L24 36L24 24L36 24L36 36L48 36L48 48L36 48L36 60L24 60L24 48L12 48L12 60L24 60L24 72L12 72L12 108L24 108L24 96L36 96L36 84L24 84L24 72L48 72L48 60L60 60L60 72L72 72L72 84L60 84L60 96L48 96L48 108L60 108L60 132L48 132L48 156L60 156L60 132L96 132L96 120L108 120L108 144L96 144L96 156L120 156L120 144L132 144L132 156L168 156L168 168L0 168ZM24 0L36 0L36 12L24 12ZM48 0L60 0L60 12L48 12ZM72 0L84 0L84 24L72 24ZM96 0L108 0L108 12L96 12ZM120 0L132 0L132 12L120 12ZM144 0L156 0L156 12L168 12L168 24L132 24L132 12L144 12ZM36 12L48 12L48 24L36 24ZM48 24L72 24L72 36L48 36ZM96 24L132 24L132 36L120 36L120 72L108 72L108 84L120 84L120 72L132 72L132 84L144 84L144 108L168 108L168 120L156 120L156 132L144 132L144 144L132 144L132 132L120 132L120 108L132 108L132 96L108 96L108 108L96 108L96 96L84 96L84 120L72 120L72 84L96 84L96 60L84 60L84 48L108 48L108 36L96 36ZM72 36L84 36L84 48L72 48ZM132 36L144 36L144 60L132 60ZM156 36L168 36L168 48L156 48ZM144 60L168 60L168 72L156 72L156 84L144 84ZM156 84L168 84L168 96L156 96ZM12 120L12 132L24 132L24 144L12 144L12 156L36 156L36 132L24 132L24 120ZM156 132L168 132L168 144L156 144Z" fill="#000000" fill-rule="evenodd" data-x-modules="14" data-y-modules="14"/></svg><desc>Barcode generated at https://orcascan.com</desc></svg>