<svg xmlns="http://www.w3.org/2000/svg" width="510.959" height="278.346"><path d="M66.9 273.03c-4.992-1.744-2.97-9.721 4.917-19.397 7.21-8.845 24.34-25.17 40.296-38.403 20.12-16.686 57.805-43.695 82.007-58.775 21.055-13.12 32.873-20.004 51.91-30.242 12.376-6.656 22.481-11.807 32.466-16.549 6.495-3.085 24.571-11.1 26.47-11.736.681-.229 3.875-1.497 7.098-2.819 12.65-5.188 27.844-10.49 47.39-16.538 13.165-4.073 25.892-7.26 34.566-8.656 5.778-.93 15.682-1.97 21.554-2.265 5.419-.271 9.17-1.4 11.303-3.4.506-.474 2.753-1.926 4.994-3.227 11.15-6.47 36.59-22.022 44.154-26.991 6.879-4.52 15.26-10.966 18.771-14.437 1.943-1.92 4.733-5.29 5.864-7.081.742-1.177.643-1.382-1.09-2.248-1.878-.937-4.204-1.174-9.74-.993-15.777.517-41.89 5.712-79.513 15.818-19.173 5.15-43.423 12.797-66.896 21.095-25.08 8.867-69.597 26.233-84.376 32.917-3.903 1.765-8.753 3.918-10.777 4.785-13.3 5.694-17.455 7.596-35.354 16.182-21.812 10.462-57.11 28.314-66.37 33.565-1.59.902-6.854 3.766-11.697 6.365-4.843 2.599-10.935 5.944-13.537 7.434-25.784 14.766-38.234 22.278-58.616 35.368-11.891 7.637-16.195 10.295-26.154 16.155-8.736 5.14-19.252 12.674-22.62 16.206-2.326 2.44-3.768 4.442-3.57 4.957.077.201.65.494 1.27.65.623.155 1.516.455 1.986.666.775.348.854.49.854 1.53 0 1.76-.593 2.15-3.248 2.138-1.663-.01-2.45-.146-3.526-.626-1.97-.877-2.69-1.82-2.686-3.524.009-4.532 6.028-10.683 18.15-18.546 11.192-7.259 33.86-21.774 40.464-25.91C80.636 165.84 109.96 148.5 124.3 140.617c21.002-11.547 30.2-16.368 52.34-27.431 36.144-18.06 57.295-27.99 80.565-37.82 2.747-1.161 9.43-4.002 14.851-6.314 5.422-2.311 12.38-5.196 15.462-6.41 17.15-6.757 67.134-25.046 74.96-27.429 1.518-.462 7.015-2.2 12.215-3.86 5.2-1.662 10.458-3.26 11.684-3.55 1.225-.292 2.648-.758 3.161-1.037 1.136-.618 25.67-7.307 39.31-10.718 12.08-3.02 33.58-7.767 40.48-8.937 10.017-1.698 16.277-2.217 25.233-2.092 5.854.081 6.4.13 7.57.67 1.53.706 2.52 1.46 3.124 2.382.561.856.86 3.082.623 4.66-.5 3.325-7.66 10.932-16.66 17.697-9.506 7.144-15.579 10.95-52.287 32.773-5.096 3.03-9.264 5.569-9.262 5.643 0 .074 1.132.658 2.509 1.296 4.632 2.145 6.025 4.073 5.997 8.303-.041 6.13-3.524 11.813-13.615 22.21l-6.15 6.341-1.94 2.004 2.569 1.414c5.277 2.903 7.143 6.112 6.022 10.35-.684 2.586-2.97 5.93-6.987 10.218-3.494 3.73-15.664 12.653-24.683 18.096-9.318 5.625-23.27 13.155-26.844 14.49-.958.358-4.744 1.952-8.412 3.542-13.612 5.901-20.259 8.207-34.531 11.98-5.205 1.377-10.09 2.746-10.856 3.043-3.296 1.28-5.634 2.592-22.92 12.87-8.967 5.33-16.963 9.833-24.775 13.951-2.566 1.353-4.665 2.537-4.665 2.632 0 .302 1.22.742 2.935 1.058 2.81.517 13.032.448 16.122-.108 11.104-2.001 34.778-9.73 50.11-16.36 3.155-1.365 6.775-2.846 8.042-3.29 3.041-1.066 6.997-3.056 9.452-4.753 1.09-.753 3.617-2.928 5.615-4.833 7.375-7.031 13.995-12.08 22.985-17.529 3.502-2.123 13.545-7.19 18.005-9.083 4.36-1.851 8.41-2.316 10.549-1.21 1.017.526 1.803 1.848 1.804 3.033 0 4.67-19.236 16.47-50.204 30.787-4.01 1.854-6.581 4.435-8.672 8.706-4.744 9.693-.183 15.464 14.061 17.793 8.852 1.447 24.055.597 30.597-1.711.618-.218 1.731-.943 2.474-1.61 4.47-4.02 19.623-8.548 28.605-8.548 2.692 0 3.262.077 4.111.554 1.024.575 2.16 1.976 2.16 2.662 0 1.65-6.482 4.531-16.437 7.307-4.143 1.155-4.843 1.432-4.496 1.78.414.415 12.027.385 21.46-.056 5.276-.247 11.171-.406 13.1-.353 3.31.09 3.534.13 4.008.715.336.415.502 1.032.502 1.86 0 1.367-.43 1.937-2.102 2.79l-.92.468.92.374c1.164.473 2.102 1.335 2.102 1.931 0 .654-1.717 1.987-3.417 2.655-2.117.83-6.956.851-8.717.038-.675-.312-1.433-.882-1.685-1.266-.661-1.01-.579-2.91.16-3.698l.583-.62-.624-.14c-.344-.077-7.426-.178-15.74-.225l-15.113-.086-3.154-.863c-2.941-.804-3.35-.853-6.046-.716-1.59.08-4.607.383-6.703.673-6.29.87-11.452 1.15-18.005.977-13.53-.358-19.424-1.954-24.247-6.568-3.043-2.912-4.273-5.653-4.273-9.527 0-2.778.504-4.815 1.858-7.507.568-1.13 1.034-2.088 1.034-2.128 0-.04-1.39.597-3.089 1.417-8.678 4.186-36.216 14.408-47 17.447-12.744 3.59-24.138 5.105-29.644 3.938-.988-.21-3.172-.99-4.853-1.736-4.187-1.858-4.426-1.872-7.313-.422-4.602 2.311-12.445 5.45-18.496 7.4-9.692 3.125-19.764 4.453-26.235 3.46-3.13-.482-6.924-1.685-8.935-2.836-2.879-1.646-6.026-5.231-7.522-8.567-.275-.613-.612-1.115-.75-1.115s-3.166 1.702-6.729 3.782c-6.503 3.796-26.234 14.803-39.729 22.162-13.54 7.385-25.086 13.43-36.142 18.922-24.84 12.341-33.703 15.671-37.85 14.222zm6.46-5.712c7.41-2.09 12.708-4.442 35.596-15.801 21.782-10.81 40.944-21.137 70.05-37.75l7.754-4.426-.244-2.628c-.283-3.056.146-6.709 1.417-12.032 2.594-10.872 8.731-22.64 17.095-32.783 1.61-1.952 3.563-4.398 4.343-5.436 1.453-1.936 3.966-4.008 8.932-7.367 6.03-4.078 7.49-4.695 10.598-4.476 2.709.191 4.72.99 6.432 2.554 1.395 1.275 2.3 2.405 6.627 8.285 4.592 6.237 11.035 13.274 12.154 13.274.578 0 4.429-2.275 19.65-11.607a5399.93 5399.93 0 0 1 22.606-13.76 3730.39 3730.39 0 0 0 21.628-13.193 3368.172 3368.172 0 0 1 16.823-10.297c4.007-2.43 13.85-8.419 21.874-13.308 12.685-7.73 50.188-30.54 55.272-33.618l1.782-1.079-1.125-.088c-2.162-.17-11.6 1.036-23.363 2.984-9.006 1.49-10.523 1.836-17.32 3.938-3.109.96-6.396 1.857-7.306 1.991-.91.135-2.093.468-2.629.74-.536.271-4.286 1.525-8.334 2.786-4.048 1.26-10.908 3.567-15.245 5.126a5437.388 5437.388 0 0 1-12.88 4.61c-2.747.978-6.946 2.6-9.332 3.604-2.385 1.005-5.579 2.303-7.097 2.884-11.91 4.564-42.23 18.928-59.273 28.081a431.149 431.149 0 0 1-8.375 4.365c-2.148 1.081-5.105 2.706-6.57 3.611-1.467.905-6.048 3.611-10.181 6.013-4.134 2.402-9.93 5.87-12.88 7.709-2.95 1.838-6.666 4.114-8.256 5.058-3.474 2.063-20.23 12.877-24.84 16.033-25.364 17.359-48.235 34.369-65.056 48.385-17.473 14.56-33.34 30.292-40.279 39.935-2.411 3.351-4.416 7.7-3.824 8.293.29.29.986.176 3.775-.61zm145.731-45.865c6.785-1.286 11.24-2.59 18.006-5.276 7.554-2.998 10.926-4.558 11.852-5.484.666-.666.668-.68.333-2.587-.904-5.154.21-11.35 2.898-16.112 2.6-4.608 3.946-6.692 5.938-9.2 1.264-1.59 2.43-3.145 2.592-3.455.369-.704.258-.8-2.322-1.995-1.084-.503-2.612-1.35-3.395-1.883-.783-.533-1.568-.914-1.745-.846-.178.068-4.446 2.634-9.485 5.702-15.321 9.326-26.227 15.854-38.077 22.792-11.293 6.611-13.86 8.265-14.005 9.02-.106.55 2.228 4.053 3.645 5.47 2.294 2.294 4.632 3.507 8.418 4.365 2.767.628 10.737.362 15.347-.511zm40.076-15.392c8.75-4.381 17.868-9.485 32.584-18.24l6.684-3.975-10.364-.158c-5.78-.088-11.12-.29-12.072-.457-.94-.165-3.355-.775-5.367-1.357s-3.87-.991-4.13-.909c-1.609.51-8.194 9.278-10.224 13.61-1.922 4.103-2.429 6.022-2.442 9.248-.01 2.801.296 4.337.868 4.337.15 0 2.159-.945 4.463-2.099zm-56.74-5.93c5.292-3.076 18.083-10.676 28.425-16.889l18.803-11.296-1.966-1.936c-2.847-2.804-5.9-6.516-9.97-12.12-5.713-7.87-7.619-9.269-11.052-8.112-3.153 1.062-8.737 4.731-9.788 6.432-.318.514-1.392 1.638-2.387 2.496-5.798 5.003-12.093 13.35-16.578 21.985-4.469 8.602-6.693 15.818-7.003 22.722l-.16 3.533 1.028-.61c.565-.336 5.357-3.128 10.648-6.205zm164.388-21.923c10.017-4.83 26.456-14.502 30.36-17.863 1.207-1.04.685-1.04-2.247-.01-7.09 2.503-16.654 7.463-24.325 12.615-2.262 1.52-9.373 6.954-10.36 7.917-.521.51-.517.51.658.065.65-.246 3.311-1.474 5.914-2.729zm-69.217.76c6.596-.455 9.275-.911 11.474-1.955 2.594-1.231 33.196-21.078 47.36-30.715 12.635-8.597 40.677-29.04 44.028-32.098l1.051-.96-1.971.162c-6.17.506-19.362 2.97-22.474 4.198-.867.342-3.115 1.053-4.994 1.58-6.035 1.693-15.95 5.066-23.92 8.137-3.657 1.409-14.656 6.523-21.685 10.083-14.99 7.592-31.108 17.72-41.662 26.18-6.197 4.968-14.326 12.233-14.326 12.805 0 .444 1.693 1.072 4.164 1.545 6.032 1.156 15.216 1.572 22.955 1.038zm-24.252-11.518c11.65-9.943 17.81-14.535 28.326-21.12 15.072-9.436 31.985-18.122 45.56-23.398 10.563-4.104 21.02-7.414 32.488-10.283 8.25-2.063 13.478-3.042 19.82-3.712 6.428-.68 7.628-.895 8.926-1.601 2.476-1.348 11.02-9.348 15.046-14.088 3.359-3.954 4.945-6.316 7.045-10.489l1.797-3.567-.776-1.42c-.427-.78-1.022-1.68-1.323-2-.768-.818-3.7-2.302-5.848-2.959l-1.812-.555L419.282 74c-3.95 2.077-8.33 4.635-13.17 7.69-1.952 1.233-11.474 6.988-21.16 12.791a4922.39 4922.39 0 0 0-35.748 21.671c-34.894 21.395-49.735 30.47-56.645 34.635-22.525 13.578-33.394 20.376-33.579 20.999-.088.298 3.646 2.373 4.9 2.722.903.251.886.263 9.466-7.058zm57.697 4.537c11.165-3.694 27.921-10.57 37.875-15.543 23.894-11.937 44.667-26.954 48.934-35.375 1.225-2.417.756-4.083-1.67-5.942-2.34-1.79-5.892-2.39-7.948-1.342-.556.284-3.301 2.315-6.1 4.513-19.084 14.988-49.698 36.495-71.205 50.024-8.925 5.615-10.065 6.455-8.757 6.455.24 0 4.233-1.256 8.871-2.79zm139.73 67.902c-.829-.417-.977-1.58-.419-3.287.222-.68.476-1.77.564-2.42.34-2.51.983-3.283 2.48-2.984 1.431.286 1.68 1.015 1.497 4.377-.209 3.827-.286 4.059-1.457 4.384-1.253.348-1.866.332-2.665-.07z" style="fill:#000;stroke:none"/></svg>